if (_typeface_js && _typeface_js.loadFace) _typeface_js.loadFace({"glyphs":{"0":{"ha":764,"x_min":19,"x_max":736,"o":"m 381 711 q 519 683 454 711 q 632 607 583 656 q 708 493 681 558 q 736 354 736 428 q 717 239 736 293 q 662 140 697 185 q 578 62 626 94 q 475 13 531 29 q 381 0 429 0 q 335 3 358 0 q 290 10 311 6 q 287 9 289 10 q 283 8 285 8 q 144 81 204 31 q 51 207 83 132 q 19 353 19 279 q 51 500 19 428 q 146 627 83 575 q 292 703 208 679 l 292 701 q 290 699 290 699 q 381 711 332 711 m 226 644 q 140 581 176 619 q 79 488 103 543 q 50 353 50 422 q 79 219 50 283 q 226 63 124 114 l 226 644 m 272 664 q 260 660 265 661 q 249 656 254 658 l 249 51 q 260 47 256 49 q 272 43 265 46 l 272 664 m 301 31 q 341 24 321 26 q 381 21 361 21 q 464 33 424 21 l 464 678 q 423 686 443 683 q 381 689 403 689 q 301 679 339 689 l 301 31 m 485 36 q 577 84 535 53 q 650 157 619 115 q 697 249 681 199 q 714 354 714 299 q 697 460 714 410 q 649 553 679 511 q 577 625 619 594 q 485 672 535 656 l 485 36 z "},"1":{"ha":374,"x_min":-4,"x_max":346,"o":"m 338 708 q 346 696 346 704 l 346 15 q 332 0 346 0 l 82 0 q 68 15 68 0 l 68 418 q 49 399 58 410 q 31 382 40 389 q 13 381 18 375 q 15 400 -4 394 q 42 426 29 413 q 68 451 54 439 q 71 460 68 457 l 319 704 q 329 709 325 707 q 338 708 333 711 m 97 31 l 271 31 l 271 617 q 185 530 228 574 q 97 443 142 486 l 97 31 m 318 660 q 306 648 311 653 q 293 636 300 643 l 293 31 l 318 31 l 318 660 z "},"2":{"ha":726,"x_min":17,"x_max":701,"o":"m 363 711 q 476 693 422 711 q 575 642 531 675 q 652 564 619 610 q 701 464 685 518 q 699 453 701 456 q 694 449 697 450 q 493 391 594 421 q 292 333 392 361 l 292 31 q 329 25 311 26 q 363 24 347 24 q 523 63 450 24 q 642 172 596 101 l 644 172 q 647 173 646 172 q 651 174 649 174 q 660 166 657 171 q 663 158 663 161 q 533 41 611 82 q 363 0 454 0 q 322 3 343 0 q 281 10 300 6 l 274 10 q 173 55 221 25 q 92 129 125 85 q 86 132 89 129 l 85 138 q 82 138 85 135 q 76 146 78 139 l 78 144 q 47 197 58 171 q 24 256 35 224 q 17 268 17 257 q 18 277 17 271 q 28 285 19 283 q 151 321 89 303 q 274 357 213 339 q 285 354 279 357 q 482 411 385 382 q 679 468 579 440 q 631 559 663 518 q 558 628 600 600 q 467 672 517 657 q 363 688 417 688 q 210 650 283 688 q 93 549 138 613 q 74 543 88 543 l 74 560 q 201 672 124 633 q 363 711 278 711 m 218 308 q 137 284 175 296 q 56 260 99 272 q 64 241 60 250 q 71 221 68 232 q 132 128 94 169 q 218 61 169 86 l 218 308 m 242 50 q 251 45 246 47 q 263 43 257 43 l 263 318 q 242 313 256 315 l 242 50 z "},"3":{"ha":703,"x_min":19,"x_max":676,"o":"m 315 711 q 410 699 364 711 l 414 700 q 552 625 493 675 q 644 500 611 575 q 676 353 676 425 q 644 207 676 279 q 551 81 611 132 q 411 7 492 31 q 403 10 406 7 q 361 3 383 6 q 315 0 339 0 q 148 40 226 0 q 19 157 69 81 l 19 171 q 32 174 28 174 q 38 174 36 174 q 159 60 86 99 q 315 21 232 21 q 394 31 357 21 l 394 356 l 346 356 q 333 368 333 356 q 346 381 333 381 l 394 381 l 394 678 q 315 688 357 688 q 163 651 233 688 q 43 549 92 615 l 44 550 q 26 546 39 533 q 24 560 24 549 q 151 672 75 632 q 315 711 228 711 m 468 61 q 556 126 519 88 q 618 221 592 165 q 646 353 646 288 q 639 419 646 386 q 619 486 632 453 q 556 578 596 536 q 468 644 515 621 l 468 61 m 446 51 q 449 52 449 53 q 446 50 449 51 l 446 51 m 424 42 q 437 47 431 44 q 446 51 443 50 l 446 656 q 435 660 439 658 q 424 664 432 661 l 424 42 z "},"4":{"ha":754,"x_min":10,"x_max":724,"o":"m 724 356 q 696 217 724 282 q 620 104 668 153 q 507 28 572 56 q 368 0 442 0 q 358 11 358 0 q 368 22 358 22 q 499 49 438 22 q 605 120 560 75 q 676 226 650 165 q 703 356 703 286 q 494 355 597 356 q 285 354 390 354 q 276 351 279 351 l 24 351 q 13 356 14 351 q 10 367 10 358 q 19 435 11 401 q 39 499 26 469 q 135 624 74 569 q 276 699 196 678 q 322 708 300 704 q 368 711 344 711 q 379 700 379 711 q 368 688 379 688 q 290 678 325 688 l 290 378 l 703 378 l 703 700 q 713 711 703 711 q 724 700 724 711 l 724 356 m 217 643 q 128 580 167 618 q 68 486 90 542 q 49 433 56 460 q 40 382 43 407 l 217 382 l 217 643 m 238 382 l 261 382 l 261 664 q 250 660 258 663 q 238 654 242 657 l 238 382 z "},"5":{"ha":757,"x_min":17,"x_max":732,"o":"m 721 378 q 732 367 732 378 l 732 356 q 704 217 732 282 q 628 104 676 153 q 514 28 579 56 q 375 0 449 0 q 212 40 288 0 q 85 153 136 81 l 85 151 q 88 165 81 158 q 100 169 94 175 q 222 60 149 99 q 375 22 296 22 q 507 49 446 22 q 613 120 568 75 q 684 226 658 165 q 710 356 710 286 q 501 355 606 356 q 293 354 397 354 q 285 351 288 351 l 32 351 q 21 356 22 351 q 17 367 17 357 q 47 499 19 436 q 141 624 79 572 q 285 699 203 676 q 330 708 308 704 q 375 711 351 711 q 540 672 463 711 q 668 558 617 632 q 663 544 672 549 l 665 544 q 649 549 656 535 l 649 547 q 530 653 601 617 q 375 689 458 689 q 299 678 343 689 l 299 378 l 721 378 m 224 643 q 137 580 174 618 q 76 486 100 542 q 58 433 65 460 q 47 382 50 406 l 224 382 l 224 643 m 244 654 q 244 656 243 654 l 244 654 m 257 660 q 250 657 254 658 q 244 654 246 656 l 244 382 l 268 382 l 268 664 q 257 660 260 660 z "},"6":{"ha":760,"x_min":19,"x_max":735,"o":"m 724 379 q 735 368 735 379 l 735 356 q 707 217 735 282 q 631 104 679 153 q 518 28 583 56 q 379 0 453 0 q 335 3 358 0 q 290 10 311 6 q 288 9 289 10 q 285 8 286 8 q 144 82 206 31 q 50 208 82 133 q 27 279 35 242 q 19 354 19 317 l 19 368 q 24 379 19 372 q 59 509 29 449 q 137 615 89 569 q 247 685 185 660 q 379 711 308 711 q 543 674 467 711 q 667 567 619 636 q 672 549 675 551 q 654 544 657 542 q 534 652 606 615 q 379 689 463 689 q 254 665 313 689 q 151 601 196 642 q 78 503 106 560 q 46 382 50 447 l 288 382 q 297 379 294 382 l 724 379 m 50 353 l 43 353 l 50 360 l 50 354 l 50 353 m 50 353 q 79 221 50 283 q 226 63 124 114 l 226 353 l 50 353 m 272 353 l 249 353 l 249 51 q 260 47 256 49 q 272 43 265 46 l 272 353 m 379 21 q 510 47 449 21 q 616 119 571 74 q 687 226 661 165 q 713 356 713 286 l 713 357 l 301 357 l 301 32 q 379 21 343 21 z "},"7":{"ha":590,"x_min":7,"x_max":560,"o":"m 546 711 q 560 694 560 711 l 560 15 q 546 0 560 0 l 297 0 q 282 15 282 0 l 282 356 l 219 356 q 207 368 207 356 q 219 381 207 381 l 282 381 l 282 685 q 31 539 110 679 q 18 540 28 536 q 8 550 10 543 q 15 561 7 557 q 299 711 100 711 l 546 711 m 311 31 l 486 31 l 486 681 l 311 681 l 311 31 m 531 681 l 507 681 l 507 31 l 531 31 l 531 681 z "},"8":{"ha":763,"x_min":19,"x_max":735,"o":"m 735 356 q 707 217 735 282 q 631 104 679 153 q 517 28 582 56 q 379 0 453 0 q 333 3 356 0 q 290 10 311 6 q 288 9 289 10 q 283 8 286 8 q 144 81 204 29 q 51 208 83 132 q 19 354 19 279 q 51 499 19 426 q 144 624 83 574 q 283 699 204 675 l 289 699 q 333 708 310 704 q 379 711 356 711 q 515 684 451 711 q 626 611 578 657 q 703 503 674 565 q 735 369 732 440 l 735 356 m 711 378 q 679 499 707 442 q 606 597 651 556 q 503 663 561 639 q 379 688 444 688 q 341 685 361 688 q 301 678 321 683 l 301 378 l 711 378 m 50 356 l 50 354 q 81 221 50 282 q 226 63 124 114 l 226 356 l 50 356 m 226 378 l 226 644 q 140 579 178 619 q 81 486 103 539 q 51 378 56 433 l 226 378 m 250 51 q 260 48 254 50 q 272 43 267 46 l 272 356 l 250 356 l 250 51 m 276 665 q 274 664 275 664 q 272 663 274 664 l 272 674 l 279 667 q 277 666 278 667 q 275 665 276 665 l 276 665 m 272 378 l 272 663 q 262 659 267 660 q 250 656 257 658 l 250 378 l 272 378 m 379 22 q 508 49 447 22 q 614 120 568 75 q 686 226 660 165 q 713 356 713 286 l 301 356 l 301 32 q 379 22 340 22 z "},"9":{"ha":760,"x_min":17,"x_max":732,"o":"m 732 354 q 704 217 732 281 q 628 104 676 153 q 515 28 579 56 q 376 0 450 0 q 213 40 289 0 q 85 151 136 81 l 85 150 q 81 157 81 153 q 83 164 81 161 q 100 169 97 172 q 221 60 149 99 q 376 21 293 21 q 507 47 446 21 q 613 119 568 74 q 684 226 658 165 q 710 354 710 286 l 710 357 q 501 356 606 357 q 293 356 397 356 q 283 353 288 353 l 32 353 q 21 357 22 353 q 17 369 17 358 q 47 500 19 438 q 142 623 79 571 q 283 699 204 675 q 376 711 326 711 q 513 685 449 711 q 624 612 576 658 q 701 502 672 565 q 732 367 729 439 l 732 354 m 224 643 q 136 581 172 618 q 76 488 100 543 q 57 435 64 460 q 47 382 50 410 l 224 382 l 224 643 m 258 660 l 257 660 l 258 660 m 268 663 q 260 660 263 660 l 257 660 q 254 658 254 658 q 244 656 254 658 l 244 382 l 268 382 l 268 663 m 710 379 q 676 499 704 443 q 603 597 647 556 q 500 663 558 639 q 376 688 442 688 q 297 679 335 688 l 297 379 l 710 379 z "},"b":{"ha":457,"x_min":22,"x_max":446,"o":"m 233 0 q 154 15 192 0 q 88 58 117 31 q 42 121 60 85 q 22 197 25 157 l 22 663 q 35 676 22 676 q 47 663 47 676 l 47 313 q 124 392 75 361 q 233 422 174 422 q 317 406 278 422 q 384 360 356 389 q 429 293 413 332 q 446 211 446 254 q 429 128 446 167 q 384 62 413 90 q 317 17 356 33 q 233 0 278 0 m 233 396 q 162 381 196 396 q 102 342 128 367 q 62 283 76 317 q 47 211 47 250 q 62 138 47 172 q 102 79 76 104 q 162 40 128 54 q 233 25 196 25 q 306 40 272 25 q 365 79 340 54 q 405 138 390 104 q 419 211 419 172 q 405 283 419 250 q 365 342 390 317 q 306 381 340 367 q 233 396 272 396 z "},"c":{"ha":454,"x_min":18,"x_max":435,"o":"m 228 0 q 147 17 185 0 q 80 63 108 33 q 35 130 51 92 q 18 211 18 168 q 35 293 18 254 q 80 360 51 332 q 147 406 108 389 q 228 422 185 422 q 355 381 299 422 q 431 271 411 339 q 421 256 435 258 q 407 264 411 254 q 340 360 389 324 q 228 397 292 397 q 157 383 190 397 q 98 342 124 368 q 58 283 72 317 q 43 211 43 249 q 58 139 43 172 q 98 81 72 106 q 157 41 124 56 q 228 26 190 26 q 341 63 292 26 q 407 160 390 100 q 425 168 411 172 q 431 151 435 167 l 431 153 q 356 42 411 85 q 228 0 300 0 z "},"d":{"ha":457,"x_min":7,"x_max":429,"o":"m 219 0 q 136 17 175 0 q 69 62 97 33 q 24 129 40 90 q 7 213 7 168 q 24 294 7 256 q 69 361 40 333 q 136 406 97 389 q 219 422 175 422 q 329 392 281 422 q 406 313 378 361 l 406 663 q 418 676 406 676 q 429 663 429 676 l 429 193 q 408 117 425 153 q 362 56 390 82 q 297 15 333 31 q 219 0 261 0 m 219 397 q 147 383 181 397 q 88 343 113 368 q 48 284 63 318 q 33 213 33 250 q 48 138 33 172 q 88 79 63 104 q 147 40 113 54 q 219 25 181 25 q 292 40 258 25 q 351 79 326 54 q 391 138 376 104 q 406 213 406 172 q 391 284 406 250 q 351 343 376 318 q 292 383 326 368 q 219 397 258 397 z "},"e":{"ha":453,"x_min":18,"x_max":431,"o":"m 38 144 q 25 156 25 144 q 38 168 25 168 l 224 168 q 236 156 236 168 q 224 144 236 144 l 38 144 m 226 0 q 146 17 183 0 q 80 62 108 33 q 35 128 51 90 q 18 211 18 167 q 35 293 18 254 q 80 360 51 332 q 146 406 108 389 q 226 422 183 422 q 354 380 297 422 q 431 269 411 338 q 429 260 431 267 q 419 254 428 254 q 410 255 411 254 q 408 261 408 256 q 407 261 407 260 q 340 359 389 322 q 226 396 290 396 q 156 381 189 396 q 97 342 122 367 q 56 283 71 317 q 42 211 42 249 q 56 139 42 172 q 97 81 71 106 q 156 41 122 56 q 226 26 189 26 q 340 65 290 26 q 407 164 390 103 q 422 168 415 172 q 428 163 425 167 q 431 153 431 160 q 355 42 411 85 q 226 0 299 0 z "},"f":{"ha":238,"x_min":21,"x_max":239,"o":"m 225 461 q 238 450 238 461 q 225 436 238 436 l 44 436 l 44 13 q 32 0 44 0 q 21 13 21 0 l 21 474 q 24 499 21 481 q 33 539 26 517 q 53 585 40 561 q 90 631 67 610 q 146 664 113 651 q 226 676 179 676 q 239 663 239 676 q 226 653 239 653 q 123 625 160 653 q 69 564 86 597 q 48 501 51 531 q 44 469 44 472 l 44 461 l 225 461 z "},"g":{"ha":456,"x_min":18,"x_max":433,"o":"m 432 150 q 356 41 413 82 q 229 0 300 0 q 147 17 185 0 q 80 62 108 33 q 35 128 51 90 q 18 211 18 167 q 35 293 18 254 q 80 360 51 332 q 147 406 108 389 q 229 422 185 422 q 357 381 301 422 q 433 271 413 339 q 418 253 433 261 q 408 264 413 250 q 341 360 389 324 q 229 397 293 397 q 158 383 192 397 q 99 342 124 368 q 59 283 74 317 q 44 211 44 249 q 59 139 44 172 q 99 81 74 106 q 158 41 124 56 q 229 26 192 26 q 335 56 290 26 q 403 143 381 86 l 225 143 q 214 157 214 143 q 225 168 214 168 l 421 168 q 432 153 432 168 l 432 150 z "},"h":{"ha":447,"x_min":24,"x_max":433,"o":"m 228 424 q 339 395 299 424 q 400 331 379 367 q 426 260 421 294 q 433 215 432 226 l 433 13 q 422 0 433 0 q 410 13 410 0 l 410 215 q 406 247 410 218 q 385 308 403 275 q 331 369 368 342 q 228 397 294 397 q 126 369 163 397 q 74 308 90 342 q 53 247 57 275 q 50 215 50 218 l 50 14 q 36 0 50 0 q 24 14 24 0 l 24 664 q 36 676 24 676 q 50 664 50 676 l 50 318 q 110 391 69 358 q 228 424 151 424 z "},"i":{"ha":86,"x_min":22,"x_max":49,"o":"m 35 0 q 22 13 22 0 l 22 410 q 35 422 22 422 q 49 410 49 422 l 49 13 q 35 0 49 0 m 35 435 q 22 447 22 435 l 22 525 q 35 538 22 538 q 49 525 49 538 l 49 447 q 35 435 49 435 z "},"j":{"ha":68,"x_min":-351,"x_max":44,"o":"m 32 536 q 44 524 44 536 l 44 447 q 32 435 44 435 q 19 447 19 435 l 19 524 q 32 536 19 536 m 32 422 q 44 410 44 422 l 44 6 q 43 -10 44 6 q 36 -49 42 -26 q 18 -99 31 -72 q -17 -148 6 -125 q -74 -185 -40 -171 q -158 -200 -108 -200 q -223 -192 -189 -200 q -281 -164 -257 -185 q -323 -115 -306 -142 q -351 -50 -340 -89 q -346 -35 -351 -40 q -326 -46 -326 -35 q -321 -62 -324 -60 q -319 -68 -321 -65 q -317 -74 -318 -71 q -265 -142 -299 -117 q -232 -163 -250 -157 q -194 -172 -214 -169 l -187 -172 q -174 -174 -181 -174 q -158 -174 -168 -174 q -57 -147 -93 -174 q -4 -87 -21 -119 q 16 -26 13 -54 q 19 6 19 3 l 19 410 q 32 422 19 422 z "},"k":{"ha":446,"x_min":24,"x_max":433,"o":"m 228 422 q 339 394 299 422 q 400 331 379 367 q 426 260 421 294 q 433 215 432 226 l 433 157 q 422 144 433 144 l 363 144 q 403 106 389 128 q 422 63 417 83 q 426 29 426 43 q 425 15 425 15 l 431 22 l 431 13 q 419 0 431 0 q 407 13 407 0 l 407 22 q 403 42 407 24 q 385 81 399 60 q 344 121 371 101 q 271 144 317 140 l 228 144 q 217 157 217 144 q 228 169 217 169 l 256 171 q 260 170 258 171 q 264 169 261 169 l 408 169 l 408 215 q 408 231 408 217 q 401 266 407 246 q 385 309 396 286 q 354 351 374 332 q 303 384 335 371 q 228 397 272 397 q 153 384 183 397 q 104 351 124 371 q 74 309 85 332 q 57 266 63 286 q 51 231 51 246 q 50 215 50 217 l 50 14 q 36 0 50 0 q 24 14 24 0 l 24 664 q 36 676 24 676 q 49 664 49 676 l 49 317 q 73 356 58 338 q 109 390 88 375 q 160 413 131 404 q 228 422 189 422 z "},"l":{"ha":442,"x_min":22,"x_max":438,"o":"m 232 0 q 149 17 188 0 q 83 63 111 33 q 39 130 56 92 q 22 211 22 168 l 22 663 q 36 676 22 676 q 49 663 49 676 l 49 208 q 63 138 49 171 q 103 79 78 104 q 161 40 128 54 q 232 26 194 26 q 341 60 294 26 q 407 150 388 93 q 424 165 414 165 q 433 149 438 165 l 433 150 q 358 41 414 82 q 232 0 303 0 z "},"n":{"ha":458,"x_min":24,"x_max":432,"o":"m 229 422 q 314 407 279 422 q 372 369 349 392 q 406 319 394 346 q 424 269 418 292 q 431 230 431 246 q 432 214 432 214 l 432 14 q 421 0 432 0 q 408 14 408 0 l 408 214 q 408 230 408 215 q 401 265 407 244 q 385 308 396 285 q 355 350 375 331 q 304 383 335 369 q 229 396 274 396 q 154 383 185 396 q 103 350 124 369 q 73 308 83 331 q 57 265 63 285 q 51 230 51 244 q 50 214 50 215 l 50 14 q 38 0 50 0 q 24 14 24 0 l 24 410 q 38 422 24 422 q 50 410 50 422 l 50 317 q 74 356 60 338 q 110 390 89 375 q 161 413 132 404 q 229 422 190 422 z "},"o":{"ha":464,"x_min":18,"x_max":440,"o":"m 231 422 q 313 406 274 422 q 379 360 351 389 q 424 293 407 332 q 440 210 440 254 q 424 127 440 165 q 379 61 407 89 q 313 17 351 33 q 231 0 274 0 q 147 17 186 0 q 80 61 108 33 q 35 127 51 89 q 18 210 18 165 q 35 293 18 254 q 80 360 51 332 q 147 406 108 389 q 231 422 186 422 m 231 25 q 302 40 268 25 q 362 79 336 54 q 402 138 388 104 q 417 210 417 172 q 402 283 417 249 q 362 342 388 317 q 302 383 336 368 q 231 397 268 397 q 158 383 192 397 q 98 342 124 368 q 58 283 72 317 q 43 210 43 249 q 58 138 43 172 q 98 79 72 104 q 158 40 124 54 q 231 25 192 25 z "},"p":{"ha":456,"x_min":24,"x_max":446,"o":"m 235 422 q 317 406 278 422 q 384 360 356 389 q 429 292 413 331 q 446 210 446 253 q 429 127 446 165 q 384 61 413 89 q 317 17 356 33 q 235 0 278 0 q 124 29 172 0 q 50 107 76 58 l 50 -371 q 36 -382 50 -382 q 24 -371 24 -382 l 24 410 q 36 422 24 422 q 50 410 50 422 l 50 313 q 124 392 76 361 q 235 422 172 422 m 235 26 q 308 41 274 26 q 367 81 342 56 q 406 139 392 106 q 421 210 421 172 q 406 283 421 249 q 367 342 392 317 q 308 381 342 367 q 235 396 274 396 q 163 381 197 396 q 104 342 129 367 q 65 283 79 317 q 50 210 50 249 q 65 139 50 172 q 104 81 79 106 q 163 41 129 56 q 235 26 197 26 z "},"q":{"ha":464,"x_min":18,"x_max":439,"o":"m 228 422 q 310 406 272 422 q 377 360 349 389 q 422 292 406 331 q 439 210 439 253 q 390 75 439 132 q 391 74 390 74 q 392 72 392 74 l 392 71 q 397 58 394 65 q 399 46 399 50 q 400 38 400 43 q 400 31 400 33 l 400 13 q 388 0 400 0 q 375 13 375 0 l 375 31 q 374 37 375 32 q 369 53 374 42 q 307 13 342 26 q 228 0 272 0 q 145 17 183 0 q 79 61 107 33 q 35 127 51 89 q 18 210 18 165 q 35 292 18 253 q 79 360 51 331 q 145 406 107 389 q 228 422 183 422 m 228 140 q 217 154 217 140 q 228 167 217 167 q 327 146 292 167 q 378 101 363 125 q 415 210 415 147 q 401 283 415 249 q 360 342 386 317 q 301 381 335 367 q 228 396 267 396 q 157 381 190 396 q 98 342 124 367 q 58 283 72 317 q 43 210 43 249 q 58 139 43 172 q 98 81 72 106 q 157 41 124 56 q 228 26 190 26 q 301 42 268 26 q 360 82 333 57 q 318 122 347 104 q 228 140 289 140 z "},"r":{"ha":465,"x_min":21,"x_max":440,"o":"m 33 0 q 21 13 21 0 l 21 218 l 22 213 q 23 228 22 213 q 29 268 24 244 q 47 319 35 292 q 82 369 60 346 q 140 407 104 392 q 225 422 175 422 q 239 410 239 422 q 225 399 239 399 q 150 385 181 399 q 100 353 119 372 q 69 310 81 333 q 53 267 58 288 q 47 233 47 247 q 46 218 46 219 l 46 13 q 33 0 46 0 m 429 0 q 417 13 417 0 l 417 29 q 414 49 417 31 q 397 88 411 67 q 353 125 383 108 q 268 142 322 142 q 257 154 257 142 q 268 165 257 165 q 367 144 332 165 q 418 99 401 124 q 438 52 435 74 q 440 29 440 31 l 440 13 q 429 0 440 0 m 226 142 q 214 156 214 142 q 217 164 214 158 q 226 169 221 169 q 350 169 310 169 q 407 167 390 169 l 407 217 q 406 233 407 218 q 400 267 406 247 q 383 310 394 288 q 352 353 372 333 q 301 385 332 372 q 225 399 269 399 q 214 410 214 399 q 225 422 214 422 q 335 396 294 422 q 397 335 376 369 q 424 267 418 300 q 431 219 431 233 l 431 154 q 421 142 431 142 l 226 142 z "},"s":{"ha":447,"x_min":11,"x_max":428,"o":"m 424 151 q 349 42 404 83 q 222 0 293 0 q 211 13 211 0 q 222 26 211 26 q 327 57 281 26 q 394 140 374 88 q 214 140 303 140 q 33 139 125 139 q 21 149 24 139 q 11 211 11 174 q 28 293 11 254 q 73 360 44 332 q 140 406 101 389 q 222 422 178 422 q 347 381 292 422 q 424 275 403 339 q 417 257 428 261 q 400 265 401 253 q 333 360 381 324 q 222 396 285 396 q 151 381 185 396 q 92 342 117 367 q 52 283 67 317 q 38 211 38 249 q 43 167 38 188 l 414 167 l 424 164 l 424 151 z "},"t":{"ha":239,"x_min":21,"x_max":239,"o":"m 228 25 q 239 13 239 25 q 228 0 239 0 q 142 15 176 0 q 83 53 107 31 q 47 103 60 76 q 29 152 35 129 q 22 191 24 175 q 21 208 21 207 l 21 664 q 32 676 21 676 q 44 664 44 676 l 44 460 l 226 460 q 239 449 239 460 q 226 435 239 435 l 44 435 l 44 208 q 48 176 44 206 q 69 114 51 147 q 123 53 86 81 q 228 25 160 25 z "},"u":{"ha":456,"x_min":21,"x_max":429,"o":"m 417 422 q 429 410 429 422 l 429 203 q 422 159 428 192 q 396 91 417 126 q 335 28 375 56 q 225 0 294 0 q 139 16 174 0 q 82 55 104 32 q 47 106 60 78 q 29 157 35 133 q 23 197 24 181 q 22 213 22 213 l 21 207 l 21 410 q 33 422 21 422 q 46 410 46 422 l 46 207 q 49 176 46 204 q 69 114 53 147 q 122 53 86 81 q 225 25 158 25 q 300 38 269 25 q 351 71 331 51 q 381 113 371 90 q 397 156 392 136 q 403 191 403 176 q 404 207 404 206 l 404 410 q 417 422 404 422 z "},"v":{"ha":458,"x_min":21,"x_max":429,"o":"m 417 422 q 429 410 429 422 l 429 13 q 417 0 429 0 q 404 13 404 0 l 404 104 q 343 32 385 64 q 225 0 301 0 q 115 28 156 0 q 54 92 75 56 q 28 162 33 128 q 21 207 22 196 l 21 408 q 33 422 21 422 q 47 408 47 422 l 47 207 q 48 192 47 206 q 54 158 49 178 q 70 115 60 138 q 101 72 81 92 q 151 40 121 53 q 225 26 181 26 q 328 53 292 26 q 381 114 364 81 q 401 176 397 147 q 404 207 404 204 l 404 410 q 417 422 404 422 z "},"w":{"ha":692,"x_min":24,"x_max":660,"o":"m 646 422 q 660 410 660 422 l 660 13 q 646 0 660 0 q 635 13 635 0 l 635 104 q 574 32 615 64 q 457 0 533 0 q 391 8 418 0 q 340 32 364 17 q 291 9 319 18 q 226 0 263 0 q 142 15 176 0 q 85 53 108 31 q 50 103 63 76 q 32 152 38 129 q 25 191 26 175 q 24 207 24 207 l 24 410 q 36 422 24 422 q 49 410 49 422 l 49 207 q 52 176 49 204 q 72 114 56 147 q 125 53 89 81 q 226 25 161 25 q 279 31 258 25 q 319 47 300 36 q 279 96 293 68 q 259 148 265 124 q 251 190 253 172 q 250 207 250 207 l 250 411 q 263 422 250 422 q 276 411 276 422 l 276 207 q 277 188 276 204 q 284 151 278 172 q 303 104 290 129 q 340 61 317 79 q 378 105 365 81 q 398 151 392 129 q 406 188 404 172 q 407 207 407 204 l 407 410 q 418 422 407 422 q 432 410 432 422 l 432 207 q 431 190 432 207 q 424 148 431 172 q 404 96 418 124 q 364 47 390 68 q 403 31 382 38 q 457 25 425 25 q 558 53 522 25 q 611 114 594 81 q 631 176 628 147 q 635 207 635 204 l 635 410 q 646 422 635 422 z "},"x":{"ha":443,"x_min":14,"x_max":424,"o":"m 411 396 q 308 368 344 396 q 254 307 271 340 q 234 245 238 274 q 231 214 231 217 l 231 206 q 231 190 231 204 q 238 156 232 176 q 254 113 243 136 q 285 71 265 90 q 336 38 306 51 q 411 25 367 25 q 424 13 424 25 q 411 0 424 0 q 333 13 367 0 q 277 47 300 26 q 240 91 254 67 q 218 138 226 115 q 200 90 213 114 q 165 46 188 65 q 109 13 143 26 q 26 0 75 0 q 14 13 14 0 q 26 25 14 25 q 101 38 71 25 q 152 71 132 51 q 183 113 172 90 q 200 156 194 136 q 206 190 206 176 q 207 206 207 204 q 207 210 207 210 q 207 214 207 210 q 203 245 207 217 q 183 307 200 274 q 130 368 167 340 q 26 396 93 396 q 14 408 14 396 q 26 422 14 422 q 109 409 75 422 q 165 376 143 396 q 200 332 188 357 q 218 285 213 307 q 239 331 225 307 q 276 376 253 356 q 332 409 299 396 q 411 422 365 422 q 424 408 424 422 q 411 396 424 396 z "},"y":{"ha":443,"x_min":6,"x_max":415,"o":"m 401 422 q 415 408 415 422 l 415 -374 q 401 -385 415 -385 q 390 -374 390 -385 l 390 104 q 329 32 371 64 q 210 0 288 0 q 100 28 140 0 q 39 92 60 56 q 13 162 18 128 q 6 207 7 196 l 6 408 q 18 422 6 422 q 32 408 32 422 l 32 207 q 33 191 32 206 q 39 156 33 176 q 55 113 44 136 q 85 69 65 89 q 135 37 106 50 q 210 24 165 24 q 313 51 276 24 q 367 113 350 79 q 387 175 383 146 q 390 207 390 204 l 390 408 q 401 422 390 422 z "},"z":{"ha":442,"x_min":4,"x_max":431,"o":"m 417 26 q 428 13 428 26 q 417 0 428 0 l 21 0 q 8 7 8 0 q 14 22 4 17 l 11 22 q 69 81 42 51 q 128 139 97 110 q 125 157 125 144 q 136 184 125 172 q 163 196 147 196 q 181 193 175 196 l 385 397 l 21 397 q 7 410 7 397 q 21 422 7 422 l 417 422 q 421 422 419 422 q 424 421 422 421 q 425 400 431 406 l 200 172 q 203 164 201 168 q 204 157 204 160 q 193 127 204 138 q 163 117 182 117 q 156 118 161 117 q 147 121 150 119 l 53 26 l 417 26 m 168 142 q 176 150 175 144 l 168 142 m 178 157 q 176 164 178 161 l 188 161 l 176 150 q 178 157 178 151 m 163 140 q 168 142 167 140 l 158 132 l 153 144 q 158 143 157 144 q 163 140 160 142 m 160 172 l 168 179 l 168 169 q 163 172 165 172 l 160 172 m 147 157 q 150 151 147 154 l 140 151 l 147 160 l 147 157 m 160 172 q 147 160 147 169 l 160 172 z "},"A":{"ha":747,"x_min":-482,"x_max":1767,"o":"m 36 565 q -19 588 3 565 q -40 642 -40 610 l -40 643 q -194 606 -119 639 q -328 518 -268 574 q -431 369 -394 454 q -467 190 -468 285 l -481 190 q -444 375 -482 286 q -336 531 -407 464 l -337 531 q -201 622 -279 589 q -37 661 -122 656 q -10 699 -31 682 q 36 715 11 715 l 374 715 q 378 715 376 715 q 382 714 381 714 l 479 522 q 486 524 483 522 q 507 531 500 525 q 510 532 508 531 l 511 532 q 518 535 513 532 l 517 535 q 558 542 546 556 q 567 524 565 529 q 568 518 568 519 q 553 492 568 499 q 522 486 538 486 l 497 486 q 604 274 551 379 q 710 60 657 168 q 722 37 717 49 q 735 13 728 25 q 763 -42 749 -15 q 797 -96 776 -68 q 858 -161 824 -132 q 928 -217 892 -190 q 1069 -279 992 -254 q 1222 -304 1147 -304 q 1243 -304 1233 -304 q 1264 -303 1253 -304 q 1436 -258 1351 -296 q 1585 -161 1521 -219 q 1688 -19 1647 -101 q 1744 150 1728 64 q 1749 188 1747 168 q 1750 226 1750 208 q 1735 353 1750 285 q 1712 371 1721 356 q 1700 394 1703 386 l 1701 393 q 1703 419 1694 404 l 1701 418 q 1708 426 1703 421 l 1708 428 q 1686 451 1686 428 q 1688 459 1686 456 q 1693 465 1690 463 q 1688 478 1690 472 q 1682 486 1685 483 q 1589 609 1643 556 q 1465 697 1535 663 l 1465 696 l 1333 758 q 1327 762 1331 760 q 1319 767 1324 764 q 1308 774 1314 769 q 1299 785 1303 779 q 1300 807 1296 799 q 1306 817 1300 811 q 1325 825 1314 825 q 1340 821 1335 825 q 1354 808 1346 817 l 1371 792 q 1377 783 1371 792 q 1397 763 1383 775 q 1431 735 1411 750 q 1475 707 1450 719 q 1692 499 1617 635 l 1692 500 q 1700 489 1697 494 q 1706 478 1703 483 l 1707 472 l 1708 472 q 1732 451 1732 472 q 1725 435 1732 440 l 1725 433 l 1726 433 q 1756 414 1750 433 q 1758 399 1757 407 q 1758 382 1758 392 q 1756 369 1757 375 q 1751 358 1756 363 q 1767 226 1767 294 q 1765 186 1767 207 q 1761 147 1764 165 q 1706 -29 1747 56 q 1597 -176 1664 -114 q 1444 -277 1531 -239 q 1265 -324 1357 -315 q 1242 -326 1254 -325 q 1218 -326 1229 -326 q 1060 -303 1138 -326 q 914 -235 983 -279 q 841 -177 875 -207 q 779 -111 807 -147 q 744 -57 760 -87 q 711 6 728 -26 q 699 28 704 17 q 688 51 694 40 l 467 486 l 388 486 l 388 436 q 440 315 422 378 q 458 188 458 251 q 458 163 458 175 q 456 140 457 151 q 427 49 449 93 q 374 -31 406 6 q 300 -94 342 -67 q 213 -136 258 -122 q 122 -149 167 -149 q 24 -135 69 -149 q -63 -93 -21 -121 q -136 -29 -106 -65 q -197 75 -176 18 q -218 190 -218 132 q -186 333 -218 263 q -133 410 -167 372 q -62 472 -100 449 q 89 528 7 519 q 91 528 90 528 q 96 529 92 529 l 106 529 l 106 565 l 36 565 m 1313 790 q 1328 778 1317 783 q 1340 772 1339 772 l 1381 754 q 1376 760 1378 757 q 1371 765 1374 763 q 1360 774 1365 768 q 1344 793 1356 781 q 1325 810 1332 810 q 1318 806 1322 810 l 1315 803 q 1314 789 1313 793 l 1313 790 m 106 594 l 106 628 q 10 643 57 642 q -1 644 4 644 q -10 644 -6 644 l -10 642 q 3 608 -10 621 q 36 594 15 594 l 106 594 m 138 31 l 138 24 l 131 31 l 138 31 m 269 544 q 256 556 264 550 l 267 561 q 267 560 267 560 q 268 560 268 561 q 269 550 269 557 l 269 544 m 313 500 q 305 507 310 503 q 299 514 300 511 q 283 529 290 521 q 269 544 276 538 q 226 507 265 507 l 204 506 q 201 504 203 506 q 199 503 200 503 q 178 494 188 499 q 153 485 168 490 l 154 485 q 146 482 149 482 q 138 479 143 482 l 138 469 q 151 447 151 461 q 147 433 151 440 q 138 421 142 426 l 138 419 q 143 403 143 413 q 138 388 143 394 l 138 31 l 313 31 l 313 500 m 335 478 q 332 482 332 481 l 332 481 l 322 490 l 335 496 l 335 478 m 346 464 q 335 478 338 472 l 335 31 l 358 31 l 358 449 q 346 464 354 453 m 138 438 l 128 443 l 128 447 q 125 453 128 450 l 138 458 l 138 438 m 106 460 l 118 454 q 114 447 114 450 q 118 442 114 446 l 106 436 l 106 460 m 92 504 q 89 500 89 501 q 93 493 89 493 q 106 496 97 493 l 106 507 q 94 506 96 507 l 92 504 m 138 503 q 142 504 140 504 q 149 507 143 504 l 138 507 l 138 503 m 138 594 l 190 594 q 165 607 178 601 q 138 618 153 613 l 138 594 m 138 565 l 138 529 l 226 529 q 242 535 236 529 q 247 550 247 542 q 238 565 247 560 l 138 565 m 78 504 q 71 503 74 503 q 65 501 68 503 q 68 513 65 507 q 69 511 69 513 l 78 504 m 374 0 q 380 10 376 6 q 388 21 383 15 l 388 17 q 374 0 388 3 m 436 143 q 440 197 440 169 q 426 301 440 249 q 388 399 411 354 l 388 21 q 418 79 406 49 q 436 143 431 110 m 207 -117 q 299 -72 256 -103 q 374 0 342 -40 l 122 0 q 106 17 106 0 l 106 389 q 99 403 99 394 q 106 419 99 415 l 106 421 q 95 432 100 425 q 90 447 90 439 q 94 463 90 458 q 106 471 99 467 l 106 472 l 93 472 q 74 480 83 472 q 65 500 65 488 l 65 501 q -50 457 0 490 q -167 324 -129 408 q -199 188 -199 257 q -178 78 -199 131 q -121 -17 -158 25 q 28 -117 -62 -90 q 118 -131 71 -131 q 207 -117 164 -131 m 532 517 q 529 515 531 517 q 524 513 526 513 l 515 508 l 525 508 q 536 510 528 508 q 547 518 544 511 q 546 519 546 518 q 544 520 544 519 q 543 521 544 521 q 532 517 536 521 m 407 508 q 431 508 418 508 q 454 511 443 508 q 437 544 444 529 q 421 574 429 560 q 405 604 413 589 q 388 639 397 619 l 388 508 l 407 508 m 358 688 l 335 688 l 335 501 q 342 497 338 499 q 346 494 344 494 q 352 485 349 490 q 358 476 356 481 l 358 688 m 261 571 q 267 567 264 568 q 253 565 263 565 l 258 575 l 263 571 l 261 571 m 138 635 q 183 617 160 628 q 226 594 207 607 l 257 594 q 272 579 272 594 q 267 567 272 571 q 290 548 278 560 q 313 525 301 536 l 313 688 l 138 688 l 138 635 m 35 688 q 10 679 21 688 q -6 661 0 671 l 13 661 q 59 656 36 658 q 106 646 82 653 l 106 688 l 35 688 z "},"B":{"ha":643,"x_min":-508,"x_max":1222,"o":"m 711 492 l 713 492 l 711 492 m 1097 -282 q 872 -401 1006 -376 q 785 -410 831 -410 q 703 -401 744 -410 q 625 -378 661 -393 q 515 -312 565 -354 q 428 -218 464 -271 q 380 -123 399 -174 q 356 -19 361 -72 q 278 -89 324 -60 q 183 -133 233 -118 l 185 -133 q 92 -149 136 -149 q -6 -132 40 -149 l -4 -132 q -92 -92 -51 -118 q -164 -29 -132 -65 q -226 74 -204 15 q -247 192 -247 132 q -218 331 -247 265 q -90 474 -175 422 q 93 531 -11 531 l 101 531 l 101 564 l 32 564 q -20 587 1 564 q -42 642 -42 610 l -42 643 q -210 612 -129 643 q -354 519 -292 581 q -459 370 -422 456 q -494 192 -496 285 l -508 192 q -498 283 -508 236 q -468 374 -487 329 q -422 458 -449 418 q -362 532 -394 499 q -214 625 -299 590 q -42 658 -129 660 q -15 699 -36 682 q 32 715 6 715 l 369 715 q 433 703 403 715 q 485 668 463 690 q 519 617 507 646 q 532 556 532 589 q 524 508 532 532 q 504 463 517 483 q 587 374 553 429 q 621 253 621 318 q 603 158 621 203 q 552 80 585 114 q 476 26 519 46 q 382 4 432 6 q 403 -103 386 -49 q 449 -203 421 -158 q 486 -247 464 -225 q 533 -288 508 -268 q 584 -325 558 -308 q 635 -354 610 -342 q 710 -376 671 -368 q 788 -385 750 -385 q 868 -376 828 -385 q 981 -337 928 -365 q 1079 -265 1035 -310 q 1153 -169 1124 -222 q 1193 -54 1182 -117 q 1200 -14 1197 -35 q 1203 28 1203 7 q 1171 179 1203 107 l 1158 208 q 1154 217 1158 213 q 1136 228 1146 219 q 1124 239 1126 236 q 1122 263 1118 251 q 1115 258 1113 263 q 1106 290 1100 278 q 1019 368 1067 336 q 932 412 979 393 q 839 436 885 431 q 770 440 804 438 q 704 443 736 442 q 689 444 693 443 l 690 444 q 665 457 674 449 q 658 478 658 463 q 663 494 658 485 q 682 503 668 503 q 711 492 689 503 q 726 483 718 488 q 746 474 735 479 q 788 461 764 467 q 842 451 813 456 q 1031 381 943 439 q 1075 345 1054 364 q 1118 303 1096 326 q 1128 303 1122 304 q 1138 299 1135 301 l 1136 299 q 1146 285 1146 292 q 1144 279 1146 282 q 1143 276 1143 276 q 1164 267 1158 276 q 1171 248 1167 261 q 1171 225 1175 235 q 1180 208 1176 215 q 1188 192 1183 200 q 1188 190 1188 190 q 1189 188 1189 189 q 1213 108 1204 151 q 1222 25 1222 65 q 1220 -17 1222 4 q 1214 -58 1218 -39 q 1097 -282 1189 -190 m 678 469 q 696 461 682 464 l 697 461 q 700 460 699 461 q 704 460 701 460 l 739 458 l 728 464 l 729 463 q 716 469 724 465 q 701 478 708 474 l 703 478 q 682 485 689 485 q 676 481 676 485 q 675 476 675 478 q 678 469 675 472 m 353 414 q 342 431 347 424 q 331 449 338 438 l 331 31 q 340 31 335 31 q 353 32 346 32 l 353 414 m 129 436 l 121 443 q 126 449 126 444 q 121 454 126 453 l 129 461 l 129 436 m 101 460 l 114 454 q 111 449 111 451 q 114 443 111 446 l 101 438 l 101 460 m 129 481 q 126 480 128 481 q 124 479 125 479 l 129 486 l 129 481 m 288 499 q 286 500 286 499 l 304 500 l 299 488 l 288 499 m 129 31 l 308 31 l 308 467 l 279 457 l 281 458 q 273 456 278 458 q 264 451 268 454 l 264 453 l 256 449 q 239 443 246 443 q 228 446 232 443 q 222 451 225 449 q 218 462 219 457 q 217 468 217 467 q 229 494 217 488 q 260 500 242 500 l 286 500 q 274 513 279 507 q 260 526 269 518 q 245 514 254 519 q 225 508 236 508 l 201 508 l 203 510 q 160 490 176 496 q 129 481 144 485 l 129 474 q 147 449 147 468 q 129 422 147 428 l 129 421 q 139 404 139 414 q 129 383 139 389 l 129 31 m 129 508 l 129 503 q 132 502 132 503 q 144 508 132 501 l 129 508 m 331 475 q 333 472 331 475 q 324 471 331 471 l 331 478 l 331 475 m 338 474 q 335 472 336 472 l 333 472 q 342 458 338 465 q 353 443 346 450 l 353 476 q 344 475 349 475 q 338 474 340 475 m 311 478 l 275 478 q 290 484 282 481 q 310 492 299 488 l 313 478 l 311 478 m 264 474 q 275 478 267 475 l 258 479 q 246 477 256 479 q 236 468 236 475 l 236 467 q 239 465 236 465 q 257 472 246 465 l 264 474 m 382 57 q 407 143 403 99 q 411 200 411 169 q 382 351 411 281 l 382 57 m 600 253 q 583 335 600 296 q 537 406 567 375 q 467 456 507 436 q 382 478 428 475 l 382 388 q 417 292 406 342 q 429 190 429 242 q 428 163 429 175 q 426 138 428 150 q 412 83 421 110 q 388 28 403 56 q 471 49 432 29 q 538 99 510 68 q 583 169 567 129 q 600 253 600 208 m 511 556 q 474 648 511 610 q 382 693 436 686 l 382 500 q 485 472 439 499 q 511 556 511 514 m 353 686 l 331 686 l 331 500 l 353 500 l 353 686 m 308 500 l 308 503 q 311 499 308 501 l 308 500 m 129 626 q 134 625 132 625 q 139 624 136 625 q 167 610 153 617 q 197 594 182 604 l 254 594 q 269 578 269 594 q 261 565 269 569 q 265 550 265 558 l 265 546 q 287 526 276 536 q 308 503 297 517 l 308 686 l 129 686 l 129 626 m 238 564 q 240 564 240 564 q 234 569 233 569 q 238 567 235 569 q 247 561 242 565 q 256 556 253 557 l 244 550 q 235 564 244 558 l 238 564 m 163 594 q 149 600 157 597 q 135 606 142 603 q 133 607 132 607 q 129 608 133 607 l 129 594 l 163 594 m 32 686 q -7 658 0 686 q 48 651 21 657 q 101 639 75 646 l 101 686 l 32 686 m 101 594 l 101 619 q -11 643 49 639 l -11 642 q 1 608 -11 621 q 32 594 14 594 l 101 594 m 129 564 l 129 531 l 225 531 q 243 543 238 531 q 237 547 240 546 q 231 551 233 549 q 222 558 226 554 q 213 564 218 561 l 129 564 m 93 508 q 85 500 85 508 q 90 496 85 496 l 101 496 l 101 508 l 93 508 m 179 -115 q 273 -70 231 -100 q 346 0 315 -40 l 117 0 q 101 17 101 0 l 99 389 q 95 394 96 392 q 94 404 94 396 q 97 414 94 411 q 101 419 99 417 l 101 424 q 92 435 96 428 q 88 449 88 442 q 101 471 88 463 l 101 474 q 96 473 99 474 q 90 472 93 472 q 72 481 79 472 q 64 500 64 489 q 65 508 64 506 q -11 492 25 506 q -79 458 -47 479 q -149 399 -118 435 q -200 322 -181 363 l -199 322 q -228 192 -228 260 q -208 81 -228 135 q -149 -17 -187 26 q -83 -77 -121 -51 q 0 -114 -44 -103 q 44 -126 22 -122 q 90 -129 67 -129 q 178 -115 135 -129 l 179 -115 z "},"C":{"ha":725,"x_min":19,"x_max":743,"o":"m 28 282 q 19 358 19 319 q 22 396 19 376 q 28 432 24 415 q 37 471 32 453 q 49 504 42 489 q 51 509 50 507 q 54 514 53 511 q 63 528 57 522 l 63 526 q 156 640 99 593 q 285 707 213 686 q 293 706 292 707 q 376 715 333 715 q 547 672 468 715 q 675 554 625 629 q 701 507 690 531 l 700 507 q 716 478 707 492 q 732 450 725 464 l 732 453 q 738 440 733 451 q 740 414 743 428 q 724 393 739 400 l 714 393 q 697 396 700 393 q 688 431 688 413 q 683 464 688 447 q 674 500 681 479 q 656 544 667 521 l 657 543 q 535 653 610 613 q 376 693 461 693 q 340 690 358 693 q 303 683 322 688 l 303 536 l 426 536 q 442 521 442 536 q 435 506 442 510 q 438 489 438 497 q 426 459 438 469 q 396 449 415 449 l 374 449 q 367 446 371 446 q 334 432 350 438 q 303 421 318 426 l 303 411 q 318 388 318 400 q 303 361 318 368 l 303 358 q 310 344 310 353 q 303 328 310 333 l 303 31 q 376 22 338 22 q 535 62 461 22 q 656 172 608 101 l 654 171 q 674 216 667 196 q 683 251 681 236 q 688 285 688 268 q 697 319 688 303 q 714 322 700 322 q 729 317 726 322 q 740 301 740 308 q 738 276 743 288 q 732 263 733 264 l 732 265 l 703 213 l 704 213 q 648 124 682 164 q 572 57 614 85 q 480 15 529 29 q 376 0 431 0 q 333 1 353 0 q 294 8 314 3 l 285 8 q 156 74 213 28 q 63 186 99 119 q 60 191 61 189 q 57 196 58 193 q 50 211 54 199 l 51 210 q 35 248 40 231 q 28 282 31 265 m 710 285 q 710 278 710 282 q 708 264 710 274 q 714 275 713 269 l 717 281 q 717 284 717 282 q 718 288 718 286 q 719 297 721 293 q 719 299 719 300 q 715 301 719 299 q 711 296 713 299 q 710 285 710 293 m 714 414 q 714 415 713 414 q 715 414 714 414 l 714 414 m 719 419 q 717 435 724 428 l 707 453 q 710 437 710 442 q 710 431 710 432 q 714 415 710 419 l 715 417 l 719 417 l 719 419 m 247 658 q 249 659 249 658 q 251 660 249 660 q 253 656 253 657 q 254 653 253 656 l 247 658 m 272 668 q 263 666 267 667 q 251 663 258 665 l 251 660 l 272 660 l 272 668 m 231 651 q 210 639 219 644 q 189 626 200 633 q 231 656 203 646 l 231 651 m 175 581 q 189 626 175 608 q 79 492 114 575 q 49 358 49 431 q 79 222 49 283 q 142 129 103 169 q 231 63 181 89 l 231 510 q 192 538 208 518 q 175 581 175 558 m 231 622 q 213 605 219 615 q 206 581 206 594 q 231 542 206 553 l 231 622 m 263 449 q 253 442 253 449 q 260 435 253 435 q 267 436 263 435 l 272 436 l 272 449 l 263 449 m 250 504 l 247 504 q 245 505 246 504 q 243 506 244 506 l 250 513 l 250 504 m 272 504 l 250 504 l 250 467 q 256 467 253 467 q 263 468 260 468 l 272 468 l 272 504 m 272 400 l 283 394 q 279 388 279 392 q 283 381 279 382 l 272 375 l 272 400 m 294 388 q 292 393 294 390 l 303 399 l 303 376 l 293 383 q 294 388 294 383 m 272 414 q 260 413 268 413 q 255 412 257 413 q 250 414 253 411 l 250 53 q 269 47 264 50 q 271 47 272 46 q 272 46 269 47 l 272 326 q 267 335 269 329 q 265 344 265 340 q 274 358 265 356 l 272 360 q 257 388 257 367 q 272 413 257 403 l 272 414 m 303 444 q 307 446 304 444 q 311 447 311 447 q 310 447 311 447 q 310 446 310 446 q 317 449 311 446 l 303 449 l 303 444 m 303 504 l 303 468 l 396 468 q 410 474 404 468 q 415 489 415 481 q 407 504 415 501 l 303 504 m 272 629 l 250 629 l 250 536 l 272 536 l 272 629 z "},"D":{"ha":754,"x_min":-279,"x_max":1533,"o":"m 1386 -61 q 1383 -58 1389 -58 q 1386 -61 1383 -58 m 1133 -129 q 1040 -98 1083 -121 q 960 -39 996 -75 l 708 210 q 656 130 688 167 q 583 66 624 93 q 496 22 543 39 q 399 4 449 6 q 389 0 394 0 l 139 0 q 125 7 128 0 q 24 34 74 13 q -72 87 -26 56 q -155 158 -117 118 q -221 244 -193 199 q -264 353 -249 294 q -279 471 -279 413 q -268 575 -279 524 q -237 672 -257 626 q -176 765 -212 722 q -94 842 -139 808 q 3 899 -49 875 q 107 932 54 922 q 145 937 126 935 q 183 939 164 939 q 365 903 278 939 q 515 803 451 867 l 504 792 q 358 889 442 854 q 185 924 274 924 q 148 922 167 924 q 110 917 129 919 q -85 831 3 897 q -219 665 -174 765 q -251 571 -242 619 q -261 474 -261 522 q -247 359 -261 415 q -204 253 -233 303 q -144 171 -179 208 q -67 104 -110 133 q 24 56 -24 75 q 124 31 72 38 l 124 385 q 119 393 121 388 q 117 401 117 399 q 118 410 117 404 q 124 419 119 417 l 124 422 q 110 447 110 428 q 121 469 110 463 l 110 469 q 83 500 83 469 q 92 519 83 511 q 114 528 101 528 l 124 528 l 124 563 l 53 563 q -1 584 21 563 q -22 638 -22 606 q -1 691 -22 668 q 53 714 21 714 l 389 714 q 400 708 396 714 q 532 677 469 706 q 641 601 594 649 q 715 492 688 554 q 742 357 742 429 q 719 232 742 281 l 975 -24 q 1051 -79 1008 -57 q 1136 -111 1093 -101 q 1200 -118 1171 -118 q 1319 -93 1265 -118 q 1336 -86 1326 -92 q 1348 -67 1339 -76 q 1363 -54 1357 -58 l 1361 -54 q 1375 -51 1364 -51 q 1382 -56 1378 -51 q 1388 -43 1382 -47 q 1411 -36 1396 -28 q 1438 -8 1422 -25 q 1465 24 1454 10 q 1503 108 1489 61 q 1517 200 1517 156 q 1502 292 1517 247 q 1464 376 1488 338 q 1400 446 1436 417 q 1319 494 1364 475 q 1260 512 1292 506 q 1197 518 1229 518 q 1167 517 1185 518 q 1135 513 1150 515 q 1080 493 1107 506 q 1026 465 1053 481 q 1002 450 1015 458 q 979 433 989 442 l 981 433 l 971 424 l 969 425 q 924 389 947 407 q 881 354 901 371 l 882 354 q 868 344 881 353 q 836 335 856 335 q 811 343 819 335 l 803 360 q 803 378 801 372 q 853 403 810 397 q 867 406 853 403 q 903 419 881 410 q 956 442 926 428 q 1018 478 986 457 q 1075 508 1047 496 q 1131 526 1103 521 q 1200 533 1169 533 q 1325 510 1265 533 q 1476 386 1419 469 q 1518 297 1504 346 q 1533 200 1532 249 q 1519 103 1533 151 q 1479 14 1506 54 q 1451 -21 1465 -4 q 1421 -50 1436 -37 q 1417 -72 1425 -60 q 1401 -76 1413 -76 l 1396 -76 q 1388 -96 1393 -90 q 1373 -101 1382 -99 q 1354 -104 1364 -104 q 1348 -103 1351 -104 q 1342 -100 1344 -101 q 1336 -104 1339 -101 l 1328 -110 q 1200 -136 1269 -136 q 1167 -134 1183 -136 q 1133 -129 1150 -132 m 928 411 q 874 392 896 397 q 850 386 853 388 q 831 380 839 383 q 821 372 824 376 q 821 361 818 368 l 819 361 q 836 351 829 351 q 848 353 842 351 q 858 358 854 356 q 865 363 861 358 l 928 411 m 719 357 q 694 482 719 424 q 626 584 669 540 q 526 655 583 628 q 404 686 468 682 l 404 494 q 410 492 407 492 l 410 493 q 434 481 421 486 q 465 464 447 475 l 464 464 q 515 431 492 449 q 558 389 538 413 q 598 347 578 367 q 640 307 618 328 l 700 249 q 715 300 711 274 q 719 357 719 326 m 374 682 l 354 682 l 354 511 q 367 508 360 508 l 374 506 l 374 682 m 275 574 q 283 564 278 569 q 280 563 281 564 q 276 563 279 563 l 269 563 l 275 574 m 153 590 l 276 590 q 290 575 290 590 q 283 564 290 567 q 288 547 288 556 q 285 535 288 542 q 281 525 283 528 q 303 522 292 524 q 325 519 314 521 q 332 518 328 518 l 332 682 l 153 682 l 153 590 m 124 590 l 124 682 l 53 682 q 22 669 35 682 q 8 638 8 657 q 22 603 8 617 q 53 590 35 590 l 124 590 m 153 563 l 153 528 l 246 528 q 264 547 264 528 q 256 563 264 556 l 153 563 m 153 506 l 153 503 q 157 504 156 504 q 161 506 158 504 l 153 506 m 110 492 q 124 494 113 492 l 124 506 l 114 506 q 104 500 104 506 q 110 492 104 492 m 153 436 l 142 442 q 144 447 144 444 q 142 453 144 450 l 153 458 l 153 436 m 131 447 q 135 442 131 443 l 124 436 l 124 458 l 135 453 q 131 447 131 450 m 153 29 l 332 29 l 332 496 q 281 503 304 501 q 236 506 257 506 l 218 506 l 214 503 l 217 503 q 184 490 200 496 q 153 478 168 483 l 153 469 q 165 447 165 464 q 153 421 165 429 l 153 419 q 158 411 156 417 q 160 401 160 406 q 153 386 160 390 l 153 29 m 374 29 l 374 481 q 354 490 365 485 l 354 29 l 374 29 m 404 26 q 577 86 500 32 q 690 228 654 140 q 658 259 675 243 q 626 290 642 275 l 628 290 q 597 319 613 304 q 568 349 582 333 q 512 404 540 376 q 454 449 483 432 q 435 458 444 454 q 415 464 426 461 q 410 466 414 464 q 404 469 407 468 l 404 26 z "},"E":{"ha":633,"x_min":-208,"x_max":1533,"o":"m 1336 538 q 1419 481 1382 515 q 1485 404 1457 447 q 1522 310 1510 360 q 1531 213 1533 261 q 1510 115 1528 164 q 1460 26 1492 65 q 1384 -43 1426 -14 q 1293 -87 1342 -72 q 1245 -98 1269 -94 q 1197 -101 1221 -101 q 1093 -85 1140 -101 l 1094 -85 q 1048 -66 1069 -78 q 1006 -39 1026 -54 q 965 -5 982 -21 q 931 28 947 11 l 650 307 l 651 307 q 615 342 633 324 q 581 375 597 360 q 568 388 574 382 q 557 401 563 394 q 535 424 547 413 q 511 444 524 436 q 504 450 504 447 l 506 450 q 456 485 478 474 q 431 485 446 485 q 406 486 415 486 l 388 486 l 388 472 q 392 469 390 469 q 397 465 394 468 q 403 462 400 463 q 408 458 406 461 q 417 454 413 456 q 464 419 443 439 q 503 372 485 400 q 511 372 508 372 q 518 367 514 371 q 519 364 517 368 q 524 356 521 360 q 522 349 524 353 q 543 336 536 349 l 543 338 q 551 320 546 335 q 550 296 556 306 q 556 288 553 293 q 558 279 558 282 q 580 206 572 246 q 588 128 588 167 q 586 89 588 108 q 581 50 585 69 q 578 42 579 46 q 576 35 578 39 q 576 31 575 31 q 575 28 578 32 l 613 28 q 622 15 622 28 q 613 4 622 4 l 568 4 q 529 -81 554 -40 q 471 -154 504 -121 q 375 -223 428 -194 q 268 -262 322 -251 q 188 -271 231 -271 q 111 -262 151 -271 q 38 -240 71 -254 q -62 -180 -14 -219 q -142 -93 -110 -140 q -189 8 -171 -47 q -208 121 -207 63 l -208 128 q -161 317 -207 228 q -36 469 -115 407 q 32 515 -4 494 q 107 546 68 535 l 107 564 l 39 564 q -15 586 7 564 q -37 640 -37 608 q -15 692 -37 671 q 39 714 7 714 l 222 714 l 374 715 l 613 715 q 626 699 626 715 q 613 685 626 685 l 388 685 l 388 538 q 413 526 399 533 q 442 511 426 519 q 472 518 458 514 q 497 526 486 522 l 497 525 l 519 536 l 519 535 q 560 542 551 550 q 568 525 567 532 q 569 517 569 518 q 556 492 569 499 q 524 485 543 485 l 486 485 q 504 471 494 478 q 522 458 514 464 q 548 435 535 447 q 572 411 561 422 l 572 413 q 583 401 578 407 q 593 389 588 396 l 592 389 q 627 355 610 372 q 663 321 644 338 l 943 40 q 1015 -26 976 3 q 1055 -49 1033 -37 q 1100 -69 1076 -61 q 1197 -86 1146 -86 q 1290 -71 1240 -86 l 1289 -71 q 1376 -30 1336 -56 q 1447 36 1417 -4 q 1496 118 1479 72 q 1515 213 1513 164 q 1472 397 1522 310 l 1472 396 q 1331 526 1421 483 l 1331 525 q 1200 553 1267 553 q 1140 547 1168 553 q 1042 508 1083 536 l 894 397 l 896 401 q 878 388 893 399 q 849 378 864 378 q 821 389 835 378 q 815 404 821 390 q 815 422 814 417 q 860 446 824 442 q 914 461 886 451 q 967 483 938 469 q 1026 518 996 496 q 1138 561 1086 551 q 1200 565 1167 565 q 1269 559 1235 565 q 1336 539 1304 553 l 1336 538 m 996 481 q 969 467 982 474 q 944 457 957 461 l 974 478 l 972 478 q 978 483 975 481 q 989 492 981 485 l 996 481 m 944 457 q 880 438 906 442 q 854 436 854 435 l 861 429 q 832 415 838 426 q 832 406 829 410 l 833 404 q 849 394 839 394 q 858 397 851 394 q 867 400 864 399 q 869 401 868 400 q 872 403 871 403 q 874 404 872 403 q 876 406 876 407 q 879 407 876 404 l 944 457 m 996 496 l 1001 485 q 996 481 999 482 l 997 481 l 983 467 l 974 478 l 996 496 m 532 517 q 526 515 529 515 l 532 517 m 532 517 q 514 508 529 514 l 522 508 q 526 507 524 508 q 540 509 532 507 q 549 517 549 511 q 546 522 549 521 q 542 519 547 521 q 533 517 538 518 l 532 517 m 357 685 l 336 685 l 336 553 q 346 551 343 553 q 348 551 347 551 q 350 550 349 550 q 352 549 353 549 q 357 547 351 550 l 357 685 m 138 592 l 260 592 q 276 576 276 592 q 267 564 276 568 l 268 563 q 292 560 281 561 q 314 556 303 558 l 314 685 l 138 685 l 138 592 m 314 482 q 201 503 260 503 q 138 479 168 488 l 138 471 q 149 461 144 467 q 154 447 154 456 q 138 421 154 429 l 138 418 q 146 404 146 410 q 138 386 146 392 l 138 32 l 314 32 l 314 482 m 357 465 l 357 467 l 357 465 m 336 32 l 357 32 l 357 465 q 349 467 354 464 q 336 472 343 469 l 336 32 m 138 436 l 128 443 q 131 447 131 446 q 126 453 131 450 l 138 458 l 138 436 m 107 458 l 119 453 q 115 447 115 449 q 119 442 115 446 l 107 436 l 107 458 m 249 553 l 256 546 l 249 546 l 249 547 l 249 553 m 231 529 q 249 546 246 529 q 193 543 221 546 q 138 535 165 540 l 138 529 l 231 529 m 138 504 q 144 506 140 506 q 151 507 149 506 l 138 507 l 138 504 m 107 507 l 99 507 q 89 500 89 507 q 96 493 89 493 q 107 494 101 493 l 107 507 m 272 543 q 268 544 269 543 q 264 544 267 544 l 271 551 q 272 549 271 550 q 272 547 272 549 l 272 543 m 243 524 q 253 522 249 522 q 263 519 257 521 q 254 514 258 517 q 243 510 250 511 l 243 524 m 272 543 q 263 519 271 529 q 290 513 278 517 q 314 507 303 510 l 314 539 q 291 542 300 542 q 272 543 282 543 m 107 592 l 107 685 l 39 685 q 6 672 19 685 q -8 640 -8 658 q 6 606 -8 619 q 39 592 19 592 l 107 592 m 138 554 q 178 560 157 558 q 218 564 199 563 l 138 564 l 138 554 m 107 525 q 88 519 97 522 q 71 511 79 515 q 99 529 78 529 l 110 525 l 107 525 m 457 -139 q 546 4 514 -81 q 463 3 503 4 q 382 1 424 1 q 374 0 381 0 l 122 0 q 107 15 107 0 l 107 388 q 101 404 101 396 q 107 418 101 413 l 107 422 q 94 447 94 429 q 107 469 94 463 l 107 472 q 101 472 104 472 q 96 471 99 471 q 76 480 83 471 q 68 500 68 489 q 71 511 68 508 q 21 486 44 500 q -25 456 -3 472 q -146 308 -103 394 q -189 124 -189 222 q -172 15 -189 68 q -128 -82 -156 -37 q -51 -165 -96 -131 q 46 -221 -7 -200 q 193 -251 119 -251 q 228 -249 208 -251 q 264 -244 247 -247 q 365 -204 313 -232 q 456 -139 417 -176 l 457 -139 m 378 454 q 376 454 376 453 l 378 454 m 500 333 q 501 335 501 335 q 503 338 501 336 q 504 335 503 339 q 501 333 506 332 l 500 333 m 388 447 q 379 454 382 453 l 378 454 l 388 460 l 388 447 m 394 442 q 391 444 392 443 q 388 447 390 446 l 388 28 l 553 28 q 556 38 553 32 l 561 54 l 560 53 q 565 91 564 72 q 567 128 567 110 q 538 269 567 200 q 537 275 539 271 q 533 282 535 279 q 529 288 529 286 q 513 299 522 292 q 501 313 504 307 q 500 333 496 322 q 489 338 490 333 l 490 338 q 486 361 481 347 q 444 405 467 385 q 396 442 421 425 l 394 442 m 336 533 q 335 535 335 535 q 324 538 326 535 l 336 543 l 336 533 m 336 533 l 336 497 q 347 494 342 496 q 357 489 351 492 l 357 529 q 342 533 349 532 l 336 533 m 388 508 l 411 508 q 399 514 404 511 q 388 519 393 517 l 388 508 m 432 497 q 422 503 426 500 q 411 508 417 506 l 413 508 q 420 509 417 508 q 426 510 424 510 l 436 510 l 432 497 z "},"F":{"ha":431,"x_min":-60,"x_max":1764,"o":"m 1554 764 q 1644 690 1604 733 q 1707 594 1683 647 q 1753 365 1764 488 q 1669 151 1740 250 q 1599 77 1639 111 q 1510 19 1558 43 q 1462 -6 1483 8 q 1425 -31 1440 -19 q 1410 -43 1418 -37 q 1393 -58 1403 -49 l 1393 -57 q 1360 -81 1374 -81 q 1343 -75 1349 -81 l 1336 -61 q 1333 -42 1331 -51 q 1357 -18 1342 -26 q 1371 -11 1364 -14 q 1442 14 1404 1 q 1513 39 1479 26 l 1513 38 q 1658 158 1600 79 q 1713 257 1693 204 q 1738 367 1732 310 q 1696 588 1749 485 q 1632 678 1671 636 q 1544 750 1593 721 q 1524 761 1538 754 q 1503 771 1510 768 q 1488 768 1499 768 q 1467 779 1469 768 q 1451 775 1460 775 l 1446 775 q 1436 779 1442 776 q 1432 782 1433 781 l 1433 782 q 1421 789 1422 788 q 1408 804 1410 797 q 1370 808 1389 807 q 1332 810 1351 810 q 1118 749 1217 810 q 1031 676 1069 718 q 968 585 992 633 q 915 482 943 536 q 864 379 888 428 l 761 172 q 708 68 738 124 q 649 -28 678 13 q 610 -73 631 -51 q 567 -114 590 -94 q 515 -144 542 -131 q 461 -164 489 -157 q 408 -173 435 -169 q 354 -176 382 -176 q 290 -171 322 -176 q 228 -154 257 -165 q 128 -92 175 -133 q 54 -1 82 -51 q 10 167 10 79 q 11 198 10 182 q 15 229 13 214 q 41 308 22 268 q 85 381 60 349 l 85 386 q 80 394 82 389 q 78 404 78 400 q 86 419 78 415 l 85 421 q 69 447 69 428 q 85 469 69 458 l 85 472 q 72 471 81 471 q 53 479 61 471 q 46 499 46 488 q 56 521 46 514 q 75 528 65 528 l 85 528 l 85 564 l 17 564 q -37 585 -15 564 q -60 638 -60 606 q -37 692 -60 669 q 19 715 -15 715 l 590 715 q 606 700 606 715 q 590 685 606 685 l 367 685 l 367 508 l 385 508 q 453 521 425 511 q 493 535 482 531 q 535 536 519 551 l 533 536 q 541 524 540 531 q 542 517 542 518 q 527 492 542 499 q 497 485 513 485 l 367 485 l 367 15 q 351 0 367 0 l 100 0 q 85 15 85 0 l 85 346 q 36 225 49 289 q 32 194 33 210 q 31 164 31 179 q 69 8 31 79 q 141 -76 96 -37 q 235 -136 186 -115 q 297 -151 265 -147 q 360 -156 328 -156 q 408 -154 382 -156 q 457 -147 433 -153 q 555 -97 510 -132 q 632 -17 600 -62 q 688 69 664 24 q 735 161 713 115 q 736 163 736 163 q 739 167 736 163 l 849 386 l 953 592 q 1020 688 981 644 q 1107 763 1060 732 q 1215 810 1158 793 q 1332 826 1272 826 q 1373 825 1353 826 q 1413 821 1393 824 q 1427 827 1418 826 q 1442 828 1436 828 q 1446 827 1444 828 q 1450 826 1447 826 l 1460 826 q 1478 807 1478 821 q 1488 810 1483 810 q 1508 788 1508 810 q 1530 777 1518 783 q 1554 764 1542 771 m 500 515 q 497 514 499 514 q 495 512 494 513 q 497 511 496 511 q 494 510 497 511 q 482 507 492 510 l 503 507 q 513 510 507 508 q 519 517 519 511 l 519 518 q 517 521 519 521 q 506 517 510 521 l 500 515 m 117 29 l 292 29 l 292 481 q 215 456 254 472 q 149 414 176 440 q 131 400 139 407 q 117 383 124 393 l 117 29 m 336 29 l 336 485 q 327 485 332 485 q 315 483 322 485 l 315 29 l 336 29 m 336 685 l 315 685 q 313 593 315 639 q 311 500 311 547 l 313 504 q 336 507 326 507 l 336 685 m 85 593 l 85 685 l 17 685 q -17 672 -3 685 q -31 638 -31 658 q -17 606 -31 618 q 17 593 -3 593 l 85 593 m 117 564 l 117 528 l 207 528 q 221 534 215 528 q 226 549 226 540 q 217 564 226 557 l 117 564 m 117 506 l 117 503 l 118 503 q 121 503 121 504 q 120 503 121 503 q 120 503 119 503 q 126 506 121 503 l 117 506 m 72 493 q 79 494 75 493 l 85 494 l 85 506 l 75 506 q 68 499 68 506 q 72 493 68 493 m 179 503 q 145 489 160 493 q 117 481 131 485 l 117 469 q 129 447 129 463 q 117 422 129 429 l 117 421 q 118 419 117 419 l 119 418 q 127 424 124 421 q 135 429 131 426 q 208 476 167 457 q 292 503 250 496 l 292 685 l 117 685 l 117 593 l 238 593 q 253 578 253 593 q 246 565 253 568 q 249 549 249 560 q 236 517 249 529 q 207 506 224 506 l 179 503 m 117 436 l 103 436 q 103 438 103 438 q 104 440 104 439 q 107 447 107 446 q 104 454 107 449 q 103 456 104 456 q 103 458 103 457 l 117 458 l 117 436 m 93 447 q 96 442 93 444 l 85 436 l 85 457 l 94 450 q 93 447 93 450 m 1378 -51 q 1389 -38 1378 -50 q 1422 -11 1400 -26 l 1378 -28 q 1367 -32 1368 -31 q 1349 -50 1354 -40 q 1351 -56 1350 -50 q 1353 -58 1351 -58 q 1360 -62 1357 -62 q 1379 -49 1367 -62 l 1378 -51 z "},"G":{"ha":729,"x_min":25,"x_max":2168,"o":"m 2165 -78 q 2153 -190 2168 -136 q 2113 -290 2139 -243 q 2039 -376 2082 -339 q 1944 -436 1996 -414 l 1944 -435 q 1872 -460 1910 -453 q 1797 -468 1833 -468 q 1729 -461 1761 -468 q 1653 -439 1689 -454 q 1585 -403 1617 -424 q 1534 -369 1558 -383 q 1489 -349 1510 -356 q 1469 -341 1478 -344 q 1450 -335 1460 -337 l 1447 -335 q 1446 -333 1446 -335 q 1420 -325 1429 -331 q 1404 -306 1411 -319 q 1410 -289 1401 -297 l 1410 -292 q 1414 -282 1415 -281 q 1436 -274 1422 -274 q 1458 -279 1449 -274 q 1472 -289 1467 -285 l 1471 -289 q 1474 -290 1471 -290 l 1476 -290 l 1594 -389 q 1657 -427 1622 -412 q 1731 -449 1692 -442 q 1765 -453 1747 -451 q 1797 -456 1782 -456 q 1939 -424 1875 -456 q 2030 -365 1989 -400 q 2100 -282 2071 -331 q 2149 -78 2156 -190 q 2127 28 2146 -22 q 2072 119 2108 78 q 1997 192 2042 160 q 1901 239 1951 224 q 1797 254 1847 254 q 1688 236 1742 254 l 1686 236 q 1644 221 1665 231 q 1633 200 1642 210 q 1621 188 1624 190 q 1613 184 1617 185 q 1607 182 1610 183 q 1593 186 1597 182 q 1588 172 1594 176 q 1572 165 1581 167 q 1563 165 1563 165 q 1539 144 1551 157 q 1515 118 1526 131 l 1201 -192 l 1122 -267 l 1124 -267 l 1106 -286 q 1075 -316 1090 -301 q 1043 -344 1060 -331 q 948 -404 1001 -378 q 844 -446 894 -431 q 731 -460 790 -460 q 568 -433 647 -460 q 422 -354 489 -406 q 287 -182 336 -283 q 235 31 238 -81 q 131 103 176 57 q 57 210 85 149 q 25 358 25 285 q 57 506 25 433 q 151 633 89 581 q 293 707 213 686 q 297 708 294 707 q 301 706 299 708 q 344 715 322 713 q 389 717 365 717 q 491 701 442 717 q 583 658 540 686 q 660 591 626 631 q 714 504 693 551 l 713 504 q 729 476 719 490 q 746 449 739 461 l 747 447 q 750 442 747 444 q 751 438 750 440 q 751 433 751 435 q 751 417 754 424 q 736 394 749 401 q 724 393 733 393 q 708 399 714 393 q 700 433 699 411 q 695 470 700 438 q 668 546 690 503 l 668 544 q 547 653 619 614 q 389 693 474 693 q 349 691 369 693 q 310 683 329 689 l 310 536 l 433 536 q 449 521 449 536 q 440 508 449 513 q 444 490 444 500 q 432 460 444 471 q 403 449 419 449 l 376 446 q 341 433 357 439 q 310 424 325 428 l 310 413 q 320 403 315 410 q 325 389 325 397 q 321 372 325 378 q 310 363 317 367 l 310 358 q 315 344 315 353 q 310 331 315 336 l 310 31 q 348 25 328 26 q 389 24 368 24 q 478 37 435 24 q 562 74 522 50 q 633 131 601 97 q 689 204 665 164 l 551 204 q 542 215 542 204 q 551 226 542 226 l 713 226 q 713 222 713 224 q 715 214 713 221 q 660 126 694 165 q 583 58 626 86 q 491 15 540 31 q 389 0 442 0 q 301 10 342 0 l 292 10 q 280 13 285 13 q 269 17 275 14 q 263 19 264 19 q 257 21 263 18 q 306 -178 258 -86 q 436 -335 353 -271 q 575 -413 499 -386 q 731 -440 651 -440 q 785 -437 758 -440 q 840 -426 813 -433 q 942 -386 893 -411 q 1031 -329 990 -361 q 1058 -306 1046 -319 q 1082 -281 1071 -293 q 1110 -253 1094 -265 l 1190 -176 l 1189 -176 l 1501 132 l 1501 131 q 1524 156 1514 144 q 1550 179 1535 167 l 1550 181 q 1551 198 1547 190 q 1565 207 1554 206 q 1578 206 1574 207 q 1592 229 1578 221 l 1589 229 q 1604 235 1593 233 q 1625 238 1615 238 q 1632 235 1628 238 q 1655 244 1643 239 q 1683 254 1667 249 l 1682 254 q 1799 271 1738 271 q 1852 267 1826 271 q 1906 256 1878 263 q 2005 206 1958 239 q 2085 129 2051 174 q 2142 33 2121 85 q 2165 -78 2163 -19 m 726 414 l 728 414 l 726 414 m 725 414 q 724 415 725 415 l 724 414 l 725 414 m 731 424 q 731 431 732 426 q 726 438 729 435 l 721 450 q 722 444 721 447 q 722 439 722 442 l 722 432 q 725 414 722 417 q 729 419 729 415 l 731 424 m 281 671 l 278 669 q 267 667 271 667 q 257 664 264 667 l 257 661 l 281 661 l 281 671 m 235 653 q 213 639 224 646 q 193 625 203 632 q 235 658 206 647 l 235 653 m 182 583 q 193 625 182 607 q 85 493 119 574 q 63 428 69 461 q 56 358 56 394 q 63 288 56 322 q 85 222 69 254 q 146 129 107 169 q 235 64 185 89 l 235 510 q 197 537 211 517 q 182 583 182 557 m 235 621 q 219 604 225 614 q 213 583 213 594 q 235 544 213 558 l 235 621 m 271 449 q 261 442 261 449 q 269 438 261 438 q 273 437 272 438 q 281 438 274 436 l 281 449 l 271 449 m 281 507 l 257 507 l 257 467 q 271 471 265 471 l 281 471 l 281 507 m 281 401 l 292 396 q 288 389 288 393 q 290 383 288 386 l 281 376 l 281 401 m 301 389 q 297 394 301 390 l 310 400 l 310 376 l 297 382 q 301 389 301 386 m 281 415 l 278 415 q 274 415 275 415 q 269 414 272 414 q 263 413 265 414 q 257 415 260 413 q 256 233 257 322 q 254 51 254 144 q 266 49 261 49 q 278 47 271 50 q 281 46 278 47 l 281 328 q 272 344 272 336 q 281 358 272 357 l 281 361 q 265 389 265 368 q 281 414 265 401 l 281 415 m 310 446 q 318 449 313 446 l 310 449 l 310 446 m 318 449 q 328 453 322 450 q 342 458 335 456 q 357 461 350 460 l 358 449 l 318 449 m 310 507 l 310 471 l 403 471 q 416 476 410 471 q 422 490 422 482 q 414 507 422 500 l 310 507 m 281 629 l 261 629 q 259 630 258 629 q 257 629 260 631 l 257 536 l 281 536 l 281 629 m 1449 -317 q 1465 -320 1451 -317 q 1503 -335 1479 -324 q 1484 -319 1493 -326 q 1465 -304 1475 -311 l 1467 -304 l 1450 -296 l 1451 -296 q 1436 -290 1443 -290 q 1424 -297 1426 -290 q 1423 -299 1424 -299 q 1422 -301 1422 -300 l 1422 -303 q 1449 -317 1424 -312 z "},"H":{"ha":864,"x_min":-85,"x_max":1631,"o":"m 1383 679 q 1494 609 1444 654 q 1576 506 1544 564 q 1616 410 1601 461 q 1631 307 1631 358 q 1629 272 1631 290 q 1625 239 1628 254 q 1616 196 1622 217 q 1603 153 1610 175 q 1606 140 1606 147 q 1601 125 1606 129 q 1593 119 1599 122 q 1594 114 1593 117 q 1593 97 1596 107 q 1579 78 1590 90 q 1560 65 1568 65 l 1556 65 q 1527 32 1542 47 q 1494 -1 1513 17 q 1377 -74 1442 -46 q 1242 -104 1313 -101 q 1106 -87 1175 -108 q 981 -28 1038 -67 q 928 17 953 -8 q 883 71 904 43 q 856 116 867 94 q 833 161 844 138 l 833 15 q 818 -1 833 -1 l 564 -1 q 550 15 550 -1 l 550 207 l 340 207 l 340 15 q 326 0 340 0 l 75 0 q 60 15 60 0 l 60 339 q 53 350 58 342 l 44 361 l 46 360 q 12 438 22 397 q 1 522 1 479 q 2 544 1 533 q 4 564 3 556 l -8 564 q -62 586 -40 564 q -85 640 -85 608 q -62 694 -85 672 q -6 715 -39 715 l 67 715 q 110 760 86 740 q 161 796 135 781 q 164 801 161 799 l 164 804 q 169 808 165 806 q 176 810 174 810 q 186 810 181 811 q 195 828 188 821 q 215 838 203 836 q 235 826 231 838 q 237 827 236 826 q 239 828 238 828 q 251 838 240 838 q 264 835 258 840 q 285 838 275 838 q 306 838 294 838 q 453 809 383 842 q 568 714 522 776 l 818 714 q 833 700 833 714 l 833 197 q 842 180 839 189 q 850 163 846 171 q 872 125 861 144 q 899 82 883 106 q 940 30 918 54 q 990 -14 963 6 q 1110 -72 1046 -53 q 1242 -89 1175 -92 q 1485 13 1379 -82 q 1516 43 1501 28 q 1542 78 1531 58 q 1542 99 1539 86 q 1550 119 1546 113 q 1568 132 1556 129 q 1567 140 1567 135 q 1574 156 1567 154 l 1571 156 q 1588 161 1578 163 q 1601 203 1594 182 q 1610 242 1607 224 q 1614 274 1613 257 q 1615 306 1615 290 q 1602 406 1615 356 q 1567 500 1589 456 q 1485 597 1535 553 q 1378 667 1436 640 q 1310 692 1346 678 q 1242 717 1274 706 q 1225 726 1236 719 q 1207 744 1214 732 q 1206 755 1206 747 q 1206 765 1206 763 q 1211 772 1206 767 q 1229 781 1219 781 q 1261 763 1246 781 q 1294 732 1275 747 q 1335 705 1311 719 q 1392 679 1360 690 l 1383 679 m 1242 718 q 1236 721 1239 719 q 1229 725 1233 722 l 1231 725 q 1210 743 1217 732 q 1208 767 1204 754 q 1217 778 1213 769 q 1229 781 1219 781 q 1260 761 1244 781 l 1260 763 q 1272 750 1265 757 q 1286 738 1279 743 q 1318 714 1300 726 q 1360 690 1336 701 l 1354 676 l 1242 718 m 803 685 l 781 685 l 781 306 q 791 285 788 290 q 803 263 794 279 l 803 685 m 585 688 l 585 686 l 579 686 l 585 688 m 585 686 q 672 516 629 596 q 758 347 714 436 l 758 685 l 585 686 m 215 576 q 219 571 218 574 q 222 565 221 568 q 215 564 221 564 l 210 564 l 215 576 m 89 686 l 89 594 l 215 594 q 231 579 231 594 q 222 565 231 567 q 226 549 226 558 q 215 517 226 529 q 183 506 203 506 l 157 506 l 153 504 l 156 504 q 89 479 119 488 l 89 474 q 101 463 96 469 q 106 447 106 457 q 101 432 106 440 q 89 421 96 424 q 99 404 99 418 q 89 385 99 389 l 89 336 q 169 269 122 296 q 265 232 217 242 l 265 686 l 89 686 m 311 686 l 289 686 l 289 229 q 294 228 292 229 q 299 228 296 228 l 311 228 l 311 686 m 89 435 l 79 440 q 83 447 83 442 q 79 454 83 451 l 89 460 l 89 435 m 60 458 l 69 453 l 69 447 q 72 443 69 446 l 60 438 l 60 458 m 89 564 l 89 529 l 183 529 q 198 535 192 529 q 204 549 204 540 q 194 564 204 561 l 89 564 m 89 503 q 96 506 88 503 l 89 506 l 89 503 m 89 501 l 89 494 l 82 501 q 83 502 83 501 q 86 503 83 503 l 89 503 l 89 501 m 60 506 l 53 506 q 43 500 43 506 q 50 494 43 494 q 56 494 56 494 q 60 496 57 494 l 60 506 m 61 667 q 60 665 60 665 l 60 692 l 72 689 l 67 678 l 65 675 q 63 671 64 672 q 61 667 63 669 m 60 665 q 31 594 39 625 l 60 594 l 60 665 m 10 594 q 43 679 19 631 q 43 680 40 676 q 47 686 46 683 l -8 686 q -41 673 -28 686 q -54 640 -54 660 q -41 607 -54 619 q -8 594 -28 594 l 10 594 m 24 508 q 24 497 24 501 q 26 485 25 492 q 22 500 22 490 q 24 508 22 506 m 72 360 l 60 357 l 60 379 q 64 372 63 374 l 72 360 m 26 485 q 38 430 29 457 q 60 379 46 403 l 60 389 q 56 404 56 394 q 60 415 56 411 l 60 425 q 47 447 47 435 q 60 471 47 464 l 60 472 l 50 472 q 26 485 33 472 m 24 508 q 34 523 26 517 q 53 529 42 529 l 60 529 l 60 564 l 26 564 q 24 543 24 553 q 24 522 24 533 l 24 508 m 89 31 l 265 31 l 265 210 q 172 243 219 218 q 89 304 125 268 l 89 31 m 311 31 q 310 119 311 75 q 310 207 310 163 q 299 207 304 207 q 289 208 293 207 l 289 31 l 311 31 m 199 788 q 192 796 193 793 l 200 793 q 199 792 199 792 l 199 788 m 326 715 q 340 701 340 715 l 340 228 q 432 228 386 228 q 524 229 478 229 q 538 228 533 229 q 550 229 543 228 l 550 700 l 551 703 q 444 790 508 760 q 306 818 379 821 q 288 818 296 818 q 269 815 279 818 q 254 803 267 806 q 240 808 246 803 q 235 790 240 796 q 215 782 231 785 q 199 788 204 782 q 181 776 196 778 q 171 779 174 776 q 94 715 124 753 l 326 715 m 581 29 l 758 29 l 758 310 q 713 398 735 356 q 669 482 692 440 q 626 566 647 524 q 581 656 604 608 l 581 235 q 597 240 589 238 q 611 246 606 243 l 611 244 q 615 247 613 244 l 636 256 q 679 256 664 267 q 684 244 683 250 q 685 236 685 238 q 672 213 685 219 q 642 207 658 207 l 581 207 l 581 29 m 643 228 q 653 229 646 228 q 664 236 661 231 q 660 242 664 242 q 647 236 658 242 q 649 236 647 236 q 651 235 651 236 q 648 233 651 235 q 632 228 644 232 l 643 228 m 803 29 l 803 221 q 792 242 796 236 q 781 263 789 247 l 781 29 l 803 29 z "},"I":{"ha":400,"x_min":-319,"x_max":1157,"o":"m 882 333 q 974 306 931 326 q 1054 249 1018 286 q 1125 152 1099 207 q 1154 35 1151 97 q 1137 -87 1157 -28 q 1076 -190 1117 -146 q 978 -265 1035 -235 q 864 -301 922 -294 q 742 -290 801 -307 q 636 -232 683 -272 q 555 -137 586 -193 q 517 -24 524 -82 q 512 118 513 50 q 511 260 511 186 q 501 278 506 265 q 498 289 499 283 q 497 299 497 294 q 510 315 497 313 q 505 322 507 318 q 501 328 503 325 q 511 351 496 347 l 511 454 q 485 567 506 513 q 431 669 464 622 q 348 749 396 714 q 246 804 300 783 q 110 828 175 828 q 63 824 88 828 q 15 817 39 821 q -91 772 -40 801 q -182 700 -142 743 q -230 636 -208 675 q -262 561 -251 597 q -264 551 -262 554 q -266 546 -265 547 q -268 542 -267 544 q -259 526 -260 536 q -262 510 -258 517 q -283 492 -267 499 q -277 481 -279 486 q -282 469 -275 476 l -282 472 q -283 467 -283 469 q -286 465 -283 465 q -289 444 -289 454 q -289 422 -289 433 q -281 343 -289 383 q -257 267 -272 303 q -194 170 -233 217 q -108 92 -154 124 q 97 28 -12 32 l 97 389 q 90 403 90 399 q 92 413 90 410 q 97 418 94 415 l 97 421 q 83 447 83 429 q 96 471 83 464 l 86 471 q 57 501 57 471 q 89 529 57 529 l 97 529 l 97 564 l 26 564 q -26 585 -6 564 q -47 640 -47 607 q -26 694 -47 672 q 31 715 -4 715 l 364 715 q 378 700 378 715 l 378 17 q 364 1 378 1 l 111 1 q 101 7 106 1 q -15 26 42 8 q -119 74 -71 43 q -212 154 -172 108 q -276 258 -253 200 q -310 421 -310 338 q -309 443 -310 433 q -308 464 -308 453 q -317 472 -315 467 q -315 488 -318 478 q -303 494 -312 493 l -303 496 q -317 510 -314 501 q -315 531 -319 519 q -305 542 -311 539 q -292 547 -299 546 q -296 565 -300 556 q -292 572 -293 569 q -283 574 -290 574 q -199 713 -254 653 q -102 788 -158 757 q 11 835 -46 819 q 111 847 61 847 q 254 822 183 847 q 360 765 313 800 q 446 681 408 731 q 503 574 482 632 q 529 454 524 517 q 531 402 531 426 q 531 350 531 378 q 540 342 539 347 q 541 338 540 339 q 542 335 542 336 q 543 332 542 333 q 535 318 538 321 q 547 297 547 311 q 542 279 547 293 q 531 258 538 265 l 531 204 q 531 90 531 146 q 533 -22 531 35 l 533 -21 q 569 -131 540 -79 q 646 -219 597 -183 q 745 -273 690 -256 q 863 -283 800 -290 q 973 -252 921 -279 q 1063 -181 1025 -225 q 1122 -81 1101 -137 q 1139 35 1142 -24 q 1112 146 1136 93 q 1044 239 1088 199 q 968 293 1013 274 q 879 319 924 313 q 806 324 843 322 q 733 328 769 325 q 726 328 731 328 q 718 329 721 328 q 696 340 703 331 l 697 340 q 690 349 693 343 q 688 360 688 356 q 690 371 686 364 l 689 369 q 697 381 690 378 q 711 385 703 385 q 743 372 719 385 q 782 355 743 369 q 882 333 821 340 m 854 339 l 854 325 l 733 329 q 726 329 731 329 q 718 331 721 329 q 706 333 711 332 q 696 342 700 335 l 696 340 q 689 360 689 347 q 692 371 689 365 l 690 369 q 698 380 692 376 q 711 383 704 383 q 742 371 722 383 q 768 358 742 369 q 839 340 794 347 q 845 340 842 340 q 851 339 849 339 l 854 339 m 347 686 l 328 686 l 328 32 l 347 32 l 347 686 m 97 593 l 97 686 l 26 686 q -6 673 8 686 q -21 640 -21 660 q -6 607 -21 621 q 26 593 8 593 l 97 593 m 128 564 l 128 529 l 219 529 q 233 535 226 529 q 239 549 239 540 q 232 564 239 560 l 128 564 m 128 507 l 128 504 q 128 503 132 506 q 136 507 125 500 l 128 507 m 128 504 l 128 496 l 121 503 q 123 503 122 503 q 126 504 124 504 l 128 504 m 97 496 l 97 508 l 89 508 q 78 501 78 508 q 86 493 78 493 l 97 496 m 128 481 q 128 482 126 481 l 128 481 m 251 575 q 256 570 254 572 q 258 565 257 568 q 251 564 256 564 l 246 564 l 251 575 m 190 504 q 173 497 181 500 q 158 492 165 494 q 138 484 147 488 q 128 481 129 481 l 128 469 q 140 447 140 463 q 128 421 140 429 q 133 403 133 415 q 128 388 133 394 l 128 32 l 304 32 l 304 686 l 128 686 l 128 593 l 251 593 q 264 578 264 593 q 258 565 264 568 q 261 549 261 560 q 248 520 261 532 q 219 508 235 508 l 193 506 l 190 504 m 128 435 l 115 439 q 119 447 119 444 q 115 454 119 450 l 128 460 l 128 435 m 110 442 l 97 436 l 97 458 l 108 453 q 104 447 104 450 l 110 442 z "},"J":{"ha":600,"x_min":-478,"x_max":914,"o":"m 839 -24 q 870 -37 857 -26 q 894 -61 883 -47 q 910 -108 906 -82 q 904 -154 914 -135 q 876 -192 894 -176 q 833 -214 857 -208 q 747 -190 786 -222 l 553 0 l 303 0 q 293 4 297 0 l 54 4 l -178 6 q -292 31 -236 7 q -389 97 -347 54 q -453 196 -431 139 q -476 313 -476 253 q -456 428 -478 372 q -392 528 -433 485 l -392 526 q -237 615 -325 594 l -228 625 q -210 632 -218 632 l -211 632 q -192 626 -199 633 q -189 629 -192 626 q -164 621 -171 639 q 36 543 -50 618 l 286 293 l 286 386 q 281 394 283 389 q 279 406 279 399 q 288 421 279 413 l 286 422 q 271 449 271 429 q 285 472 271 463 l 274 472 q 254 481 263 472 q 246 501 246 489 q 256 522 246 514 q 276 531 267 531 l 286 531 l 286 565 l 217 565 q 163 588 185 565 q 140 642 140 610 q 163 695 140 674 q 217 717 185 717 l 556 717 q 569 703 569 717 l 569 15 q 569 11 569 11 q 663 -83 615 -36 q 756 -176 710 -131 l 754 -176 q 788 -198 769 -192 q 831 -199 807 -204 q 867 -181 850 -194 q 892 -150 883 -168 q 897 -110 899 -131 q 883 -71 894 -89 q 836 -39 868 -43 l 746 -26 q 734 -23 743 -25 q 722 -15 725 -21 l 722 -17 q 717 0 717 -11 q 719 11 717 6 q 733 18 726 18 q 756 8 746 18 l 754 8 q 778 -4 761 3 q 804 -15 789 -10 q 839 -24 819 -21 m 732 0 l 732 -1 l 732 0 m 735 -7 q 738 -10 735 -10 q 747 -11 740 -11 l 758 -12 q 753 -8 754 -10 q 749 -6 751 -7 l 744 -6 q 733 1 738 1 q 732 0 733 0 q 733 -2 733 -1 q 735 -4 733 -3 l 735 -7 m 539 686 l 517 686 l 517 61 q 528 50 519 57 q 539 40 536 43 l 539 686 m 286 594 l 286 686 l 217 686 q 183 674 196 686 q 171 642 171 661 q 183 608 171 621 q 217 594 196 594 l 286 594 m 318 565 l 318 531 l 408 531 q 426 549 426 531 q 421 565 426 561 l 318 565 m 318 508 l 318 504 q 328 508 322 506 l 318 508 m 274 494 q 285 496 279 494 l 286 496 l 286 508 l 276 508 q 271 506 274 508 q 268 501 268 504 q 274 494 268 494 m 318 439 l 308 444 l 308 449 q 306 456 308 450 l 318 460 l 318 439 m 293 449 q 297 442 293 443 l 286 436 l 286 461 l 297 456 q 293 449 293 453 m 439 576 q 444 567 442 572 q 439 565 443 565 l 433 565 l 439 576 m 318 261 q 408 173 365 214 q 496 83 450 132 l 496 686 l 318 686 l 318 594 l 439 594 q 453 579 453 594 q 444 567 453 568 q 450 549 450 560 q 438 520 450 532 q 408 508 425 508 l 386 508 q 383 507 385 507 q 381 506 381 506 q 347 492 365 499 q 318 481 329 485 l 318 472 q 326 462 322 468 q 329 449 329 456 q 318 424 329 429 l 318 419 q 324 406 324 410 q 318 389 324 396 l 318 261 m 496 29 l 496 58 q 456 99 479 75 q 408 147 433 122 q 360 196 383 172 q 318 238 336 219 l 318 29 l 496 29 m 128 25 q 43 99 76 49 q 7 211 10 150 l 7 328 q 7 335 7 331 q 8 343 7 340 q 11 353 10 349 q 17 364 13 357 q 39 372 26 372 q 47 369 42 372 l 47 371 q 58 365 54 369 q 65 348 65 356 q 60 331 64 340 q 50 312 54 324 q 43 290 46 300 q 33 255 38 275 q 29 211 29 235 q 47 140 31 174 q 88 81 63 106 q 148 41 114 56 q 221 26 182 26 l 286 26 l 286 267 q 223 330 257 296 q 155 399 189 364 q 87 467 121 433 q 24 529 53 500 l 25 529 q -62 583 -12 563 q -164 604 -112 603 q -172 597 -169 599 l -169 597 q -181 594 -172 594 q -189 596 -186 594 q -208 588 -192 589 q -224 589 -219 588 l -222 589 q -236 596 -228 590 q -378 514 -321 578 q -438 422 -418 474 q -457 313 -458 369 q -436 202 -457 254 q -375 111 -415 150 q -285 49 -336 71 q -178 25 -233 26 l 128 25 m 31 322 q 35 332 35 331 q 39 337 38 335 q 42 342 40 339 q 44 346 43 344 q 43 350 42 350 q 39 353 44 350 q 38 352 38 353 q 36 351 38 351 q 33 350 35 350 q 29 338 29 346 l 29 321 l 31 322 m 526 29 l 517 39 l 517 29 l 526 29 z "},"K":{"ha":682,"x_min":-531,"x_max":663,"o":"m 529 361 q 505 283 526 317 q 449 229 483 249 q 532 213 493 229 q 600 167 571 196 q 646 99 629 138 q 663 15 663 60 q 651 4 663 4 q 640 15 640 4 q 625 90 640 54 q 584 151 610 125 q 523 192 558 176 q 449 207 488 207 l 383 207 l 383 15 q 368 0 383 0 l 117 0 l 114 1 q -10 19 51 -4 q -112 92 -72 43 q -149 147 -135 118 q -171 208 -164 175 q -268 228 -218 210 q -317 248 -292 236 q -365 275 -342 260 l -365 264 l -379 264 l -379 285 q -412 315 -396 299 q -443 350 -429 332 q -507 465 -483 400 q -531 593 -531 529 q -522 675 -531 635 q -493 754 -512 715 q -433 844 -468 803 q -351 914 -397 885 q -279 950 -317 936 q -201 971 -242 964 q -144 981 -169 974 q -100 994 -119 988 q -60 1014 -78 1003 l -61 1014 q -32 1025 -50 1025 q -22 1022 -24 1025 q -17 1017 -19 1019 q -12 1007 -14 1011 q -10 1000 -10 1003 q -17 979 -10 986 l -17 981 q -40 968 -21 971 l -39 969 q -49 967 -44 967 q -52 966 -51 967 q -54 965 -53 965 q -126 960 -89 963 q -199 956 -162 958 q -343 901 -276 943 q -481 747 -433 844 l -479 747 q -514 594 -514 674 q -492 469 -514 531 q -429 358 -471 408 q -404 333 -418 346 q -376 308 -390 319 q -340 427 -369 371 q -265 528 -310 483 q -163 594 -221 569 q -44 626 -106 619 q -45 632 -44 629 q -46 638 -46 635 q -24 692 -46 669 q 31 715 -1 715 l 368 715 q 383 700 383 715 l 383 229 q 469 274 433 236 q 507 363 504 311 q 501 408 506 386 q 494 444 497 429 l 494 443 q 488 460 492 453 q 482 475 485 468 l 483 475 q 478 511 471 499 q 490 521 483 519 q 499 522 496 522 q 518 513 511 522 q 528 492 528 503 q 529 479 529 482 l 529 361 m 493 499 q 494 500 494 499 q 493 499 494 499 m 497 501 q 496 500 496 501 q 499 486 494 497 q 499 488 499 486 q 499 490 499 490 q 501 486 500 490 q 507 468 503 482 l 507 488 q 504 493 506 490 q 501 499 503 496 q 497 501 499 501 m -49 1007 q -65 997 -49 1006 q -103 978 -82 988 q -78 979 -92 979 q -54 981 -65 979 q -46 982 -50 981 q -28 990 -35 983 q -24 1000 -24 994 q -24 1006 -24 1001 q -32 1010 -25 1010 q -51 1001 -39 1010 l -49 1007 m 347 228 l 347 226 l 347 221 l 340 228 l 347 228 m 353 685 l 331 685 l 331 382 q 350 268 350 326 q 349 249 350 258 q 347 228 349 239 q 349 228 349 228 q 353 229 350 229 l 353 685 m 160 31 q 249 81 210 46 q 310 160 288 115 l 308 157 l 308 207 l 132 207 l 132 31 l 160 31 m 308 124 q 210 31 272 61 l 308 31 l 308 124 m 103 474 q 101 473 101 474 q 100 472 101 472 l 101 474 l 103 474 m -22 228 q -21 229 -21 228 q -19 225 -19 228 l -22 228 m 101 228 l 101 383 q 92 403 92 388 q 101 422 92 415 q 85 447 85 428 q 100 472 85 467 l 86 472 q 67 481 75 472 q 60 500 60 489 q 58 502 60 503 q 60 504 57 501 q -55 460 -3 497 q -132 365 -107 424 q -154 264 -154 319 q -155 247 -154 256 q -153 228 -156 239 q -108 228 -129 228 q -62 229 -86 229 q -49 238 -57 235 q -36 240 -40 240 q -21 229 -25 240 q -11 236 -19 229 q 6 228 -3 239 l 101 228 m 125 578 l 125 592 l 133 592 l 131 579 l 125 578 m 101 590 q 97 592 99 590 l 101 592 l 101 590 m -7 611 q 31 592 7 592 l 97 592 q 3 611 50 607 l -7 611 m 222 515 q 217 521 219 518 q 211 526 214 524 l 221 526 q 224 527 224 526 q 228 528 225 528 l 222 515 m 132 563 l 132 526 l 211 526 q 188 544 199 538 q 167 560 178 551 l 168 560 q 164 563 165 561 l 132 563 m 192 563 q 214 547 203 556 q 233 531 225 538 q 242 547 242 533 q 232 563 242 557 l 192 563 m 132 503 q 133 504 133 503 l 132 504 l 132 503 m 133 504 l 136 504 q 138 506 138 504 q 174 518 156 510 l 176 504 l 133 504 m 89 504 q 82 500 82 504 q 86 494 82 494 q 100 496 94 494 l 101 496 l 101 504 l 89 504 m 101 461 l 111 456 q 107 447 107 453 q 111 440 107 442 l 101 435 l 101 461 m 132 438 l 119 443 q 122 447 122 446 q 119 453 122 450 l 132 458 l 132 438 m 132 228 l 308 228 l 308 388 q 283 442 297 415 q 250 489 268 469 q 232 504 242 499 l 196 504 l 196 503 q 161 491 176 496 q 132 482 146 486 l 132 469 q 144 447 144 463 q 132 425 144 435 l 132 417 q 136 403 136 410 q 132 388 136 393 l 132 228 m 331 178 l 317 181 q 325 203 321 193 q 329 211 329 214 l 331 207 l 331 178 m 329 228 l 331 231 l 331 228 l 329 228 m 331 231 q 333 249 332 240 q 333 267 333 258 q 333 289 333 279 q 331 311 333 299 l 331 231 m 253 574 q 261 564 256 569 q 253 563 258 563 l 247 563 l 253 574 m 132 597 q 137 594 133 596 q 143 592 140 593 l 253 592 q 268 576 268 592 q 261 564 268 564 q 264 547 264 553 q 249 517 264 528 l 257 508 l 254 508 q 258 506 256 507 l 264 500 q 288 467 276 485 q 308 432 299 449 l 308 685 l 132 685 l 132 597 m 31 685 q -3 672 10 685 q -17 638 -17 658 q -15 626 -17 632 l 6 626 q 54 622 31 625 q 101 610 78 618 l 101 685 l 31 685 m -262 246 q -218 234 -239 239 q -174 228 -197 229 q -175 247 -175 236 q -175 264 -175 257 q -153 374 -175 322 q -56 485 -121 443 q 89 526 10 528 l 101 526 l 101 563 l 31 563 q -13 576 6 563 q -42 611 -32 590 q -157 581 -100 604 q -256 515 -214 557 q -329 418 -303 475 q -364 297 -356 361 q -315 268 -340 282 q -261 246 -289 254 l -262 246 m -97 104 q -7 39 -61 61 q 101 21 47 17 l 101 207 l 7 207 q 1 202 4 204 q -8 199 -3 200 q -17 199 -15 199 q -22 203 -19 200 q -36 197 -31 197 q -50 199 -40 197 q -65 207 -60 200 q -108 208 -89 207 q -149 208 -126 208 q -97 104 -133 147 m 331 164 q 329 163 329 163 l 331 165 l 331 164 m 353 31 l 353 207 l 343 207 q 342 204 343 206 q 342 201 342 203 q 338 184 339 193 q 331 164 336 175 l 331 31 l 353 31 z "},"L":{"ha":629,"x_min":-189,"x_max":883,"o":"m -161 394 q -172 396 -169 394 q -183 408 -182 400 q -172 451 -189 424 q -149 499 -165 463 q -128 588 -132 535 q -47 797 -111 701 q 52 908 -6 860 q 179 985 110 956 q 376 1024 276 1024 q 425 1022 400 1024 q 474 1014 450 1019 q 615 963 547 997 q 735 875 682 928 q 754 855 746 864 q 772 836 763 846 q 786 829 779 833 q 796 822 793 825 q 801 811 799 817 q 803 803 803 806 l 803 801 l 803 799 q 805 799 806 799 q 807 797 804 799 q 813 774 819 789 q 850 696 835 738 q 874 614 865 654 q 881 565 879 590 q 883 514 883 539 q 846 319 883 411 q 769 191 818 249 q 658 90 721 133 q 602 58 631 71 q 543 33 574 44 q 581 44 567 39 q 597 50 596 49 q 643 53 631 67 q 650 43 649 49 q 651 35 651 38 q 637 10 650 17 q 607 3 624 3 l 486 4 l 376 4 q 368 0 372 0 l 114 0 q 99 15 99 0 l 99 392 q 94 400 96 394 q 92 408 92 406 q 99 425 92 419 l 99 428 q 85 453 85 433 q 97 478 85 467 l 86 478 q 66 486 75 478 q 57 506 57 494 q 67 526 57 518 q 89 535 78 535 l 99 535 l 99 569 l 28 569 q -27 592 -4 569 q -50 647 -50 615 q -27 701 -50 679 q 28 724 -4 724 l 368 724 q 383 708 383 724 l 383 26 q 521 48 454 28 q 646 108 588 68 q 753 203 708 147 q 826 328 799 260 q 864 515 864 419 q 854 611 864 564 q 832 691 846 653 q 796 765 818 729 l 794 765 q 785 768 788 765 q 778 783 775 772 q 769 785 769 783 q 757 804 763 792 q 754 825 751 817 q 740 842 749 833 q 721 863 732 851 q 469 996 613 969 q 371 1007 417 1007 q 277 997 324 1007 q 186 969 231 988 q 61 896 118 942 q -36 788 4 850 q -112 586 -99 699 l -112 588 q -119 515 -115 551 q -125 442 -122 478 q -131 418 -125 429 l -129 418 q -140 401 -133 408 q -160 394 -147 394 l -161 394 m 99 600 l 99 693 l 28 693 q -6 680 8 693 q -19 647 -19 667 q -6 614 -19 628 q 28 600 8 600 l 99 600 m 128 569 l 128 535 l 222 535 q 235 541 229 535 q 242 556 242 547 q 232 569 242 564 l 128 569 m 128 513 l 128 508 q 133 510 131 510 q 139 513 136 511 l 128 513 m 99 500 l 99 513 l 89 513 q 79 506 79 513 q 86 500 79 500 l 99 500 m 128 442 l 118 447 q 122 453 122 449 q 118 460 122 457 l 128 464 l 128 442 m 107 453 q 110 447 107 450 l 99 442 l 99 464 l 110 460 q 107 453 107 457 m 253 582 q 257 576 256 579 q 261 571 258 574 q 253 569 258 569 l 247 569 l 253 582 m 128 31 l 308 31 l 308 693 l 128 693 l 128 600 l 253 600 q 268 585 268 600 q 261 571 268 574 q 263 563 263 567 q 264 556 264 560 q 252 524 264 536 q 222 513 240 513 l 197 513 q 194 510 200 510 q 159 496 175 501 q 128 486 143 490 l 128 476 q 143 453 143 464 q 128 426 143 433 l 128 425 q 133 417 131 422 q 135 408 135 411 q 128 392 135 397 l 128 31 m 353 693 l 329 693 l 329 31 l 353 31 l 353 693 m 610 32 q 607 31 611 32 q 600 28 603 29 q 599 27 597 26 q 601 28 600 28 q 602 27 603 28 q 594 25 601 26 l 611 25 q 622 29 617 26 q 631 36 628 32 q 629 38 629 36 l 628 39 q 614 33 625 39 l 610 32 m -117 561 l -118 542 l -132 542 l -132 550 q -131 555 -132 553 q -131 560 -131 557 l -117 561 m -117 557 q -136 493 -125 522 q -132 539 -135 518 q -132 551 -132 543 q -131 561 -132 558 l -117 557 m -161 439 q -169 414 -172 424 q -162 410 -169 413 l -160 410 q -144 425 -153 410 l -144 424 q -140 442 -142 435 q -138 467 -139 454 q -136 493 -137 479 q -160 444 -150 458 l -160 443 l -161 439 z "},"M":{"ha":960,"x_min":-36,"x_max":1439,"o":"m 1246 161 q 1326 83 1290 128 q 1389 -11 1363 38 q 1427 -119 1415 -64 q 1439 -233 1439 -175 q 1435 -299 1439 -265 q 1392 -440 1424 -374 q 1314 -561 1360 -506 q 1199 -657 1264 -618 q 1064 -714 1135 -696 q 938 -731 1001 -731 q 853 -724 897 -731 q 774 -703 810 -717 q 647 -631 711 -676 q 539 -532 583 -586 q 469 -402 497 -474 q 435 -258 440 -331 q 434 -216 433 -236 q 438 -175 435 -196 q 432 -165 433 -172 q 435 -150 432 -154 q 434 -153 435 -151 q 438 -150 433 -154 l 436 -147 q 433 -131 433 -144 q 440 -115 435 -125 q 453 -103 444 -106 q 474 -40 461 -69 q 501 18 486 -10 q 447 117 471 71 q 393 217 422 164 l 393 14 q 388 3 393 7 q 378 0 383 0 l 126 0 q 110 14 110 0 l 110 385 q 103 403 103 394 q 110 421 103 414 l 110 422 q 100 431 104 425 q 96 446 96 438 q 111 469 96 461 l 99 469 q 71 499 71 469 q 80 519 71 511 q 100 526 89 526 l 110 526 l 110 563 l 40 563 q -14 585 8 563 q -36 639 -36 607 q -14 692 -36 669 q 40 715 8 715 l 378 715 q 388 710 383 715 q 393 699 393 706 l 393 256 q 452 147 425 197 q 511 40 479 97 q 582 156 547 99 q 651 272 617 214 q 652 375 651 318 q 653 491 653 432 q 653 606 653 550 q 654 708 654 663 q 658 713 657 711 q 667 715 658 715 l 915 715 q 931 699 931 715 l 931 14 q 915 0 931 0 l 667 0 q 651 15 653 0 l 651 231 q 587 120 619 175 q 522 11 554 65 q 493 -45 507 -17 q 472 -108 479 -74 q 476 -124 475 -115 q 476 -136 476 -133 q 463 -150 469 -149 q 465 -153 464 -153 q 468 -157 467 -154 q 465 -171 468 -165 q 458 -176 464 -174 q 456 -218 456 -194 q 457 -258 456 -242 q 487 -396 461 -328 q 554 -519 513 -464 q 657 -619 599 -578 q 779 -683 715 -660 q 858 -706 818 -699 q 939 -712 899 -712 q 1058 -697 997 -712 q 1190 -641 1128 -679 q 1300 -551 1253 -603 q 1378 -432 1347 -499 q 1421 -296 1410 -365 q 1425 -236 1425 -265 q 1412 -124 1425 -179 q 1372 -17 1399 -68 q 1315 73 1350 32 q 1238 147 1281 114 q 1178 189 1210 167 q 1118 232 1146 211 l 1117 233 q 1114 236 1114 233 l 1115 236 q 1103 249 1108 242 q 1094 264 1097 256 q 1099 285 1088 276 l 1097 285 l 1101 289 q 1119 296 1108 296 q 1146 276 1133 296 q 1158 257 1151 267 q 1175 235 1165 247 q 1209 197 1188 218 q 1263 150 1231 175 l 1246 161 m 1215 183 q 1217 183 1215 182 l 1215 183 m 1217 183 l 1218 183 l 1217 183 m 1218 165 q 1192 190 1203 178 q 1171 214 1181 203 l 1215 183 q 1225 176 1221 181 l 1218 165 m 1108 265 q 1113 256 1110 260 q 1122 246 1117 253 q 1125 246 1122 246 l 1171 214 q 1165 221 1167 218 q 1160 226 1163 224 q 1156 232 1158 229 q 1144 248 1150 239 q 1135 263 1138 257 l 1136 263 q 1119 282 1125 282 q 1114 278 1118 282 q 1112 276 1113 276 q 1110 272 1111 275 q 1108 265 1108 271 m 1207 172 l 1213 185 q 1222 180 1219 182 q 1225 176 1224 178 l 1217 165 l 1207 172 m 681 28 l 854 28 l 854 579 q 767 430 811 504 q 681 279 724 356 l 681 28 m 900 28 l 900 656 q 889 638 894 646 q 878 619 883 631 l 878 28 l 900 28 m 893 685 l 878 685 l 878 661 l 893 685 m 681 685 l 681 322 q 767 472 724 397 q 854 622 811 546 l 854 685 l 681 685 m 360 685 l 339 685 l 339 349 q 349 330 346 333 q 360 310 351 326 l 360 685 m 150 685 q 175 638 164 661 q 199 590 186 615 l 263 590 q 276 576 276 590 q 269 564 276 567 q 272 549 272 558 q 265 524 272 535 q 247 508 258 514 q 281 448 267 474 q 315 386 296 422 l 315 685 l 150 685 m 215 563 q 225 545 221 551 q 235 528 229 539 q 246 536 240 531 q 251 549 251 542 q 248 556 251 553 q 242 563 244 560 l 215 563 m 142 657 l 142 590 l 178 590 l 142 657 m 110 590 l 110 685 l 40 685 q 7 672 19 685 q -6 639 -6 658 q 7 604 -6 618 q 40 590 19 590 l 110 590 m 142 563 l 142 526 l 214 526 q 203 544 208 535 q 193 563 197 553 l 142 563 m 142 500 q 147 502 144 501 q 153 506 150 503 l 142 506 l 142 500 m 153 506 q 156 507 154 506 q 178 517 175 517 q 186 519 181 517 l 189 506 l 153 506 m 99 492 q 101 492 100 492 q 106 493 103 493 l 110 493 l 110 506 l 100 506 q 93 499 93 506 q 99 492 93 492 m 142 438 l 132 443 l 132 446 q 129 457 132 449 l 142 460 l 142 438 m 117 446 q 119 443 117 446 l 110 436 l 110 461 l 122 456 q 117 446 117 450 m 142 28 l 315 28 l 315 347 q 271 426 293 388 q 225 506 249 465 q 215 505 219 506 q 204 504 210 504 l 200 501 l 203 501 l 182 493 q 142 478 160 482 l 142 469 q 154 446 154 463 q 142 425 154 435 l 142 417 q 149 403 149 411 q 142 389 149 396 l 142 28 m 360 268 q 350 285 353 282 q 339 304 347 289 l 339 28 l 360 28 l 360 268 z "},"N":{"ha":769,"x_min":-460,"x_max":744,"o":"m 254 -581 q 106 -601 181 -601 q 21 -594 65 -601 q -64 -575 -24 -586 q -206 -506 -137 -551 q -326 -400 -274 -461 q -362 -350 -346 -376 q -394 -293 -379 -324 q -411 -282 -403 -290 q -421 -271 -419 -274 q -421 -256 -428 -260 l -422 -254 q -428 -228 -433 -236 q -444 -171 -439 -200 q -454 -111 -450 -142 q -458 -73 -457 -93 q -460 -33 -460 -53 q -407 200 -460 92 q -317 335 -371 272 q -197 440 -264 397 q -58 504 -135 481 q 96 531 18 528 l 110 531 l 110 564 l 36 564 q -17 586 4 564 q -39 640 -39 608 q -17 694 -39 672 q 36 715 4 715 l 376 715 q 388 713 385 715 l 725 49 l 725 582 q 719 626 724 606 q 710 663 715 647 q 703 682 706 672 q 697 694 700 692 q 692 732 685 718 l 692 731 q 706 743 699 742 q 715 744 714 744 q 735 735 728 744 l 735 736 q 743 717 742 728 q 744 699 744 706 l 744 17 q 738 6 744 8 q 735 2 736 4 q 726 0 733 0 l 475 0 q 461 10 465 0 l 463 10 q 337 258 399 136 q 211 507 275 381 q 206 506 208 507 q 201 506 204 506 l 200 506 q 160 488 178 494 q 129 479 143 482 l 129 475 q 144 464 136 471 q 151 450 151 457 q 132 422 151 429 q 143 404 143 415 q 129 385 143 389 l 129 138 q 135 92 131 114 q 144 56 139 71 q 151 36 149 46 q 157 24 154 26 l 157 25 q 160 -21 171 3 q 150 -25 156 -25 q 139 -25 146 -28 q 121 -18 124 -25 l 122 -19 q 111 -2 113 -12 q 110 17 110 8 l 110 386 q 99 404 99 392 q 111 422 99 415 l 110 422 q 92 450 92 426 q 103 474 92 468 q 99 473 100 472 q 94 474 97 474 q 65 501 65 474 q 64 504 65 504 q 65 507 63 504 q -65 482 -4 501 q -185 424 -126 463 q -306 324 -256 382 q -389 193 -357 265 q -440 -32 -440 86 q -439 -69 -440 -50 q -435 -108 -437 -89 q -408 -219 -426 -160 q -402 -222 -406 -221 q -396 -225 -399 -224 q -393 -243 -393 -233 q -383 -256 -385 -249 q -382 -286 -375 -268 q -351 -338 -367 -312 q -312 -390 -336 -364 q -199 -494 -264 -451 q -58 -560 -133 -536 l -60 -560 q 107 -583 26 -583 q 179 -579 143 -583 q 251 -565 215 -575 q 391 -506 322 -546 q 513 -408 460 -465 q 585 -308 553 -364 q 633 -194 617 -253 q 636 -178 635 -186 q 640 -160 638 -169 q 640 -161 640 -161 q 639 -162 639 -161 l 667 -54 l 674 -62 q 675 -55 674 -62 q 681 -39 676 -47 q 690 -23 685 -31 q 704 -15 696 -15 q 715 -18 713 -15 l 714 -18 q 717 -19 715 -18 q 719 -19 718 -19 l 726 -26 l 731 -32 q 713 -72 732 -46 q 705 -81 713 -72 q 687 -107 697 -90 q 665 -147 676 -124 q 646 -197 654 -169 q 597 -315 629 -260 q 525 -417 565 -371 q 401 -518 471 -476 q 254 -581 331 -560 m 672 -101 q 685 -83 679 -90 q 696 -68 692 -75 l 701 -60 q 715 -39 718 -47 q 713 -37 714 -37 q 710 -35 713 -36 q 706 -33 708 -33 q 704 -31 703 -31 q 689 -42 693 -31 q 684 -51 685 -49 q 682 -57 683 -54 l 672 -101 m 139 15 q 133 25 138 17 q 132 28 129 33 l 132 18 q 132 8 132 15 q 138 -4 132 1 q 146 -6 138 -6 l 143 -6 q 139 14 146 1 l 139 15 m 113 450 q 121 440 113 444 l 110 435 l 110 461 l 118 456 q 113 450 113 453 m 117 403 q 121 404 121 403 l 117 403 m 117 403 l 110 401 l 110 410 l 117 403 m 121 404 q 122 403 122 403 l 121 406 l 121 404 m 122 403 l 129 410 l 129 400 l 122 403 m 126 450 q 122 457 126 453 l 129 463 l 129 435 l 121 442 q 126 450 126 444 m 717 701 q 718 699 717 700 q 720 697 719 696 q 721 699 721 697 q 722 698 721 700 q 725 686 722 696 l 725 699 q 724 706 725 701 q 722 717 722 710 q 721 719 722 719 q 718 720 719 719 q 711 721 717 721 q 712 714 711 718 q 715 704 713 710 l 717 701 m 110 490 l 110 496 q 113 497 111 496 q 117 497 115 497 l 110 490 m 94 494 q 101 494 97 494 q 110 496 104 494 l 110 507 l 96 507 q 92 504 94 506 q 89 501 89 503 q 94 494 89 494 m 129 504 q 135 506 132 506 q 140 507 138 506 l 129 507 l 129 504 m 213 564 q 229 531 222 549 q 247 550 247 531 q 242 564 247 563 l 213 564 m 129 658 l 129 594 l 164 594 l 129 658 m 260 576 q 264 571 263 574 q 267 565 265 568 q 260 564 265 564 l 254 564 l 260 576 m 483 31 l 653 31 q 488 358 569 194 q 325 685 407 521 l 151 685 q 175 640 163 663 q 199 594 188 618 l 260 594 q 274 581 274 594 q 267 565 274 568 q 269 550 269 557 q 261 524 269 535 q 240 508 253 513 l 483 31 m 367 685 l 346 685 q 511 358 429 521 q 676 31 593 194 l 700 31 l 367 685 m 110 594 l 110 685 l 36 685 q 3 672 17 685 q -10 640 -10 660 q 3 608 -10 622 q 36 594 17 594 l 110 594 m 129 564 l 129 531 l 196 531 q 179 564 186 547 l 129 564 z "},"O":{"ha":764,"x_min":21,"x_max":736,"o":"m 381 711 q 519 683 454 711 q 632 608 583 656 q 708 494 681 560 q 736 356 736 429 q 708 217 736 282 q 632 103 681 151 q 519 28 583 56 q 381 0 454 0 q 294 8 338 0 q 290 8 292 7 q 283 8 288 8 q 144 82 204 32 q 50 207 85 132 q 21 354 21 279 q 50 499 21 433 q 143 622 83 571 q 279 697 203 674 q 288 703 283 701 q 294 700 293 706 q 335 709 314 707 q 381 711 357 711 m 303 503 l 303 467 l 393 467 q 408 472 401 467 q 414 486 414 478 q 404 503 414 496 l 303 503 m 247 654 q 249 655 249 654 q 251 656 249 656 q 254 650 254 650 l 247 654 m 272 663 q 251 657 258 660 l 251 656 l 272 656 l 272 663 m 229 657 l 239 650 q 189 621 211 638 q 229 651 203 646 l 229 657 m 176 579 q 189 621 176 601 q 79 486 114 569 q 50 354 50 424 q 79 219 50 283 q 229 63 131 111 l 229 507 q 191 534 206 514 q 176 579 176 554 m 229 617 q 206 579 206 603 q 213 558 206 568 q 229 540 219 547 l 229 617 m 272 399 l 283 393 q 279 386 279 390 q 283 379 279 381 l 272 374 l 272 399 m 303 375 l 290 381 q 293 386 293 383 q 290 392 293 389 l 303 397 l 303 375 m 272 413 q 258 411 268 411 q 254 410 256 411 q 250 413 253 410 l 250 51 q 260 49 254 51 q 272 44 267 47 l 272 325 q 264 343 264 328 q 274 358 264 351 l 272 360 q 257 386 257 367 q 272 411 257 401 l 272 413 m 258 433 q 269 435 264 433 l 272 435 l 272 446 l 261 446 q 253 440 253 446 q 258 433 253 433 m 303 442 q 309 444 306 443 q 315 446 313 444 l 303 446 l 303 442 m 272 503 l 250 503 l 250 464 q 261 467 256 467 l 272 467 l 272 503 m 272 625 l 250 625 l 250 533 l 272 533 l 272 625 m 425 515 q 429 510 428 513 q 432 504 431 507 q 425 503 431 503 l 419 503 l 425 515 m 381 21 q 510 47 449 21 q 616 119 571 74 q 688 225 661 164 q 714 356 714 286 q 688 485 714 424 q 616 591 661 546 q 510 663 571 636 q 381 689 449 689 q 340 686 358 689 q 303 679 322 683 l 303 533 l 425 533 q 440 518 440 533 q 432 504 440 506 q 436 486 436 496 q 424 458 436 469 q 393 446 413 446 l 367 446 l 363 443 l 365 443 q 303 419 329 428 l 303 410 q 315 386 315 403 q 303 361 315 368 l 303 358 q 308 343 308 353 q 303 329 308 335 l 303 32 q 340 24 322 26 q 381 21 358 21 z "},"P":{"ha":643,"x_min":-846,"x_max":619,"o":"m -836 -71 q -846 39 -846 -22 q -834 156 -846 97 q -801 267 -822 214 q -712 412 -769 343 q -585 529 -656 481 q -460 594 -526 569 q -322 626 -393 618 q -265 635 -292 628 q -219 649 -239 642 q -181 665 -196 658 l -182 665 q -166 672 -172 671 q -153 674 -160 674 q -135 667 -142 674 q -130 657 -132 661 q -128 651 -128 653 q -135 631 -128 639 q -160 618 -146 619 q -176 617 -175 617 q -248 614 -212 615 q -319 611 -283 613 q -454 578 -389 601 q -576 518 -519 554 q -701 405 -649 471 q -786 261 -753 339 q -819 155 -810 208 q -829 46 -829 101 q -827 -11 -829 18 q -819 -68 -825 -40 q -761 -224 -801 -149 q -662 -358 -721 -300 q -526 -460 -601 -421 q -371 -517 -451 -500 q -258 -528 -311 -528 q -149 -516 -204 -528 q -42 -483 -93 -504 q 104 -394 39 -447 q 107 -383 104 -386 q 124 -374 111 -371 q 131 -356 124 -365 q 140 -349 133 -353 q 157 -346 147 -346 q 211 -274 189 -311 q 278 -142 253 -211 q 307 0 303 -74 l 114 0 q 99 14 99 0 l 99 386 q 96 394 97 389 q 94 404 94 400 q 99 421 94 413 l 99 424 q 88 449 88 431 q 91 460 88 456 q 99 471 94 465 l 99 474 l 88 474 q 67 481 76 474 q 58 500 58 489 q 69 520 58 511 q 92 529 81 529 l 99 529 l 99 564 l 31 564 q -24 586 -1 564 q -46 642 -46 608 q -24 693 -46 672 q 31 715 -3 714 l 368 715 q 381 711 374 715 q 474 688 431 708 q 550 633 518 668 q 601 554 582 599 q 619 460 619 510 q 601 366 619 410 q 550 288 582 322 q 475 233 518 254 q 383 208 432 211 l 383 14 q 368 0 383 0 l 329 0 q 299 -148 324 -78 q 231 -285 274 -218 q 225 -292 228 -289 q 219 -300 222 -296 q 194 -334 206 -318 q 171 -361 182 -350 q 165 -378 169 -369 q 156 -390 160 -387 q 139 -396 150 -396 q 138 -401 139 -399 q 124 -410 133 -410 l 118 -408 q 47 -462 86 -437 q -32 -501 7 -486 q -141 -535 -85 -524 q -254 -547 -197 -547 q -374 -535 -314 -547 q -538 -476 -461 -515 q -676 -374 -615 -436 q -776 -235 -735 -311 q -836 -71 -817 -158 m 599 460 q 581 544 599 504 q 535 616 564 585 q 467 667 506 647 q 383 689 428 686 l 383 231 q 467 252 428 233 q 536 302 507 271 q 582 374 565 333 q 599 460 599 414 m 353 29 l 353 208 l 331 208 l 331 29 l 353 29 m 353 688 l 331 688 l 331 232 q 336 231 333 231 q 342 232 339 232 q 347 231 346 232 q 353 231 349 231 l 353 688 m 99 593 l 99 688 l 29 688 q -5 671 7 683 q -17 642 -17 658 q -3 607 -17 621 q 31 593 10 593 l 99 593 m 131 564 l 131 529 l 221 529 q 236 535 231 529 q 242 550 242 542 q 233 564 242 560 l 131 564 m 131 507 l 131 504 q 133 506 132 506 q 136 507 135 506 l 131 507 m 131 504 l 131 496 l 124 503 q 126 503 125 503 q 128 504 126 504 l 131 504 m 99 496 l 99 507 l 92 507 q 82 500 82 507 q 88 496 82 496 l 99 496 m 131 439 l 121 446 q 122 449 122 446 q 121 451 122 451 l 131 458 l 131 439 m 107 449 q 111 442 107 446 l 99 436 l 99 460 l 111 454 q 107 449 107 450 m 253 575 q 256 569 254 572 q 258 564 257 567 l 253 564 l 247 564 l 253 575 m 308 29 l 308 208 l 246 208 q 216 215 231 208 q 200 239 201 222 q 201 245 200 240 q 208 256 203 250 q 253 256 224 271 l 258 253 q 269 249 261 251 q 285 242 276 246 q 308 236 293 239 l 308 688 l 131 688 l 131 593 l 253 593 q 268 581 268 593 q 258 564 268 567 q 261 557 260 561 q 263 550 263 553 q 251 519 263 531 q 221 507 240 507 l 199 506 q 195 503 197 504 q 190 501 193 503 q 185 499 186 500 q 181 497 183 499 q 131 482 156 488 l 131 471 q 144 449 144 460 q 131 422 144 431 l 131 418 q 138 404 138 413 q 135 396 138 399 q 131 389 133 393 l 131 29 l 308 29 m 254 231 q 243 235 246 233 q 239 238 240 236 q 226 242 226 242 q 224 240 224 240 l 222 240 l 222 239 q 232 231 222 232 q 246 231 242 231 l 254 231 m -294 628 l -265 628 q -262 628 -262 628 q -258 629 -261 629 l -258 628 l -225 629 q -240 624 -232 626 q -258 619 -249 622 l -258 615 q -269 615 -264 615 q -278 614 -274 614 l -294 614 l -294 628 m -176 651 q -178 650 -176 650 q -195 642 -183 647 q -225 629 -207 636 l -176 632 q -168 633 -172 632 q -149 643 -154 635 q -144 651 -144 644 q -147 660 -144 654 l -153 660 q -172 653 -162 660 l -176 651 z "},"Q":{"ha":775,"x_min":35,"x_max":1436,"o":"m 1432 507 q 1433 503 1433 504 q 1435 499 1433 501 l 1433 500 q 1435 494 1435 497 q 1435 488 1435 490 q 1431 481 1433 485 q 1428 476 1429 478 l 1426 476 q 1428 456 1428 465 q 1429 435 1429 446 q 1406 276 1429 354 q 1338 131 1382 197 q 1229 12 1292 64 q 1092 -72 1167 -40 q 876 -114 989 -114 q 824 -112 850 -114 q 774 -104 797 -110 q 640 -58 707 -89 q 522 19 572 -26 q 460 3 492 8 q 396 -3 428 -3 q 330 3 364 -3 q 267 21 296 10 q 139 101 192 49 q 94 159 114 128 q 58 228 74 190 q 35 358 35 292 q 82 533 35 447 q 90 542 85 542 q 217 669 136 621 q 397 717 297 717 q 537 688 472 717 q 650 611 601 660 q 726 497 699 563 q 754 358 754 432 q 675 133 754 229 q 703 76 694 106 q 711 13 711 47 q 699 1 711 1 q 689 13 689 1 q 681 67 688 42 q 658 117 674 93 q 579 51 622 75 q 571 43 576 44 l 572 44 q 558 35 565 39 q 544 28 551 31 q 655 -43 596 -15 q 778 -83 714 -71 q 830 -91 804 -89 q 881 -93 856 -93 q 982 -83 931 -93 q 1082 -53 1033 -72 q 1217 26 1156 -24 q 1321 142 1278 76 q 1388 282 1365 207 q 1410 435 1410 357 l 1410 476 q 1401 483 1404 476 q 1400 504 1396 494 q 1395 510 1396 507 q 1392 517 1394 513 q 1392 532 1392 521 q 1399 550 1392 543 q 1321 729 1379 649 q 1217 845 1276 796 q 1083 925 1157 894 q 878 967 983 967 q 778 957 825 967 q 670 922 725 946 q 571 867 615 897 q 526 826 550 847 q 482 786 503 806 l 483 786 q 474 778 482 785 q 450 772 465 772 q 431 778 436 772 q 425 786 428 778 l 426 786 q 424 794 424 789 q 425 803 424 799 q 456 824 428 818 l 454 824 q 471 830 463 826 q 489 836 479 833 q 523 853 504 843 q 561 878 542 864 q 774 972 660 946 q 876 981 821 981 q 986 970 931 981 q 1092 940 1042 960 q 1227 858 1164 910 q 1336 739 1290 806 q 1383 652 1363 699 q 1415 554 1404 606 q 1430 540 1425 551 q 1436 522 1435 529 q 1432 507 1436 511 m 535 840 q 511 827 522 833 q 490 818 500 821 l 500 826 l 528 851 l 535 840 m 490 818 q 458 807 464 807 q 447 802 451 804 q 442 797 442 800 q 442 790 439 793 q 443 792 442 792 q 450 789 446 789 q 460 790 458 789 l 472 799 l 471 799 l 490 818 m 535 854 l 543 843 q 535 834 538 838 q 529 833 532 831 q 521 826 525 831 q 511 815 517 821 l 501 826 l 535 854 m 253 397 q 264 384 260 390 q 275 371 268 378 q 305 399 290 386 q 335 428 319 413 q 338 435 336 431 q 339 443 339 440 q 335 458 339 451 l 335 457 q 318 463 329 463 l 253 397 m 294 307 l 294 306 l 294 307 m 292 310 q 285 299 289 303 q 294 317 286 308 l 294 307 q 292 310 292 307 m 329 268 q 326 267 326 267 q 322 265 325 267 q 331 278 325 274 l 331 267 l 329 268 m 281 296 q 279 293 279 294 q 278 292 279 292 q 285 283 282 288 q 293 275 289 279 q 285 299 285 285 q 281 296 282 296 m 508 61 q 511 59 510 60 q 514 57 513 58 q 517 54 517 54 q 519 51 517 54 q 531 56 526 54 q 539 58 535 57 q 448 151 493 106 q 356 244 403 197 q 346 243 353 243 q 336 246 339 243 q 335 247 335 246 q 333 247 335 247 q 322 265 322 257 l 318 265 q 297 271 304 265 q 403 166 350 218 q 510 61 457 114 l 508 61 m 261 308 q 264 311 261 308 q 269 317 267 314 q 275 324 272 321 q 272 328 272 326 q 268 332 271 329 q 256 321 260 324 q 253 319 253 318 q 254 315 254 321 l 261 308 m 238 332 q 239 334 238 333 q 240 336 240 335 q 240 337 242 338 q 240 338 239 336 l 251 347 l 228 371 q 219 363 224 367 q 213 357 215 360 l 238 332 m 111 425 q 108 408 108 419 q 122 376 108 393 q 144 363 131 365 q 171 364 158 360 l 111 425 m 125 444 l 122 442 l 124 447 l 124 446 l 125 444 m 125 444 l 192 381 l 206 394 l 140 460 l 125 444 m 300 300 l 311 301 q 313 290 307 296 q 321 290 317 286 l 319 279 l 300 300 m 349 260 l 350 260 l 350 265 l 349 260 m 336 261 l 347 261 q 349 260 347 260 l 347 254 l 336 261 m 99 500 q 96 494 97 497 q 93 488 94 490 q 91 483 92 485 q 89 479 90 482 q 97 472 94 475 q 106 465 100 469 q 112 472 108 468 q 119 481 115 476 l 99 500 m 81 457 q 65 357 65 404 q 88 239 65 296 q 163 125 114 172 q 217 78 190 97 q 276 50 244 60 q 396 26 340 26 q 444 31 421 26 q 494 42 468 35 q 369 165 432 104 q 244 289 307 226 l 239 294 q 232 303 235 296 l 194 342 q 154 332 175 332 q 100 354 121 332 q 78 408 78 375 q 80 429 78 419 q 89 449 82 439 l 81 457 m 292 357 q 307 389 299 367 l 319 381 q 306 368 313 374 q 292 356 299 363 l 292 357 m 575 72 q 646 133 615 99 q 579 185 619 164 q 494 206 539 206 l 444 204 l 575 72 m 322 485 q 333 483 331 485 q 332 478 333 481 q 329 472 331 475 l 322 471 l 322 485 m 397 693 q 231 651 306 693 q 114 536 157 608 l 231 418 q 271 457 250 438 q 311 496 292 476 q 332 497 321 508 q 333 483 336 493 q 350 472 346 479 l 350 474 q 363 443 363 461 q 346 408 363 431 l 332 394 l 332 393 q 329 386 331 390 q 326 379 328 382 q 319 359 322 368 q 310 340 315 350 q 317 333 314 338 q 325 325 321 329 q 331 320 328 324 q 342 313 335 317 q 343 311 343 313 q 344 306 343 307 q 383 266 364 286 q 421 226 403 246 l 494 226 q 588 206 544 226 q 660 151 632 186 q 733 358 733 238 q 707 489 733 428 q 635 595 681 550 q 528 667 589 640 q 397 693 467 693 z "},"R":{"ha":685,"x_min":-836,"x_max":660,"o":"m -733 117 q -735 118 -733 118 l -733 117 m -717 124 q -719 119 -718 121 q -721 114 -722 115 q -717 124 -718 119 m -450 4 q -575 26 -514 4 q -686 83 -636 47 l -687 82 q -705 87 -697 82 q -715 94 -712 92 l -712 94 q -717 99 -715 96 q -719 104 -718 101 q -721 111 -721 106 l -726 111 l -729 114 q -731 115 -731 115 q -733 117 -732 115 q -736 124 -733 115 q -737 133 -737 126 q -807 242 -782 182 q -836 367 -832 301 l -835 390 q -726 636 -828 535 q -603 717 -674 689 q -457 746 -533 746 q -312 717 -381 746 q -190 635 -243 688 q -87 450 -115 560 q -78 403 -85 425 q -65 367 -72 382 q -50 338 -60 353 q -42 303 -35 317 l -40 303 q -52 290 -44 292 q -62 289 -60 289 q -78 294 -72 289 q -87 308 -85 300 q -92 322 -90 315 q -93 329 -93 329 q -98 387 -96 357 q -103 446 -100 417 q -139 542 -114 496 q -200 624 -164 588 q -319 703 -253 675 q -457 731 -386 731 q -597 703 -529 731 q -712 624 -664 675 q -788 511 -761 575 q -818 379 -815 447 q -793 256 -817 315 q -726 147 -769 196 q -717 149 -721 150 q -703 132 -704 139 q -686 126 -694 135 q -678 116 -683 124 q -672 97 -674 108 q -567 42 -624 61 q -450 24 -511 24 l 101 24 l 101 389 q 94 403 94 394 q 103 418 94 414 l 101 421 q 86 447 86 428 q 101 471 86 458 l 101 472 l 89 472 q 69 481 78 472 q 61 500 61 489 q 71 520 61 513 q 92 528 81 528 l 101 528 l 101 564 l 31 564 q -23 586 -1 564 q -44 640 -44 608 q -23 693 -44 671 q 31 715 -1 715 l 367 715 q 375 711 371 715 q 471 690 426 710 q 549 635 515 669 q 601 555 582 600 q 619 458 619 510 q 576 317 619 381 q 467 225 533 254 q 542 203 507 221 q 603 156 578 185 q 644 91 629 128 q 660 13 660 54 q 649 1 660 1 q 638 13 638 1 q 622 87 638 51 q 581 148 607 122 q 521 189 556 174 q 447 204 486 204 l 381 204 l 381 15 q 367 0 381 0 l 115 0 q 106 3 111 0 l -450 4 m -83 394 l -96 394 l -96 411 l -83 411 l -83 394 m -58 325 l -57 325 l -58 325 m -83 408 q -82 397 -83 401 l -78 357 q -96 407 -90 376 l -83 408 m -58 325 q -66 335 -61 328 q -78 357 -71 343 l -76 331 q -74 324 -75 328 q -72 317 -74 319 q -62 307 -68 307 l -57 307 l -57 308 q -62 328 -56 317 l -58 325 m 597 458 q 581 544 597 504 q 535 616 564 585 q 466 667 506 647 q 381 689 426 686 l 381 226 q 466 248 426 229 q 535 298 506 267 q 581 371 564 329 q 597 458 597 413 m 351 685 l 329 685 l 329 31 l 351 31 l 351 685 m 101 593 l 101 685 l 31 685 q -1 672 13 685 q -14 640 -14 660 q -1 606 -14 619 q 31 593 13 593 l 101 593 m 131 564 l 131 528 l 221 528 q 236 534 231 528 q 242 549 242 540 q 232 564 242 558 l 131 564 m 131 506 l 131 501 q 137 503 133 503 q 143 506 140 504 l 131 506 m 94 494 q 97 495 97 494 q 101 496 97 496 l 101 506 l 92 506 q 83 500 83 506 q 89 494 83 494 l 94 494 m 194 503 q 159 490 175 496 q 131 479 143 483 l 131 472 q 144 447 144 467 q 131 421 144 429 q 135 413 133 418 q 138 403 138 407 q 131 386 138 393 l 131 31 l 308 31 l 308 685 l 131 685 l 131 593 l 253 593 q 268 578 268 593 q 260 564 268 568 q 264 549 264 557 q 252 517 264 529 q 221 506 240 506 l 196 504 l 194 503 m 131 436 l 118 442 q 122 447 122 446 q 118 454 122 450 l 131 460 l 131 436 m 108 447 q 111 442 108 444 l 101 436 l 101 458 l 110 451 q 109 449 110 450 q 108 447 108 449 z "},"S":{"ha":739,"x_min":-262,"x_max":994,"o":"m 929 -112 q 890 -230 917 -172 q 825 -336 863 -287 q 713 -441 776 -396 q 579 -510 650 -486 q 500 -528 542 -522 q 417 -535 458 -535 q 281 -517 344 -535 q 140 -454 206 -497 q 26 -357 75 -411 l -7 -312 l -8 -312 q -15 -312 -11 -312 q -26 -307 -18 -311 q -29 -292 -31 -300 q -43 -283 -37 -289 q -44 -275 -43 -278 l -44 -276 q -48 -262 -47 -269 q -46 -249 -49 -254 q -78 -167 -67 -208 q -96 -83 -90 -125 q -100 -44 -99 -64 q -101 -4 -101 -24 q -100 35 -101 15 q -96 71 -99 54 q -148 96 -122 81 q -190 129 -174 111 l -189 129 q -240 197 -222 157 q -262 282 -258 238 l -261 297 q -241 382 -258 342 q -190 456 -224 422 l -190 454 q -110 508 -157 489 q -14 528 -64 528 l 140 528 q 133 544 135 538 q 125 563 131 551 l 69 563 q 18 585 39 563 q -3 639 -3 607 q 18 692 -3 669 q 69 715 39 715 l 321 715 q 335 704 332 715 q 382 606 358 654 q 431 508 406 558 l 497 508 q 613 546 564 508 q 681 643 661 583 l 681 640 q 682 660 682 651 q 682 679 682 669 q 679 731 682 711 q 674 750 676 750 q 672 790 668 775 q 699 799 681 799 q 717 786 715 799 q 724 763 724 776 q 722 749 724 753 q 715 716 719 732 q 708 685 711 700 q 699 633 708 657 l 699 635 q 626 529 681 571 q 499 488 571 488 l 442 488 q 562 253 503 371 q 681 21 621 136 l 681 15 q 665 0 681 0 l 417 0 q 403 13 403 0 q 353 108 378 61 q 306 203 329 154 l 235 203 q 216 202 226 203 q 196 199 206 201 q 147 129 181 163 q 103 94 128 108 q 54 71 79 79 l 54 68 q 53 65 54 67 q 53 61 53 64 q 51 54 51 58 q 49 47 50 50 l 49 49 q 49 3 46 24 q 56 -33 51 -18 l 56 -32 l 60 -44 q 63 -53 63 -50 q 65 -61 63 -56 q 65 -101 72 -89 q 57 -110 63 -108 q 44 -111 51 -111 q 26 -106 32 -111 q 19 -81 18 -90 q 19 -64 19 -72 l 22 14 q 23 28 22 21 q 25 42 24 35 q 26 47 25 44 q 26 51 26 49 q 29 63 26 57 l 29 65 q 6 61 18 63 q -22 60 -7 60 q -76 65 -54 60 q -81 26 -79 46 q -83 -14 -83 6 q -83 -47 -83 -29 q -79 -81 -82 -65 q -60 -163 -72 -122 q -29 -242 -49 -204 q -15 -250 -22 -244 q -4 -260 -7 -256 l -4 -258 q -1 -276 1 -264 l -1 -281 q 3 -282 1 -281 q 8 -294 8 -287 q 7 -301 8 -300 q 24 -324 17 -312 q 40 -346 32 -335 q 151 -439 88 -399 q 283 -500 214 -479 q 419 -518 350 -518 q 574 -493 496 -518 q 706 -428 644 -469 q 813 -328 767 -386 q 877 -221 850 -282 q 917 -103 904 -160 q 924 -32 919 -68 q 931 39 928 4 q 933 49 932 44 q 936 58 935 54 q 944 74 939 67 q 961 82 950 82 l 967 81 q 969 80 968 81 q 971 79 969 79 q 986 67 979 76 q 976 29 994 57 l 976 31 q 976 29 976 29 q 975 28 975 29 l 975 26 q 953 -23 968 14 q 931 -112 938 -60 l 929 -112 m 44 -71 q 42 -64 44 -72 l 42 -62 q 41 -60 42 -64 q 39 -53 40 -56 q 38 -60 39 -57 q 38 -67 38 -62 l 38 -76 q 42 -87 38 -83 q 47 -90 43 -90 l 46 -92 l 46 -94 q 49 -86 49 -89 q 46 -76 49 -83 q 45 -74 46 -75 q 44 -71 44 -72 m 700 775 l 701 775 l 700 775 m 696 760 l 697 756 q 699 742 697 747 q 699 747 700 746 q 700 753 699 749 q 701 764 701 756 q 701 771 701 768 q 700 775 700 774 l 699 775 q 696 776 697 775 l 700 775 q 697 776 699 776 q 694 778 696 776 q 690 772 693 778 q 696 763 690 772 l 696 760 m 136 142 q 159 166 147 151 q 178 194 171 181 q 109 158 139 183 q 63 93 79 133 q 101 114 82 103 q 135 142 119 125 l 136 142 m 199 439 q 197 438 197 438 q 194 436 196 438 l 196 436 l 199 439 m 194 436 q 192 435 193 436 q 190 433 192 433 q 188 439 188 436 l 194 436 m 147 406 q 142 402 144 403 q 136 399 139 401 q 135 408 135 401 q 138 414 135 411 l 147 406 m 296 225 q 242 328 268 278 q 190 433 217 379 q 175 424 182 426 q 169 424 174 424 q 158 425 165 425 q 171 416 165 422 q 176 404 176 410 q 156 382 176 382 q 136 399 140 382 q 38 313 81 361 q -33 204 -6 265 q -58 148 -47 176 q -74 83 -69 119 q -22 76 -46 76 q 35 83 4 76 q 94 171 53 135 q 188 218 136 207 q 197 247 193 233 q 200 274 200 261 q 199 301 201 289 q 194 325 197 314 q 192 331 192 331 l 188 347 q 186 359 186 354 q 186 369 186 364 q 204 376 193 376 q 214 374 211 376 q 217 372 214 372 q 224 358 224 365 q 224 346 224 350 l 215 272 q 206 224 213 244 q 220 225 213 225 q 235 225 228 225 l 296 225 m 201 351 q 206 340 204 343 l 207 347 l 207 354 q 204 358 207 358 q 203 360 203 360 q 201 360 200 360 q 200 358 201 360 q 204 349 200 357 l 201 351 m 206 340 q 210 336 210 333 q 213 324 213 332 q 214 304 213 315 q 215 299 214 301 q 215 293 215 296 l 201 294 l 206 340 m 156 440 q 163 447 163 440 q 156 454 163 454 q 147 447 147 454 q 156 440 147 440 m 426 32 l 599 32 q 483 258 540 147 q 368 483 426 368 q 290 470 328 479 q 215 444 253 461 l 426 32 m 644 32 q 527 259 586 146 q 410 488 468 372 q 403 487 407 488 q 397 486 400 486 l 390 486 q 506 260 449 372 q 624 32 564 147 l 644 32 m 313 683 l 292 683 q 336 596 314 642 q 381 508 358 550 q 389 509 385 510 q 400 508 393 508 l 313 683 m 92 683 q 116 639 104 660 q 139 593 128 618 l 292 593 q 307 576 307 593 q 300 564 307 567 q 303 547 303 558 q 291 516 303 528 q 260 504 279 504 l 232 503 q 217 495 224 499 q 203 489 210 492 q 198 488 199 488 q 194 486 197 488 q 201 474 197 481 q 207 461 204 468 q 283 491 246 481 q 358 507 321 501 q 314 595 336 553 q 268 683 292 638 l 92 683 m 129 504 q 124 500 124 504 q 129 493 124 493 q 139 494 132 493 q 154 499 146 496 q 151 504 154 499 l 129 504 m 183 508 q 197 513 189 510 q 215 518 203 514 l 218 504 l 185 504 l 183 508 m 108 593 q 85 639 97 615 q 61 683 72 663 q 28 639 28 675 q 40 606 28 619 q 69 593 51 593 l 108 593 m 172 528 l 260 528 q 281 547 281 528 q 278 556 281 551 q 274 563 276 560 l 154 563 l 172 528 m 165 476 q 163 476 164 476 q 161 475 163 475 q 167 472 164 475 q 165 476 165 474 m 161 475 q 149 473 154 474 q 139 471 143 472 q 156 476 147 476 q 161 475 160 476 m 179 449 q 173 460 176 456 q 167 472 169 465 q 180 461 174 468 q 186 447 186 454 q 182 435 186 439 l 171 446 l 172 446 q 179 449 174 446 m -178 142 q -92 88 -140 101 q -76 150 -85 119 q -50 213 -67 181 l -51 213 q 135 422 11 346 q 126 447 126 428 q 139 471 126 463 l 129 471 q 100 500 100 471 q 99 503 100 503 q 100 506 97 503 l -18 506 q -103 489 -61 506 q -175 442 -144 472 q -243 288 -236 381 q -226 208 -240 247 q -179 142 -211 169 l -178 142 m 924 -57 q 931 -32 926 -44 q 940 -8 936 -19 l 936 -57 q 935 -59 936 -58 q 935 -61 935 -60 l 935 -74 l 935 -76 l 932 -83 l 918 -82 q 919 -74 918 -78 q 921 -67 919 -71 l 921 -65 q 922 -61 921 -62 q 922 -57 922 -60 l 924 -57 m 940 -8 q 944 -2 943 -6 q 947 4 944 1 q 953 16 949 7 q 964 36 957 25 q 974 58 976 56 q 964 64 971 61 q 961 65 963 65 q 954 60 957 65 q 949 51 951 56 q 946 36 946 43 l 940 -8 z "},"T":{"ha":640,"x_min":-167,"x_max":894,"o":"m 792 -185 q 791 -183 792 -183 q 790 -182 790 -183 l 790 -185 l 792 -185 m 671 504 q 781 403 732 464 q 857 276 829 343 q 885 187 875 235 q 894 92 894 139 q 883 -14 894 39 q 868 -78 878 -46 q 846 -140 858 -111 q 846 -155 847 -147 q 840 -168 844 -162 q 834 -173 838 -171 q 826 -176 831 -175 l 826 -182 q 808 -196 822 -196 l 806 -194 q 776 -237 792 -218 q 747 -271 761 -257 l 747 -269 q 628 -357 696 -322 q 489 -408 561 -392 q 441 -416 465 -414 q 392 -418 417 -418 q 293 -408 343 -418 q 200 -379 243 -399 q 76 -302 136 -351 q -25 -192 15 -253 q -80 -83 -60 -143 q -107 36 -100 -24 q -129 126 -114 89 q -151 176 -144 164 l -151 175 q -162 214 -167 200 q -146 228 -160 224 q -143 228 -144 228 q -140 229 -142 229 q -136 231 -139 229 q -117 223 -124 231 q -108 206 -111 215 q -103 190 -104 197 q -103 182 -103 182 q -97 110 -100 146 q -92 38 -94 74 q -67 -79 -86 -24 q -14 -183 -47 -135 q 83 -290 26 -244 q 207 -364 140 -336 q 390 -401 294 -401 q 486 -392 442 -401 q 619 -343 557 -376 q 733 -257 681 -310 q 790 -186 769 -219 q 789 -176 789 -183 q 801 -161 789 -164 q 801 -153 801 -158 q 803 -146 801 -149 q 813 -136 806 -143 q 828 -126 821 -129 q 865 -10 854 -72 q 873 38 871 14 q 875 85 875 61 q 838 268 875 181 q 763 391 810 335 q 658 486 717 447 q 597 520 631 504 q 532 546 564 536 l 532 15 q 517 0 532 0 l 265 0 q 250 15 250 0 l 250 389 q 243 403 243 394 q 251 419 243 415 l 250 421 q 236 446 236 429 q 250 471 236 464 l 250 472 q 238 471 246 471 q 210 500 210 471 q 219 520 210 511 q 242 529 228 529 l 250 529 l 250 564 l 181 564 q 128 585 149 564 q 107 639 107 607 q 128 693 107 671 q 185 715 149 715 l 754 715 q 771 700 771 715 q 754 686 771 686 l 532 686 l 532 569 q 603 542 567 558 q 671 504 639 526 m 503 686 l 476 686 l 476 581 q 489 579 481 581 q 503 576 497 578 l 503 686 m 281 686 l 281 593 l 403 593 q 414 588 413 593 q 456 583 436 588 l 456 686 l 281 686 m 250 593 l 250 686 l 181 686 q 147 673 160 686 q 133 639 133 660 q 147 606 133 619 q 181 593 160 593 l 250 593 m 281 564 l 281 529 l 374 529 q 392 547 392 529 q 386 564 392 560 l 281 564 m 281 503 q 290 506 282 503 l 281 506 l 281 503 m 290 506 q 296 508 293 507 q 301 510 299 508 l 326 518 l 329 504 l 290 506 m 238 492 q 249 494 240 492 l 250 494 l 250 506 l 242 506 q 232 500 232 506 q 238 492 232 492 m 281 436 l 271 443 q 272 446 272 443 q 271 451 272 451 l 281 458 l 281 436 m 257 446 q 261 440 257 442 l 250 435 l 250 460 l 261 454 q 257 446 257 451 m 281 32 l 456 32 l 456 564 q 434 565 446 564 q 413 565 422 565 l 410 564 q 413 556 411 561 q 414 547 414 550 q 403 518 414 531 q 374 506 393 506 l 350 506 l 346 501 q 310 489 326 494 q 281 478 294 483 l 281 471 q 294 446 294 463 q 281 421 294 429 l 281 419 q 285 411 283 417 q 288 403 288 406 q 286 394 288 399 q 281 388 285 390 l 281 32 m 503 556 q 490 559 493 558 q 476 561 488 560 l 476 32 l 503 32 l 503 556 m -139 182 q -131 167 -135 175 q -122 151 -126 158 q -117 147 -117 140 q -116 142 -117 144 q -115 138 -115 140 q -117 160 -117 149 q -118 182 -117 171 q -119 188 -118 182 q -122 199 -119 193 q -127 210 -124 206 q -137 215 -131 215 q -141 215 -139 215 q -149 211 -143 214 q -147 208 -144 211 q -139 183 -150 199 l -139 182 z "},"U":{"ha":768,"x_min":-279,"x_max":924,"o":"m 893 -26 q 900 -29 897 -26 q 911 -33 904 -29 q 921 -43 918 -36 q 904 -82 924 -61 q 879 -119 892 -99 q 857 -160 868 -136 q 836 -214 846 -185 q 789 -329 821 -275 q 715 -432 757 -383 q 590 -532 658 -490 q 442 -597 521 -574 q 293 -617 368 -617 q 121 -590 201 -617 l 122 -590 q -24 -522 43 -569 q -144 -412 -92 -475 q -208 -320 -182 -369 q -251 -215 -235 -271 q -265 -205 -258 -212 q -272 -190 -271 -197 q -271 -169 -275 -181 q -273 -168 -272 -168 q -275 -167 -274 -168 q -276 -162 -275 -165 q -276 -156 -276 -160 q -269 -146 -276 -150 l -271 -143 l -271 -144 q -272 -139 -272 -142 q -274 -133 -272 -136 q -275 -125 -275 -129 q -279 -51 -279 -90 q -265 74 -279 13 q -225 194 -251 136 q -138 330 -193 267 q -14 438 -83 393 q -1 444 -8 440 q 8 451 6 449 l 10 451 l 21 457 l 21 700 q 38 715 21 715 l 293 715 q 308 700 308 715 l 308 592 l 431 592 q 447 578 447 592 q 438 564 447 565 q 442 547 442 557 q 430 517 442 528 q 403 506 418 506 l 381 506 q 372 501 378 503 q 365 499 368 500 q 357 496 361 497 l 358 496 q 331 485 343 489 q 308 476 319 481 l 308 469 q 322 446 322 465 q 308 419 322 428 l 308 418 q 315 401 315 414 q 308 385 315 389 l 308 32 q 386 22 346 22 q 517 49 456 22 q 623 120 578 75 q 694 226 668 165 q 721 357 721 288 l 721 583 q 716 628 719 607 q 707 665 713 650 q 700 685 703 675 q 694 697 697 694 q 689 707 692 703 q 685 714 686 711 q 682 719 682 718 q 692 735 688 729 q 700 744 696 742 q 711 746 703 746 q 732 739 718 746 q 742 716 740 729 q 743 700 743 703 l 743 357 q 715 217 743 282 q 639 104 688 153 q 525 28 590 56 q 386 0 460 0 q 342 3 363 0 q 303 10 322 7 q 296 8 300 8 q 289 8 292 8 q 181 59 231 25 q 97 139 132 93 q 41 240 61 185 q 21 357 21 296 l 21 436 q 10 430 15 433 q -1 419 6 426 q -122 317 -71 376 q -206 188 -174 258 q -260 -51 -260 71 q -256 -118 -260 -85 q -253 -131 -256 -122 q -252 -136 -251 -133 q -251 -142 -253 -139 q -244 -149 -246 -144 l -244 -147 q -240 -156 -240 -153 q -242 -164 -239 -158 q -232 -178 -235 -168 q -235 -208 -226 -190 q -192 -312 -219 -261 q -131 -403 -165 -362 q -15 -508 -79 -464 q 126 -575 49 -551 q 290 -601 206 -601 q 436 -581 363 -601 q 582 -521 515 -561 q 704 -421 649 -481 q 776 -322 744 -376 q 824 -208 807 -268 l 856 -68 q 864 -50 858 -58 l 863 -50 q 873 -34 865 -42 q 893 -26 881 -26 m 715 704 q 721 689 717 693 l 721 710 q 718 715 719 713 q 715 721 717 718 l 713 724 l 711 724 l 708 721 q 714 706 707 719 l 715 704 m 721 646 l 721 689 q 727 668 724 678 q 733 647 731 658 l 721 646 m 265 503 q 260 497 260 500 q 267 492 260 492 l 278 492 l 278 506 q 272 504 276 506 q 267 503 268 503 l 265 503 m 278 564 l 257 564 l 257 526 l 278 526 l 278 564 m 235 503 q 54 451 138 492 l 54 357 q 67 267 54 311 q 104 183 81 222 q 161 113 128 144 q 235 60 194 81 l 235 503 m 278 457 l 290 453 q 288 447 288 447 l 286 446 q 288 443 286 443 l 278 436 l 278 457 m 301 446 q 297 451 301 449 l 308 457 l 308 435 l 299 442 q 301 446 301 444 m 278 469 q 275 468 276 468 q 272 467 274 468 q 267 468 272 468 q 257 469 261 468 l 257 51 q 265 49 260 50 q 274 47 269 49 q 278 46 275 46 l 278 386 q 271 401 271 390 q 273 411 271 408 q 278 417 275 414 l 278 419 q 264 446 264 428 q 278 468 264 463 l 278 469 m 308 500 q 322 506 311 500 l 308 506 l 308 500 m 308 564 l 308 526 l 403 526 q 415 533 411 526 q 419 547 419 539 q 414 564 419 558 l 308 564 m 278 685 l 257 685 l 257 592 l 278 592 l 278 685 m 210 685 q 176 672 190 685 q 161 639 161 658 q 176 606 161 619 q 210 592 190 592 l 235 592 l 235 685 l 210 685 m 54 685 l 54 472 q 143 506 96 493 q 235 524 190 519 l 235 564 l 210 564 q 155 585 178 564 q 132 639 132 607 q 149 685 132 661 l 54 685 m 846 -183 l 832 -183 l 832 -178 l 846 -178 l 846 -183 m 829 -183 q 844 -151 836 -165 q 858 -122 851 -136 l 847 -174 q 846 -180 847 -176 q 842 -189 844 -183 l 829 -183 m 893 -71 q 901 -43 910 -57 q 897 -46 901 -47 q 893 -44 896 -44 l 892 -43 q 876 -57 881 -43 q 871 -72 871 -71 l 858 -122 q 877 -94 869 -106 q 889 -78 885 -83 q 890 -75 889 -76 q 890 -72 890 -74 q 892 -71 890 -71 l 893 -71 z "},"V":{"ha":668,"x_min":-237,"x_max":694,"o":"m 636 293 q 636 294 639 288 l 636 293 m 636 350 q 660 300 651 325 l 660 301 q 686 216 678 261 q 694 126 694 171 q 692 78 694 103 q 685 32 690 54 q 643 -85 674 -26 q 576 -187 613 -143 q 565 -215 576 -204 q 550 -221 560 -221 l 549 -221 q 547 -228 549 -225 q 531 -237 543 -237 q 525 -236 528 -237 q 317 -335 433 -310 q 229 -343 272 -343 q 138 -333 185 -343 q 50 -307 92 -324 q -67 -235 -14 -282 q -157 -136 -121 -189 q -216 -12 -194 -78 q -236 124 -237 54 l -222 124 q -201 -7 -222 57 q -144 -128 -181 -71 q -57 -222 -108 -179 q 57 -289 -6 -265 q 224 -324 139 -324 q 267 -321 244 -324 q 313 -314 290 -318 q 417 -274 361 -300 q 513 -218 474 -249 l 513 -211 q 531 -203 521 -201 q 530 -201 532 -201 q 529 -201 528 -201 q 535 -185 528 -192 q 545 -177 538 -182 q 560 -171 553 -172 q 624 -74 597 -125 q 661 36 650 -24 q 669 122 669 78 q 636 292 669 210 l 636 29 q 638 27 638 28 q 639 25 638 26 q 642 14 642 22 q 625 0 642 0 l 375 0 q 364 8 369 0 q 244 243 304 124 q 124 478 183 363 q 101 472 111 474 q 82 471 92 471 q 63 479 71 471 q 56 499 56 488 q 65 522 56 514 q 85 529 74 529 l 100 529 q 90 547 94 539 q 79 564 85 556 l 26 564 q -28 585 -7 564 q -50 639 -50 607 q -28 693 -50 671 q 29 715 -7 715 l 276 715 q 292 706 288 715 l 290 706 l 357 574 q 424 549 393 563 q 488 513 456 535 q 613 383 564 460 l 613 578 q 608 622 611 601 q 599 658 604 643 q 592 674 596 665 q 586 690 589 683 l 588 690 q 583 728 575 713 l 582 726 q 588 733 585 732 q 596 738 592 735 q 604 739 599 739 q 625 732 618 739 q 635 716 633 724 q 636 699 636 708 l 636 350 m 613 704 q 608 717 613 710 l 608 715 q 604 718 606 718 q 600 715 603 717 l 600 714 q 599 711 599 711 q 606 701 599 711 q 606 704 606 701 q 607 708 607 707 q 608 706 607 710 q 613 689 610 703 l 613 704 m 269 683 l 249 683 l 296 588 q 309 585 303 586 q 322 583 315 583 l 269 683 m 54 683 q 77 639 65 661 q 100 593 89 617 l 225 593 l 250 592 q 262 592 256 592 q 274 590 268 592 q 249 637 263 614 q 224 683 236 660 l 54 683 m 236 549 q 226 564 236 560 l 115 564 q 124 547 119 556 q 133 529 129 539 l 215 529 q 230 535 224 529 q 236 549 236 540 m 143 510 q 147 510 144 510 q 150 511 149 511 l 150 510 q 167 519 161 515 l 171 507 l 144 507 l 143 510 m 64 593 q 41 638 53 617 q 18 683 29 660 q -10 669 1 682 q -21 639 -21 657 q -8 606 -21 619 q 26 593 6 593 l 64 593 m 82 493 q 97 494 88 493 q 114 499 106 496 q 112 503 113 501 q 110 507 111 504 l 85 507 q 76 499 76 507 q 82 493 76 493 m 256 563 q 253 563 253 563 q 256 564 253 564 l 256 563 m 385 31 l 556 31 q 422 295 489 165 q 288 560 354 425 q 256 563 269 560 q 258 549 258 554 q 247 518 258 529 q 215 507 235 507 l 186 504 l 189 506 q 167 494 175 499 q 151 486 158 489 l 385 31 m 600 31 q 468 290 533 161 q 338 549 403 418 q 325 554 332 551 q 313 557 318 557 q 445 293 379 424 q 578 31 511 163 l 600 31 m 613 336 q 471 489 563 429 q 424 517 449 504 q 374 539 400 529 q 493 304 435 418 q 613 68 551 190 l 613 336 z "},"W":{"ha":1025,"x_min":-42,"x_max":1863,"o":"m 1796 617 q 1793 604 1796 607 q 1820 547 1808 576 q 1840 490 1832 518 q 1857 403 1851 447 q 1863 315 1863 360 q 1853 210 1863 265 q 1831 107 1844 156 q 1744 -64 1801 15 q 1613 -204 1688 -143 q 1443 -297 1538 -262 q 1253 -340 1349 -332 q 1227 -342 1240 -342 q 1201 -343 1214 -343 q 1039 -320 1121 -343 q 883 -257 957 -297 q 736 -146 801 -211 q 626 0 671 -81 l 381 0 q 371 4 372 0 l 129 481 q 90 475 107 475 q 63 503 63 475 q 72 523 63 515 q 92 531 81 531 l 100 531 q 92 547 96 540 q 85 564 89 554 l 33 564 q -20 586 1 564 q -42 640 -42 608 q -20 694 -42 672 q 33 715 1 715 l 285 715 q 297 707 293 715 q 458 388 379 542 q 619 69 538 235 l 619 201 q 495 447 557 325 q 371 693 433 569 l 371 692 q 372 708 364 703 q 383 715 376 715 l 632 715 q 644 707 639 715 q 808 385 726 547 q 974 61 890 222 l 974 581 q 968 624 972 603 q 958 660 964 644 q 951 679 954 669 q 946 692 949 689 q 940 726 935 714 q 952 738 944 736 q 964 740 960 740 q 974 739 968 740 q 985 733 979 738 q 993 715 992 724 q 994 700 994 707 l 994 21 l 996 15 q 981 0 996 0 l 728 0 q 718 4 719 0 l 642 156 l 642 35 q 646 35 642 35 q 751 -120 688 -53 q 896 -233 815 -187 q 1044 -295 967 -274 q 1204 -317 1121 -317 q 1227 -317 1215 -317 q 1251 -315 1239 -317 q 1434 -275 1346 -308 q 1596 -185 1522 -242 q 1725 -51 1672 -128 q 1808 117 1778 26 q 1834 216 1826 165 q 1842 318 1842 267 q 1837 402 1842 358 q 1821 486 1832 446 q 1801 545 1811 518 q 1776 596 1790 572 q 1767 599 1769 596 q 1758 617 1756 607 q 1747 628 1750 621 q 1744 657 1738 639 q 1719 692 1735 674 q 1688 730 1704 711 q 1654 766 1671 749 q 1625 797 1638 783 q 1467 895 1556 856 q 1283 947 1379 935 q 1242 951 1263 950 q 1201 953 1221 953 q 1084 941 1143 953 q 968 907 1025 929 q 903 876 936 892 q 839 846 871 861 q 834 842 836 843 q 829 840 832 842 q 819 838 824 839 q 808 838 815 838 q 781 856 789 838 l 782 856 q 780 866 781 858 q 783 882 779 874 q 821 892 797 899 l 826 892 q 879 897 842 892 q 963 921 917 901 q 1204 968 1081 968 q 1245 967 1224 968 q 1286 963 1267 965 q 1473 910 1382 949 q 1636 811 1564 872 q 1703 742 1671 779 q 1760 668 1736 706 q 1775 658 1767 665 q 1786 646 1783 650 q 1786 635 1789 642 q 1785 629 1786 631 q 1793 625 1790 626 l 1796 617 m 869 878 q 844 876 856 876 q 826 876 833 876 l 813 876 q 794 871 803 876 l 794 864 l 792 867 q 808 853 797 853 q 819 855 814 853 q 831 860 824 857 q 828 860 825 857 l 869 878 m 961 701 l 958 704 l 961 701 m 974 696 l 974 697 q 973 699 974 699 q 972 701 972 699 q 969 715 969 713 q 968 718 968 717 l 960 718 q 960 717 961 718 q 964 700 960 708 l 961 701 q 974 681 967 696 l 974 696 m 407 685 q 462 578 436 629 q 513 475 488 526 q 565 372 539 424 q 619 264 592 319 l 619 608 q 601 647 613 626 q 582 685 590 668 l 407 685 m 915 31 q 778 299 843 169 q 642 568 713 428 l 642 222 q 670 167 657 194 q 699 111 683 139 l 736 31 l 915 31 m 642 650 l 642 614 q 788 322 717 467 q 935 31 860 178 l 954 31 l 642 650 m 607 685 q 613 674 611 676 q 619 661 614 672 l 619 685 l 607 685 m 118 564 q 127 549 124 556 q 136 531 131 542 l 222 531 q 243 550 243 531 q 238 564 243 563 l 118 564 m 149 511 q 151 513 150 511 q 153 514 151 514 q 165 518 160 517 q 176 522 169 519 l 179 508 l 149 508 l 149 511 m 72 594 q 49 640 61 618 q 26 685 38 661 q -1 669 10 682 q -12 640 -12 657 q 0 608 -12 621 q 33 594 13 594 l 72 594 m 90 496 q 101 497 93 496 q 119 501 110 499 q 116 505 117 504 q 114 508 115 506 l 92 508 q 85 503 85 508 q 90 496 85 496 m 390 31 l 565 31 q 400 358 482 194 q 235 685 318 521 l 58 685 q 81 640 69 663 q 104 594 93 618 l 254 594 q 268 581 268 594 q 261 565 268 569 q 265 550 265 558 q 253 519 265 531 q 222 508 242 508 l 197 506 l 193 504 l 196 504 q 176 497 185 500 q 157 490 168 493 l 390 31 m 608 31 l 275 685 l 256 685 q 422 358 339 519 q 589 31 506 196 l 608 31 z "},"X":{"ha":669,"x_min":-936,"x_max":646,"o":"m 640 25 q 646 15 646 22 q 629 0 646 0 l 379 0 q 368 10 368 0 q 308 128 336 72 q 247 247 279 185 q 172 128 210 188 q 96 11 133 69 l 94 8 l 94 10 q -10 -112 53 -60 q -149 -197 -74 -165 q -201 -217 -174 -208 q -257 -235 -229 -226 q -269 -245 -261 -242 q -283 -250 -278 -249 q -287 -251 -285 -250 q -290 -251 -289 -251 q -303 -247 -299 -251 q -306 -249 -304 -247 q -317 -251 -311 -251 q -329 -243 -328 -251 q -351 -245 -340 -244 q -374 -246 -362 -246 q -424 -243 -400 -246 q -474 -237 -449 -240 q -628 -185 -554 -222 q -762 -90 -703 -149 l -761 -90 q -865 41 -824 -32 q -924 193 -906 114 q -936 317 -936 253 q -928 420 -936 369 q -900 519 -919 471 q -817 662 -867 597 q -697 774 -767 726 q -390 875 -558 872 q -261 865 -322 878 q -142 825 -200 851 q -81 797 -108 806 q -31 783 -53 788 q -9 779 -19 781 q 11 776 1 778 q 49 763 39 776 q 51 749 51 757 q 49 736 51 739 l 49 738 q 24 725 42 725 q -11 735 3 725 l -10 735 q -72 770 -40 753 q -135 806 -104 788 l -135 804 q -260 849 -197 833 q -390 863 -324 864 q -547 835 -472 860 q -687 763 -621 810 q -802 653 -753 718 q -883 513 -851 588 q -910 416 -900 467 q -921 318 -921 365 q -906 197 -921 261 q -847 50 -886 121 q -750 -75 -808 -21 q -619 -168 -692 -133 q -469 -217 -547 -203 q -379 -225 -424 -225 q -356 -225 -368 -225 q -331 -222 -343 -225 l -326 -217 q -306 -215 -315 -211 q -301 -210 -303 -212 q -296 -207 -299 -208 l -286 -207 q -276 -208 -283 -207 q -262 -211 -268 -208 q -209 -197 -236 -204 q -157 -178 -182 -189 q -23 -92 -86 -144 q 81 28 40 -39 l 236 268 q 183 372 208 321 q 129 475 157 422 q 94 471 113 471 q 76 478 83 471 q 68 500 68 485 q 78 520 68 513 q 97 528 88 528 l 104 528 q 95 546 100 538 q 85 564 90 554 l 39 564 q -15 585 7 564 q -36 639 -36 607 q -17 690 -36 669 q 32 714 3 710 q 39 715 33 715 l 285 715 q 296 703 296 715 q 343 609 321 654 q 389 515 365 564 q 419 564 404 539 q 450 611 435 589 q 469 650 461 631 q 481 685 476 669 q 484 698 483 690 q 486 714 485 706 q 493 740 486 733 q 508 749 500 747 q 532 743 518 749 q 539 728 533 742 q 535 703 540 714 q 529 690 531 692 l 521 679 l 521 681 q 493 637 507 660 q 465 592 479 614 q 433 542 450 567 q 401 492 417 518 l 640 25 m 507 713 q 507 707 507 711 q 506 694 507 703 l 506 693 q 508 698 507 696 q 511 703 510 700 l 517 714 l 515 714 l 518 722 l 514 726 l 515 726 l 513 726 q 511 728 511 726 q 508 723 508 728 q 507 713 507 718 m 11 776 q 46 764 39 776 q 49 756 50 760 q 49 744 49 751 q 47 742 47 742 q 24 725 38 725 q 1 731 11 725 l -10 736 l -8 736 q -60 765 -33 751 q -112 794 -86 779 l -107 807 q -59 789 -81 794 q -22 781 -37 783 q 11 776 -6 776 m 275 685 l 254 685 q 308 579 281 631 q 363 471 335 528 q 367 478 365 474 q 372 486 369 483 l 275 685 m 71 592 q 48 637 60 615 q 25 682 36 658 q -6 639 -6 674 q 7 606 -6 619 q 39 592 19 592 l 71 592 m 117 564 q 126 547 119 558 q 135 528 132 535 l 229 528 q 249 547 249 528 q 240 564 249 557 l 117 564 m 149 506 q 158 509 158 510 q 160 510 157 508 q 173 515 164 511 q 188 522 182 519 q 195 524 194 525 q 183 518 196 524 l 185 506 l 149 506 m 94 492 q 119 496 104 492 q 115 500 117 499 q 113 506 114 501 l 97 506 q 89 500 89 506 q 94 492 89 492 m 260 575 q 264 569 263 572 q 267 564 265 567 l 260 564 l 254 564 l 260 575 m 253 299 q 301 376 278 339 q 350 453 325 413 q 292 569 319 511 q 233 685 264 626 l 58 685 q 81 639 71 661 q 103 592 90 617 l 260 592 q 275 576 275 592 q 267 564 275 565 q 271 547 271 557 q 260 518 271 531 q 229 506 249 506 l 203 503 l 199 501 l 201 501 q 190 497 193 499 q 176 491 183 494 q 160 485 169 488 l 253 299 m 389 28 l 565 28 q 464 227 514 129 q 363 428 414 325 q 313 351 338 388 q 264 274 288 314 l 389 28 m 607 28 q 496 246 550 140 q 385 464 442 351 q 380 457 382 461 q 375 450 378 453 q 481 238 428 343 q 588 28 533 133 l 607 28 m 154 449 q 145 427 154 436 q 124 418 136 418 q 102 427 111 418 q 93 449 93 436 q 102 467 93 460 q 124 475 111 475 q 145 467 136 475 q 154 449 154 460 m 124 442 q 132 449 132 442 q 124 454 132 454 q 115 449 115 454 q 124 442 115 442 m 100 403 q 124 425 100 425 q 146 403 146 425 q 124 382 146 382 q 100 403 100 382 z "},"Y":{"ha":703,"x_min":-190,"x_max":1025,"o":"m 104 422 q 74 450 74 422 q 81 469 74 460 q 104 478 89 478 q 123 469 115 478 q 131 450 131 460 q 104 422 131 422 m 104 454 q 94 450 94 454 q 104 442 94 442 q 110 450 110 442 q 104 454 110 454 m 999 51 q 1008 50 1003 51 q 1018 42 1014 49 q 1022 19 1025 31 q 1011 -3 1018 8 q 1003 -21 1008 -10 q 994 -43 999 -32 q 981 -87 988 -62 q 971 -144 974 -112 q 940 -273 963 -211 q 879 -389 917 -335 q 765 -515 831 -460 q 621 -604 700 -571 q 392 -649 511 -649 q 338 -647 364 -649 q 285 -639 311 -644 q 126 -581 201 -621 q -10 -478 51 -540 q -111 -342 -69 -418 q -168 -183 -153 -267 q -177 -132 -175 -158 q -179 -78 -179 -106 l -182 -78 l -189 -71 l -189 -57 q -185 -51 -187 -54 q -189 -50 -187 -51 q -190 -46 -189 -49 q -190 -42 -190 -43 q -190 -36 -190 -39 q -189 -31 -190 -33 q -184 -17 -187 -25 q -176 -6 -181 -10 q -162 77 -172 38 q -137 153 -153 117 q -48 297 -103 231 q 78 411 7 364 q 83 418 79 414 q 101 426 89 426 q 111 433 106 429 q 124 439 117 436 q 135 444 129 440 q 117 479 126 465 q 75 471 93 471 q 56 480 65 471 q 47 500 47 489 q 56 522 47 513 q 76 531 65 531 l 96 531 q 85 547 90 539 q 76 564 81 554 l 18 564 q -35 586 -14 564 q -57 640 -57 608 q -35 693 -57 671 q 18 715 -14 715 l 272 715 q 285 704 285 715 q 335 607 311 654 q 383 510 358 560 l 458 510 q 523 522 492 510 q 579 557 554 535 q 622 608 604 579 q 647 669 640 638 q 644 747 651 714 q 633 779 636 779 q 628 803 629 793 q 633 824 628 814 q 644 830 639 829 q 656 831 649 831 q 674 825 668 831 q 680 811 679 817 q 681 803 681 806 q 681 799 681 800 q 682 796 682 799 q 683 788 682 792 l 672 692 q 653 613 669 650 q 608 548 636 576 q 541 503 579 519 q 460 488 503 488 l 396 488 q 515 256 456 372 q 635 24 575 139 q 638 18 635 22 q 619 0 638 0 l 369 0 q 360 4 364 0 l 144 429 q 135 424 138 426 q 129 421 132 422 q 125 419 125 418 q 122 417 125 419 q 123 411 122 414 q 124 406 124 408 q 104 383 124 383 q 83 390 88 383 q -35 282 18 346 q -118 146 -87 218 q -158 -6 -150 71 q -155 -12 -157 -8 q -151 -19 -153 -17 l -151 -18 q -150 -26 -150 -21 q -150 -36 -150 -32 q -157 -51 -150 -47 q -154 -72 -149 -57 q -157 -76 -156 -75 q -160 -78 -158 -76 q -151 -181 -160 -133 q -96 -333 -136 -258 q 3 -465 -56 -407 l 1 -465 q 135 -564 61 -524 q 288 -621 208 -604 q 343 -629 315 -626 q 397 -632 371 -632 q 506 -622 451 -632 q 613 -589 561 -611 q 753 -503 689 -557 q 867 -381 818 -449 q 924 -266 900 -329 q 956 -140 947 -203 q 960 -68 958 -104 q 965 4 963 -32 q 966 18 965 13 q 968 29 967 24 q 976 44 971 38 q 997 51 982 51 l 999 51 m 653 808 l 653 810 l 653 808 m 653 796 l 653 794 l 654 793 l 653 796 m 651 806 q 653 794 650 804 q 656 787 654 793 q 660 772 657 781 q 660 778 660 775 q 661 785 661 782 q 663 794 663 788 q 656 807 663 800 q 653 808 653 808 q 651 806 651 808 m 378 31 l 553 31 q 437 257 493 146 q 322 483 381 368 q 169 440 240 472 l 378 31 m 364 486 q 346 485 360 485 l 343 485 q 458 258 401 371 q 574 31 515 144 l 599 31 l 364 486 m 261 685 l 240 685 q 288 595 264 639 q 335 506 311 551 q 347 507 339 507 q 351 506 351 507 q 356 507 351 506 l 261 685 m 60 594 q 38 640 49 617 q 15 685 26 663 q -16 672 -4 683 q -28 640 -28 660 q -15 608 -28 621 q 18 594 -1 594 l 60 594 m 125 531 l 207 531 q 222 536 215 531 q 228 550 228 542 q 224 558 228 554 q 218 564 221 561 l 106 564 l 125 531 m 126 506 l 132 515 q 133 513 133 513 q 135 511 133 514 q 142 514 139 514 q 149 515 146 514 q 156 517 151 517 q 163 519 160 518 l 164 506 l 126 506 m 75 493 q 107 500 88 493 q 106 503 106 503 q 104 506 106 503 l 76 506 q 69 500 69 506 q 75 493 69 493 m 161 461 q 311 504 235 492 q 264 594 288 550 q 217 685 240 639 l 47 685 q 69 641 58 664 q 92 594 81 618 l 238 594 q 254 576 254 594 q 246 564 254 568 q 249 550 249 560 q 236 518 249 531 q 207 506 224 506 l 182 503 q 170 499 176 500 q 160 496 164 499 l 144 490 l 161 461 m 103 406 q 105 407 103 408 q 104 406 107 406 q 97 403 101 403 l 103 410 q 101 406 103 408 l 103 406 m 958 -114 q 978 -40 965 -71 l 972 -107 l 972 -115 l 958 -114 m 999 6 q 1006 21 1004 13 q 1008 33 1008 29 l 1011 33 q 1002 37 1004 36 q 997 38 1000 38 q 989 33 992 38 q 983 21 986 28 l 983 22 q 981 4 981 11 l 978 -40 q 979 -34 978 -37 q 982 -28 981 -31 q 989 -13 985 -22 q 999 4 993 -4 l 999 6 z "},"Z":{"ha":692,"x_min":-818,"x_max":1207,"o":"m -719 85 l -719 83 l -719 85 m 235 431 q 233 431 233 431 l 235 431 m 1063 322 q 1141 283 1104 313 q 1193 213 1178 254 q 1203 178 1200 197 q 1207 143 1207 160 q 1199 90 1207 117 q 1175 42 1190 64 q 1112 -17 1153 6 q 1025 -39 1071 -40 q 256 -40 639 -39 q -512 -42 -126 -42 q -622 -16 -571 -39 q -712 44 -672 7 l -711 44 q -714 47 -714 46 q -717 49 -714 47 q -719 48 -718 49 q -722 47 -721 47 q -739 60 -733 47 l -739 64 q -736 65 -737 64 l -737 65 q -739 64 -739 64 l -739 65 q -757 74 -753 65 q -763 88 -760 78 q -765 106 -767 99 q -811 239 -803 168 q -803 348 -818 292 q -760 451 -789 404 q -681 528 -728 494 q -582 576 -635 561 q -496 589 -543 589 q -429 582 -462 589 q -367 564 -396 575 q -275 500 -314 539 l -199 425 l 88 139 q 141 244 114 192 q 194 350 168 296 q 193 357 193 351 q 193 365 193 361 q 196 372 193 369 q 210 382 200 381 q 206 397 207 389 q 207 413 204 406 q 229 431 218 428 q 221 436 224 433 l 222 436 q 208 453 211 442 q 210 472 204 464 q 236 488 218 488 q 251 482 246 488 l 247 483 q 253 481 251 482 q 258 478 254 479 q 267 494 263 486 q 275 510 271 501 q 265 515 269 513 q 256 521 261 518 q 217 563 228 536 q 222 622 207 590 q 266 662 236 654 q 325 657 296 669 l 344 646 q 356 669 351 660 q 368 692 361 678 q 355 692 363 692 q 342 693 347 693 q 167 644 247 693 q 43 511 86 594 l 44 511 q 22 441 25 471 q 19 410 19 411 q 11 378 19 383 l 13 378 q -6 371 6 371 q -12 372 -10 371 q -21 375 -15 372 l -19 375 q -29 382 -25 378 q -35 392 -33 386 l -35 390 q -32 418 -40 403 l -32 417 l -26 428 l -26 426 q 2 479 -12 453 q 31 533 17 506 q 162 667 78 618 q 342 715 246 715 q 482 686 417 715 q 599 604 547 657 l 599 606 q 601 602 600 604 q 604 599 603 600 l 603 590 l 315 22 q 319 22 318 22 q 324 21 321 21 l 342 21 q 501 61 426 21 q 621 174 575 101 l 621 172 q 649 249 644 215 q 654 283 654 282 q 663 315 654 307 q 676 321 667 321 q 684 320 679 321 q 693 319 689 319 q 699 312 696 317 q 706 300 703 307 q 701 277 707 289 q 693 261 696 265 l 696 264 q 681 237 689 251 q 665 208 672 222 q 652 182 658 194 q 639 158 646 169 q 511 42 589 83 q 342 0 433 0 q 125 75 224 0 q 82 108 97 93 l -215 410 q -231 424 -219 413 q -244 439 -242 435 q -306 498 -274 469 q -374 543 -337 526 q -433 564 -403 558 q -494 569 -464 569 q -536 567 -515 569 q -576 560 -557 564 q -671 513 -628 544 q -743 439 -714 481 q -785 343 -772 394 q -790 240 -797 292 q -777 174 -787 204 q -749 117 -767 144 q -731 107 -740 114 q -719 93 -722 100 q -718 82 -717 85 q -704 71 -707 78 q -703 63 -701 64 q -702 61 -703 61 q -701 60 -701 61 q -700 58 -701 58 l -701 58 q -615 2 -664 24 q -512 -22 -565 -19 q 257 -24 -126 -22 q 1026 -25 640 -25 q 1105 -5 1068 -25 q 1165 51 1142 15 q 1185 94 1178 71 q 1193 143 1193 118 q 1190 174 1193 158 q 1179 207 1186 190 q 1131 271 1164 243 q 1060 308 1097 299 q 932 282 989 321 q 901 251 913 267 q 881 221 889 235 q 873 206 876 214 q 867 192 869 199 q 838 165 856 165 q 826 168 832 165 q 821 174 822 168 q 817 193 817 178 q 826 213 818 204 q 839 222 833 221 q 881 258 858 239 q 924 293 904 276 q 990 322 954 314 q 1063 322 1025 329 m 850 194 q 853 201 850 197 q 853 205 854 206 q 850 206 851 204 q 851 211 849 207 q 867 228 854 215 q 857 219 861 224 q 847 210 853 214 l 839 201 q 832 189 832 194 q 836 181 831 186 l 836 182 l 838 182 q 850 197 843 182 l 850 194 m 678 297 l 678 299 l 679 299 l 678 297 m 675 283 q 675 278 675 282 q 674 265 675 275 l 681 279 q 681 283 681 281 q 682 286 682 285 q 683 290 682 289 q 683 293 683 292 q 679 297 683 296 l 678 297 q 675 283 675 292 m -4 392 l -6 392 l -4 392 m -1 410 q -1 417 -1 411 q 0 433 -1 424 l -12 408 l -11 410 q -11 397 -14 401 q -6 392 -11 396 l -6 393 q -2 399 -3 396 q -1 410 -1 401 m 417 453 q 418 442 418 449 l 415 442 l 410 444 l 417 453 m 146 88 q 212 49 174 65 q 285 26 250 33 q 430 313 357 171 q 575 599 503 454 q 512 645 547 625 q 442 676 476 665 q 397 591 419 633 q 354 504 375 549 l 424 469 q 432 453 432 465 q 418 442 428 442 q 414 422 418 431 l 414 424 q 389 403 406 408 l 385 403 q 376 400 379 400 q 356 406 367 400 l 357 404 q 344 410 351 407 q 331 415 338 413 l 321 415 q 317 416 318 415 q 313 417 315 417 l 146 88 m 342 478 q 334 463 339 474 q 326 447 329 453 q 347 437 338 442 q 365 426 356 432 q 382 424 374 424 q 388 428 385 425 q 393 433 392 431 q 396 446 396 436 q 392 453 394 447 l 342 478 m 274 443 q 289 442 276 442 l 276 449 l 274 443 m 289 442 q 294 441 292 442 q 299 440 296 440 q 300 442 300 442 q 301 444 300 443 l 304 433 l 289 442 m 313 439 q 326 436 324 439 l 315 425 l 308 429 l 319 432 l 313 439 m 422 683 q 412 685 417 685 q 397 688 407 685 l 315 524 q 326 519 322 521 q 336 513 329 517 l 422 683 m 288 536 l 331 621 q 322 626 326 624 q 313 632 317 629 q 276 635 294 643 q 249 608 258 626 l 250 610 q 247 574 242 590 q 269 547 253 557 l 268 547 l 288 536 m 303 496 q 294 481 299 489 q 285 465 289 472 q 296 460 292 463 q 307 456 300 458 q 315 470 311 463 q 324 486 319 478 l 303 496 m 229 456 q 232 454 231 456 l 233 454 l 229 456 m 231 463 q 232 454 226 458 q 237 453 235 454 q 242 450 239 451 l 246 450 l 251 461 q 246 463 247 461 q 243 464 244 463 q 235 467 240 464 q 231 463 235 467 m 289 418 q 278 419 283 419 q 268 421 274 419 l 265 421 q 263 415 263 415 l 260 413 q 258 383 265 399 q 251 376 254 379 q 242 371 249 372 l 239 365 q 235 350 239 358 q 231 346 232 347 q 224 342 229 344 q 167 228 194 282 q 110 115 139 174 q 121 105 117 108 q 129 99 125 101 l 289 418 m 244 383 l 236 393 q 239 394 238 393 q 242 394 240 394 q 243 396 243 394 l 242 396 q 242 398 242 397 q 243 400 243 399 l 243 401 l 253 401 l 244 383 m 229 401 q 229 396 226 399 l 218 396 q 224 408 221 401 q 231 419 228 414 l 236 408 q 231 406 233 408 l 229 401 z "}," ":{"ha":319,"x_min":0,"x_max":0,"o":""},"!":{"ha":85,"x_min":22,"x_max":47,"o":"m 35 711 q 47 699 47 711 l 47 133 q 35 121 47 121 q 22 133 22 121 l 22 699 q 35 711 22 711 m 33 106 q 47 94 47 106 l 47 13 q 33 0 47 0 q 22 13 22 0 l 22 94 q 33 106 22 106 z "},"?":{"ha":263,"x_min":4,"x_max":236,"o":"m 225 107 q 236 94 236 107 l 236 13 q 225 0 236 0 q 211 13 211 0 l 211 94 q 225 107 211 107 m 225 711 q 236 699 236 711 l 236 135 q 225 122 236 122 q 213 135 213 122 l 213 685 q 139 666 172 682 q 81 624 106 650 q 43 563 57 597 q 29 490 29 529 q 71 370 29 422 q 178 301 113 318 q 183 289 186 300 q 179 281 182 285 q 168 278 176 278 q 50 356 96 297 q 4 490 4 414 q 22 576 4 536 q 69 647 39 617 q 139 694 99 676 q 225 711 179 711 z "},"(":{"ha":256,"x_min":18,"x_max":246,"o":"m 233 686 q 149 668 186 686 l 149 42 q 233 26 188 26 q 246 14 246 26 q 233 0 246 0 q 144 16 181 0 q 83 56 107 32 q 47 109 60 81 q 27 162 33 138 q 19 203 21 186 q 18 219 18 219 l 18 496 q 21 522 18 503 q 31 564 24 540 q 53 614 39 588 q 90 662 67 640 q 149 697 114 683 q 233 711 183 711 q 246 699 246 711 q 233 686 246 686 m 43 219 q 43 208 43 218 q 46 183 43 199 q 53 149 49 168 q 69 113 58 131 l 69 596 q 46 528 49 560 q 43 493 43 497 l 43 219 m 118 651 q 93 628 106 643 l 93 82 q 105 69 99 76 q 118 58 111 63 l 118 651 z "},"`":{"ha":208,"x_min":50,"x_max":138,"o":"m 63 482 q 61 499 50 488 q 81 499 68 514 q 106 474 92 488 q 132 449 119 460 q 133 431 138 443 q 121 424 126 424 q 113 432 115 425 q 101 442 108 435 q 87 457 94 449 q 72 472 79 465 q 63 482 65 479 z "},".":{"ha":76,"x_min":18,"x_max":57,"o":"m 18 19 q 38 39 18 39 q 57 19 57 39 q 38 0 57 0 q 18 19 18 0 z "},",":{"ha":172,"x_min":3,"x_max":156,"o":"m 143 19 q 156 7 156 19 q 136 -83 156 -51 q 94 -130 117 -115 q 51 -147 71 -144 q 31 -150 31 -150 l 14 -150 q 3 -137 3 -150 q 14 -125 3 -125 l 31 -125 q 48 -123 32 -125 q 83 -108 64 -121 q 117 -69 101 -96 q 132 7 132 -42 q 143 19 132 19 z "},")":{"ha":257,"x_min":7,"x_max":235,"o":"m 21 25 q 104 40 65 25 l 104 667 q 21 685 67 685 q 7 697 7 685 q 21 711 7 711 q 138 681 96 711 q 202 613 181 651 q 229 540 224 575 q 235 492 235 504 l 235 215 q 232 190 235 208 q 222 147 229 171 q 201 97 215 122 q 164 49 188 71 q 105 14 140 28 q 21 0 69 0 q 7 13 7 0 q 21 25 7 25 m 210 492 q 210 502 210 493 q 209 526 211 511 q 201 558 207 540 q 183 596 196 576 l 183 113 q 199 149 193 131 q 207 181 204 167 q 210 206 210 196 q 210 218 210 215 l 210 492 m 135 60 q 161 83 150 69 l 161 628 q 150 640 154 635 q 135 653 146 646 l 135 60 z "},"":{"ha":460,"x_min":21,"x_max":433,"o":"m 33 0 q 21 13 21 0 l 21 217 q 26 260 21 226 q 53 330 32 294 q 115 394 74 365 q 226 422 156 422 q 313 407 278 422 q 371 369 347 392 q 407 319 394 346 q 425 268 419 292 q 432 228 431 244 q 433 213 433 213 l 433 11 q 422 -1 433 -1 q 410 11 410 -1 l 410 142 l 46 142 l 46 13 q 33 0 46 0 m 226 396 q 123 368 160 396 q 69 307 86 340 q 49 244 53 274 q 46 213 46 215 l 46 168 l 410 168 l 410 213 q 406 244 410 215 q 385 307 403 274 q 331 368 368 340 q 226 396 294 396 m 203 482 q 201 499 190 488 q 221 499 208 514 q 246 474 232 488 q 272 449 260 460 q 274 431 278 443 q 261 424 267 424 q 253 432 256 425 q 242 442 249 435 q 227 457 235 449 q 213 472 219 465 q 203 482 206 479 z "},"":{"ha":208,"x_min":56,"x_max":144,"o":"m 131 497 q 129 479 144 488 q 104 453 117 465 q 81 428 92 440 q 63 431 69 417 l 63 428 q 56 440 56 435 q 64 449 57 446 l 114 499 q 131 497 121 514 l 131 499 l 131 497 l 132 497 l 131 497 z "},"":{"ha":460,"x_min":21,"x_max":433,"o":"m 33 0 q 21 13 21 0 l 21 217 q 26 260 21 226 q 53 330 32 294 q 115 394 74 365 q 226 422 156 422 q 313 407 278 422 q 371 369 347 392 q 407 319 394 346 q 425 268 419 292 q 432 228 431 244 q 433 213 433 213 l 433 11 q 422 -1 433 -1 q 410 11 410 -1 l 410 142 l 46 142 l 46 13 q 33 0 46 0 m 226 396 q 123 368 160 396 q 69 307 86 340 q 49 244 53 274 q 46 213 46 215 l 46 168 l 410 168 l 410 213 q 406 244 410 215 q 385 307 403 274 q 331 368 368 340 q 226 396 294 396 m 263 497 q 261 479 276 488 q 236 453 249 465 q 213 428 224 440 q 194 431 201 417 l 194 428 q 188 440 188 435 q 196 449 189 446 l 246 499 q 263 497 253 514 l 263 499 l 263 497 l 264 497 l 263 497 z "},"":{"ha":376,"x_min":97,"x_max":236,"o":"m 118 428 q 108 431 111 428 l 111 431 q 108 449 97 438 l 160 500 q 179 500 169 510 l 228 451 q 231 431 236 436 q 221 428 228 428 q 211 431 214 428 l 169 472 l 126 431 q 118 428 124 428 z "},"":{"ha":460,"x_min":21,"x_max":433,"o":"m 33 0 q 21 13 21 0 l 21 217 q 26 260 21 226 q 53 330 32 294 q 115 394 74 365 q 226 422 156 422 q 313 407 278 422 q 371 369 347 392 q 407 319 394 346 q 425 268 419 292 q 432 228 431 244 q 433 213 433 213 l 433 11 q 422 -1 433 -1 q 410 11 410 -1 l 410 142 l 46 142 l 46 13 q 33 0 46 0 m 226 396 q 123 368 160 396 q 69 307 86 340 q 49 244 53 274 q 46 213 46 215 l 46 168 l 410 168 l 410 213 q 406 244 410 215 q 385 307 403 274 q 331 368 368 340 q 226 396 294 396 m 176 428 q 167 431 169 428 l 169 431 q 167 449 156 438 l 218 500 q 238 500 228 510 l 286 451 q 289 431 294 436 q 279 428 286 428 q 269 431 272 428 l 228 472 l 185 431 q 176 428 182 428 z "},"":{"ha":453,"x_min":18,"x_max":431,"o":"m 38 144 q 25 156 25 144 q 38 168 25 168 l 224 168 q 236 156 236 168 q 224 144 236 144 l 38 144 m 226 0 q 146 17 183 0 q 80 62 108 33 q 35 128 51 90 q 18 211 18 167 q 35 293 18 254 q 80 360 51 332 q 146 406 108 389 q 226 422 183 422 q 354 380 297 422 q 431 269 411 338 q 429 260 431 267 q 419 254 428 254 q 410 255 411 254 q 408 261 408 256 q 407 261 407 260 q 340 359 389 322 q 226 396 290 396 q 156 381 189 396 q 97 342 122 367 q 56 283 71 317 q 42 211 42 249 q 56 139 42 172 q 97 81 71 106 q 156 41 122 56 q 226 26 189 26 q 340 65 290 26 q 407 164 390 103 q 422 168 415 172 q 428 163 425 167 q 431 153 431 160 q 355 42 411 85 q 226 0 299 0 m 190 482 q 189 499 178 488 q 208 499 196 514 q 233 474 219 488 q 260 449 247 460 q 261 431 265 443 q 249 424 254 424 q 240 432 243 425 q 229 442 236 435 q 215 457 222 449 q 200 472 207 465 q 190 482 193 479 z "},"":{"ha":453,"x_min":18,"x_max":431,"o":"m 38 144 q 25 156 25 144 q 38 168 25 168 l 224 168 q 236 156 236 168 q 224 144 236 144 l 38 144 m 226 0 q 146 17 183 0 q 80 62 108 33 q 35 128 51 90 q 18 211 18 167 q 35 293 18 254 q 80 360 51 332 q 146 406 108 389 q 226 422 183 422 q 354 380 297 422 q 431 269 411 338 q 429 260 431 267 q 419 254 428 254 q 410 255 411 254 q 408 261 408 256 q 407 261 407 260 q 340 359 389 322 q 226 396 290 396 q 156 381 189 396 q 97 342 122 367 q 56 283 71 317 q 42 211 42 249 q 56 139 42 172 q 97 81 71 106 q 156 41 122 56 q 226 26 189 26 q 340 65 290 26 q 407 164 390 103 q 422 168 415 172 q 428 163 425 167 q 431 153 431 160 q 355 42 411 85 q 226 0 299 0 m 258 497 q 257 479 272 488 q 232 453 244 465 q 208 428 219 440 q 190 431 197 417 l 190 428 q 184 440 183 435 q 192 449 185 446 l 242 499 q 258 497 249 514 l 258 499 l 258 497 l 260 497 l 258 497 z "},"":{"ha":453,"x_min":18,"x_max":431,"o":"m 38 144 q 25 156 25 144 q 38 168 25 168 l 224 168 q 236 156 236 168 q 224 144 236 144 l 38 144 m 226 0 q 146 17 183 0 q 80 62 108 33 q 35 128 51 90 q 18 211 18 167 q 35 293 18 254 q 80 360 51 332 q 146 406 108 389 q 226 422 183 422 q 354 380 297 422 q 431 269 411 338 q 429 260 431 267 q 419 254 428 254 q 410 255 411 254 q 408 261 408 256 q 407 261 407 260 q 340 359 389 322 q 226 396 290 396 q 156 381 189 396 q 97 342 122 367 q 56 283 71 317 q 42 211 42 249 q 56 139 42 172 q 97 81 71 106 q 156 41 122 56 q 226 26 189 26 q 340 65 290 26 q 407 164 390 103 q 422 168 415 172 q 428 163 425 167 q 431 153 431 160 q 355 42 411 85 q 226 0 299 0 m 174 428 q 164 431 167 428 l 167 431 q 164 449 153 438 l 215 500 q 235 500 225 510 l 283 451 q 286 431 292 436 q 276 428 283 428 q 267 431 269 428 l 225 472 l 182 431 q 174 428 179 428 z "},"":{"ha":464,"x_min":18,"x_max":440,"o":"m 231 422 q 313 406 274 422 q 379 360 351 389 q 424 293 407 332 q 440 210 440 254 q 424 127 440 165 q 379 61 407 89 q 313 17 351 33 q 231 0 274 0 q 147 17 186 0 q 80 61 108 33 q 35 127 51 89 q 18 210 18 165 q 35 293 18 254 q 80 360 51 332 q 147 406 108 389 q 231 422 186 422 m 231 25 q 302 40 268 25 q 362 79 336 54 q 402 138 388 104 q 417 210 417 172 q 402 283 417 249 q 362 342 388 317 q 302 383 336 368 q 231 397 268 397 q 158 383 192 397 q 98 342 124 368 q 58 283 72 317 q 43 210 43 249 q 58 138 43 172 q 98 79 72 104 q 158 40 124 54 q 231 25 192 25 m 196 482 q 194 499 183 488 q 214 499 201 514 q 239 474 225 488 q 265 449 253 460 q 267 431 271 443 q 254 424 260 424 q 246 432 249 425 q 235 442 242 435 q 220 457 228 449 q 206 472 213 465 q 196 482 199 479 z "},"":{"ha":464,"x_min":18,"x_max":440,"o":"m 231 422 q 313 406 274 422 q 379 360 351 389 q 424 293 407 332 q 440 210 440 254 q 424 127 440 165 q 379 61 407 89 q 313 17 351 33 q 231 0 274 0 q 147 17 186 0 q 80 61 108 33 q 35 127 51 89 q 18 210 18 165 q 35 293 18 254 q 80 360 51 332 q 147 406 108 389 q 231 422 186 422 m 231 25 q 302 40 268 25 q 362 79 336 54 q 402 138 388 104 q 417 210 417 172 q 402 283 417 249 q 362 342 388 317 q 302 383 336 368 q 231 397 268 397 q 158 383 192 397 q 98 342 124 368 q 58 283 72 317 q 43 210 43 249 q 58 138 43 172 q 98 79 72 104 q 158 40 124 54 q 231 25 192 25 m 264 497 q 263 479 278 488 q 238 453 250 465 q 214 428 225 440 q 196 431 203 417 l 196 428 q 190 440 189 435 q 197 449 190 446 l 247 499 q 264 497 254 514 l 264 499 l 264 497 l 265 497 l 264 497 z "},"":{"ha":464,"x_min":18,"x_max":440,"o":"m 231 422 q 313 406 274 422 q 379 360 351 389 q 424 293 407 332 q 440 210 440 254 q 424 127 440 165 q 379 61 407 89 q 313 17 351 33 q 231 0 274 0 q 147 17 186 0 q 80 61 108 33 q 35 127 51 89 q 18 210 18 165 q 35 293 18 254 q 80 360 51 332 q 147 406 108 389 q 231 422 186 422 m 231 25 q 302 40 268 25 q 362 79 336 54 q 402 138 388 104 q 417 210 417 172 q 402 283 417 249 q 362 342 388 317 q 302 383 336 368 q 231 397 268 397 q 158 383 192 397 q 98 342 124 368 q 58 283 72 317 q 43 210 43 249 q 58 138 43 172 q 98 79 72 104 q 158 40 124 54 q 231 25 192 25 m 179 428 q 169 431 172 428 l 172 431 q 169 449 158 438 l 221 500 q 240 500 231 510 l 289 451 q 292 431 297 436 q 282 428 289 428 q 272 431 275 428 l 231 472 l 188 431 q 179 428 185 428 z "},"":{"ha":350,"x_min":76,"x_max":228,"o":"m 215 481 q 228 468 228 481 q 215 437 228 450 q 182 424 201 424 q 156 432 168 424 q 140 454 144 440 l 140 453 q 132 465 138 460 q 121 469 126 469 q 107 463 114 469 q 100 449 100 456 q 89 436 100 436 q 76 449 76 436 q 90 480 76 467 q 121 493 103 493 q 147 485 135 493 q 164 458 158 478 l 164 460 q 182 447 169 447 q 197 453 190 447 q 203 468 203 460 q 215 481 203 481 z "},"":{"ha":460,"x_min":21,"x_max":433,"o":"m 33 0 q 21 13 21 0 l 21 217 q 26 260 21 226 q 53 330 32 294 q 115 394 74 365 q 226 422 156 422 q 313 407 278 422 q 371 369 347 392 q 407 319 394 346 q 425 268 419 292 q 432 228 431 244 q 433 213 433 213 l 433 11 q 422 -1 433 -1 q 410 11 410 -1 l 410 142 l 46 142 l 46 13 q 33 0 46 0 m 226 396 q 123 368 160 396 q 69 307 86 340 q 49 244 53 274 q 46 213 46 215 l 46 168 l 410 168 l 410 213 q 406 244 410 215 q 385 307 403 274 q 331 368 368 340 q 226 396 294 396 m 292 481 q 304 468 304 481 q 291 437 304 450 q 258 424 278 424 q 233 432 244 424 q 217 454 221 440 l 217 453 q 208 465 214 460 q 197 469 203 469 q 183 463 190 469 q 176 449 176 456 q 165 436 176 436 q 153 449 153 436 q 166 480 153 467 q 197 493 179 493 q 223 485 211 493 q 240 458 235 478 l 240 460 q 258 447 246 447 q 273 453 267 447 q 279 468 279 460 q 292 481 279 481 z "},"":{"ha":458,"x_min":24,"x_max":432,"o":"m 229 422 q 314 407 279 422 q 372 369 349 392 q 406 319 394 346 q 424 269 418 292 q 431 230 431 246 q 432 214 432 214 l 432 14 q 421 0 432 0 q 408 14 408 0 l 408 214 q 408 230 408 215 q 401 265 407 244 q 385 308 396 285 q 355 350 375 331 q 304 383 335 369 q 229 396 274 396 q 154 383 185 396 q 103 350 124 369 q 73 308 83 331 q 57 265 63 285 q 51 230 51 244 q 50 214 50 215 l 50 14 q 38 0 50 0 q 24 14 24 0 l 24 410 q 38 422 24 422 q 50 410 50 422 l 50 317 q 74 356 60 338 q 110 390 89 375 q 161 413 132 404 q 229 422 190 422 m 290 481 q 303 468 303 481 q 290 437 303 450 q 257 424 276 424 q 231 432 243 424 q 215 454 219 440 l 215 453 q 207 465 213 460 q 196 469 201 469 q 182 463 189 469 q 175 449 175 456 q 164 436 175 436 q 151 449 151 436 q 165 480 151 467 q 196 493 178 493 q 222 485 210 493 q 239 458 233 478 l 239 460 q 257 447 244 447 q 272 453 265 447 q 278 468 278 460 q 290 481 278 481 z "},"":{"ha":464,"x_min":18,"x_max":440,"o":"m 231 422 q 313 406 274 422 q 379 360 351 389 q 424 293 407 332 q 440 210 440 254 q 424 127 440 165 q 379 61 407 89 q 313 17 351 33 q 231 0 274 0 q 147 17 186 0 q 80 61 108 33 q 35 127 51 89 q 18 210 18 165 q 35 293 18 254 q 80 360 51 332 q 147 406 108 389 q 231 422 186 422 m 231 25 q 302 40 268 25 q 362 79 336 54 q 402 138 388 104 q 417 210 417 172 q 402 283 417 249 q 362 342 388 317 q 302 383 336 368 q 231 397 268 397 q 158 383 192 397 q 98 342 124 368 q 58 283 72 317 q 43 210 43 249 q 58 138 43 172 q 98 79 72 104 q 158 40 124 54 q 231 25 192 25 m 293 481 q 306 468 306 481 q 292 437 306 450 q 260 424 279 424 q 234 432 246 424 q 218 454 222 440 l 218 453 q 210 465 215 460 q 199 469 204 469 q 185 463 192 469 q 178 449 178 456 q 167 436 178 436 q 154 449 154 436 q 167 480 154 467 q 199 493 181 493 q 224 485 213 493 q 242 458 236 478 l 242 460 q 260 447 247 447 q 274 453 268 447 q 281 468 281 460 q 293 481 281 481 z "},"":{"ha":347,"x_min":121,"x_max":203,"o":"m 121 463 q 140 483 121 483 q 161 463 161 483 q 140 444 161 444 q 121 463 121 444 m 164 463 q 183 483 164 483 q 203 463 203 483 q 183 444 203 444 q 164 463 164 444 z "},"":{"ha":460,"x_min":21,"x_max":433,"o":"m 33 0 q 21 13 21 0 l 21 217 q 26 260 21 226 q 53 330 32 294 q 115 394 74 365 q 226 422 156 422 q 313 407 278 422 q 371 369 347 392 q 407 319 394 346 q 425 268 419 292 q 432 228 431 244 q 433 213 433 213 l 433 11 q 422 -1 433 -1 q 410 11 410 -1 l 410 142 l 46 142 l 46 13 q 33 0 46 0 m 226 396 q 123 368 160 396 q 69 307 86 340 q 49 244 53 274 q 46 213 46 215 l 46 168 l 410 168 l 410 213 q 406 244 410 215 q 385 307 403 274 q 331 368 368 340 q 226 396 294 396 m 186 463 q 206 483 186 483 q 226 463 226 483 q 206 444 226 444 q 186 463 186 444 m 229 463 q 249 483 229 483 q 268 463 268 483 q 249 444 268 444 q 229 463 229 444 z "},"":{"ha":453,"x_min":18,"x_max":431,"o":"m 38 144 q 25 156 25 144 q 38 168 25 168 l 224 168 q 236 156 236 168 q 224 144 236 144 l 38 144 m 226 0 q 146 17 183 0 q 80 62 108 33 q 35 128 51 90 q 18 211 18 167 q 35 293 18 254 q 80 360 51 332 q 146 406 108 389 q 226 422 183 422 q 354 380 297 422 q 431 269 411 338 q 429 260 431 267 q 419 254 428 254 q 410 255 411 254 q 408 261 408 256 q 407 261 407 260 q 340 359 389 322 q 226 396 290 396 q 156 381 189 396 q 97 342 122 367 q 56 283 71 317 q 42 211 42 249 q 56 139 42 172 q 97 81 71 106 q 156 41 122 56 q 226 26 189 26 q 340 65 290 26 q 407 164 390 103 q 422 168 415 172 q 428 163 425 167 q 431 153 431 160 q 355 42 411 85 q 226 0 299 0 m 183 463 q 203 483 183 483 q 224 463 224 483 q 203 444 224 444 q 183 463 183 444 m 226 463 q 246 483 226 483 q 265 463 265 483 q 246 444 265 444 q 226 463 226 444 z "},"":{"ha":464,"x_min":18,"x_max":440,"o":"m 231 422 q 313 406 274 422 q 379 360 351 389 q 424 293 407 332 q 440 210 440 254 q 424 127 440 165 q 379 61 407 89 q 313 17 351 33 q 231 0 274 0 q 147 17 186 0 q 80 61 108 33 q 35 127 51 89 q 18 210 18 165 q 35 293 18 254 q 80 360 51 332 q 147 406 108 389 q 231 422 186 422 m 231 25 q 302 40 268 25 q 362 79 336 54 q 402 138 388 104 q 417 210 417 172 q 402 283 417 249 q 362 342 388 317 q 302 383 336 368 q 231 397 268 397 q 158 383 192 397 q 98 342 124 368 q 58 283 72 317 q 43 210 43 249 q 58 138 43 172 q 98 79 72 104 q 158 40 124 54 q 231 25 192 25 m 189 463 q 208 483 189 483 q 229 463 229 483 q 208 444 229 444 q 189 463 189 444 m 232 463 q 251 483 232 483 q 271 463 271 483 q 251 444 271 444 q 232 463 232 444 z "},":":{"ha":115,"x_min":39,"x_max":78,"o":"m 39 151 q 58 172 39 172 q 78 151 78 172 q 58 132 78 132 q 39 151 39 132 m 39 236 q 58 256 39 256 q 78 236 78 256 q 58 217 78 217 q 39 236 39 217 z "},";":{"ha":278,"x_min":44,"x_max":206,"o":"m 167 38 q 185 58 167 58 q 206 38 206 58 q 185 19 206 19 q 167 38 167 19 m 186 19 q 199 7 199 19 q 179 -83 199 -51 q 137 -130 160 -115 q 94 -147 114 -144 q 74 -150 74 -150 l 57 -150 q 44 -137 44 -150 q 57 -125 44 -125 l 74 -125 q 91 -123 75 -125 q 125 -108 107 -121 q 158 -69 143 -96 q 174 7 174 -42 q 186 19 174 19 z "},"":{"ha":867,"x_min":21,"x_max":840,"o":"m 33 0 q 21 13 21 0 l 21 217 q 26 260 21 226 q 53 330 32 294 q 115 394 74 365 q 226 422 156 422 q 313 407 278 422 q 371 369 347 392 q 407 319 394 346 q 425 268 419 292 q 432 228 431 244 q 433 213 433 213 l 433 11 q 422 -1 433 -1 q 410 11 410 -1 l 410 142 l 46 142 l 46 13 q 33 0 46 0 m 226 396 q 123 368 160 396 q 69 307 86 340 q 49 244 53 274 q 46 213 46 215 l 46 168 l 410 168 l 410 213 q 406 244 410 215 q 385 307 403 274 q 331 368 368 340 q 226 396 294 396 m 447 144 q 435 156 435 144 q 447 168 435 168 l 633 168 q 646 156 646 168 q 633 144 646 144 l 447 144 m 636 0 q 556 17 593 0 q 490 62 518 33 q 444 128 461 90 q 428 211 428 167 q 444 293 428 254 q 490 360 461 332 q 556 406 518 389 q 636 422 593 422 q 764 380 707 422 q 840 269 821 338 q 839 260 840 267 q 829 254 838 254 q 819 255 821 254 q 818 261 818 256 q 817 261 817 260 q 749 359 799 322 q 636 396 700 396 q 565 381 599 396 q 506 342 532 367 q 466 283 481 317 q 451 211 451 249 q 466 139 451 172 q 506 81 481 106 q 565 41 532 56 q 636 26 599 26 q 750 65 700 26 q 817 164 800 103 q 832 168 825 172 q 838 163 835 167 q 840 153 840 160 q 765 42 821 85 q 636 0 708 0 z "},"":{"ha":139,"x_min":-25,"x_max":82,"o":"m 82 14 q 69 -51 82 -28 q 40 -86 56 -75 q 10 -99 24 -97 q -6 -101 -4 -101 l -15 -101 q -25 -90 -25 -101 q -15 -81 -25 -81 l -6 -81 q 6 -79 -4 -81 q 29 -69 17 -78 q 51 -40 42 -60 q 61 14 61 -21 l 82 14 z "},"":{"ha":454,"x_min":18,"x_max":435,"o":"m 228 0 q 147 17 185 0 q 80 63 108 33 q 35 130 51 92 q 18 211 18 168 q 35 293 18 254 q 80 360 51 332 q 147 406 108 389 q 228 422 185 422 q 355 381 299 422 q 431 271 411 339 q 421 256 435 258 q 407 264 411 254 q 340 360 389 324 q 228 397 292 397 q 157 383 190 397 q 98 342 124 368 q 58 283 72 317 q 43 211 43 249 q 58 139 43 172 q 98 81 72 106 q 157 41 124 56 q 228 26 190 26 q 341 63 292 26 q 407 160 390 100 q 425 168 411 172 q 431 151 435 167 l 431 153 q 356 42 411 85 q 228 0 300 0 m 236 14 q 223 -51 236 -28 q 194 -86 210 -75 q 164 -99 178 -97 q 149 -101 150 -101 l 139 -101 q 129 -90 129 -101 q 139 -81 129 -81 l 149 -81 q 160 -79 150 -81 q 183 -69 171 -78 q 206 -40 196 -60 q 215 14 215 -21 l 236 14 z "},"":{"ha":443,"x_min":6,"x_max":415,"o":"m 401 422 q 415 408 415 422 l 415 -374 q 401 -385 415 -385 q 390 -374 390 -385 l 390 104 q 329 32 371 64 q 210 0 288 0 q 100 28 140 0 q 39 92 60 56 q 13 162 18 128 q 6 207 7 196 l 6 408 q 18 422 6 422 q 32 408 32 422 l 32 207 q 33 191 32 206 q 39 156 33 176 q 55 113 44 136 q 85 69 65 89 q 135 37 106 50 q 210 24 165 24 q 313 51 276 24 q 367 113 350 79 q 387 175 383 146 q 390 207 390 204 l 390 408 q 401 422 390 422 m 178 463 q 197 483 178 483 q 218 463 218 483 q 197 444 218 444 q 178 463 178 444 m 221 463 q 240 483 221 483 q 260 463 260 483 q 240 444 260 444 q 221 463 221 444 z "},"":{"ha":263,"x_min":4,"x_max":236,"o":"m 225 604 q 236 617 236 604 l 236 699 q 225 711 236 711 q 211 699 211 711 l 211 617 q 225 604 211 604 m 225 0 q 236 13 236 0 l 236 576 q 225 589 236 589 q 213 576 213 589 l 213 27 q 139 45 172 29 q 81 88 106 61 q 43 148 57 114 q 29 221 29 182 q 71 341 29 289 q 178 410 113 393 q 183 422 186 411 q 179 430 182 426 q 168 433 176 433 q 50 356 96 414 q 4 221 4 297 q 22 135 4 175 q 69 65 39 95 q 139 17 99 35 q 225 0 179 0 z "},"":{"ha":456,"x_min":21,"x_max":429,"o":"m 417 422 q 429 410 429 422 l 429 203 q 422 159 428 192 q 396 91 417 126 q 335 28 375 56 q 225 0 294 0 q 139 16 174 0 q 82 55 104 32 q 47 106 60 78 q 29 157 35 133 q 23 197 24 181 q 22 213 22 213 l 21 207 l 21 410 q 33 422 21 422 q 46 410 46 422 l 46 207 q 49 176 46 204 q 69 114 53 147 q 122 53 86 81 q 225 25 158 25 q 300 38 269 25 q 351 71 331 51 q 381 113 371 90 q 397 156 392 136 q 403 191 403 176 q 404 207 404 206 l 404 410 q 417 422 404 422 m 192 482 q 190 499 179 488 q 210 499 197 514 q 235 474 221 488 q 261 449 249 460 q 263 431 267 443 q 250 424 256 424 q 242 432 244 425 q 231 442 238 435 q 216 457 224 449 q 201 472 208 465 q 192 482 194 479 z "},"":{"ha":456,"x_min":21,"x_max":429,"o":"m 417 422 q 429 410 429 422 l 429 203 q 422 159 428 192 q 396 91 417 126 q 335 28 375 56 q 225 0 294 0 q 139 16 174 0 q 82 55 104 32 q 47 106 60 78 q 29 157 35 133 q 23 197 24 181 q 22 213 22 213 l 21 207 l 21 410 q 33 422 21 422 q 46 410 46 422 l 46 207 q 49 176 46 204 q 69 114 53 147 q 122 53 86 81 q 225 25 158 25 q 300 38 269 25 q 351 71 331 51 q 381 113 371 90 q 397 156 392 136 q 403 191 403 176 q 404 207 404 206 l 404 410 q 417 422 404 422 m 260 497 q 258 479 274 488 q 233 453 246 465 q 210 428 221 440 q 192 431 199 417 l 192 428 q 185 440 185 435 q 193 449 186 446 l 243 499 q 260 497 250 514 l 260 499 l 260 497 l 261 497 l 260 497 z "},"":{"ha":456,"x_min":21,"x_max":429,"o":"m 417 422 q 429 410 429 422 l 429 203 q 422 159 428 192 q 396 91 417 126 q 335 28 375 56 q 225 0 294 0 q 139 16 174 0 q 82 55 104 32 q 47 106 60 78 q 29 157 35 133 q 23 197 24 181 q 22 213 22 213 l 21 207 l 21 410 q 33 422 21 422 q 46 410 46 422 l 46 207 q 49 176 46 204 q 69 114 53 147 q 122 53 86 81 q 225 25 158 25 q 300 38 269 25 q 351 71 331 51 q 381 113 371 90 q 397 156 392 136 q 403 191 403 176 q 404 207 404 206 l 404 410 q 417 422 404 422 m 175 428 q 165 431 168 428 l 168 431 q 165 449 154 438 l 217 500 q 236 500 226 510 l 285 451 q 288 431 293 436 q 278 428 285 428 q 268 431 271 428 l 226 472 l 183 431 q 175 428 181 428 z "},"":{"ha":456,"x_min":21,"x_max":429,"o":"m 417 422 q 429 410 429 422 l 429 203 q 422 159 428 192 q 396 91 417 126 q 335 28 375 56 q 225 0 294 0 q 139 16 174 0 q 82 55 104 32 q 47 106 60 78 q 29 157 35 133 q 23 197 24 181 q 22 213 22 213 l 21 207 l 21 410 q 33 422 21 422 q 46 410 46 422 l 46 207 q 49 176 46 204 q 69 114 53 147 q 122 53 86 81 q 225 25 158 25 q 300 38 269 25 q 351 71 331 51 q 381 113 371 90 q 397 156 392 136 q 403 191 403 176 q 404 207 404 206 l 404 410 q 417 422 404 422 m 185 463 q 204 483 185 483 q 225 463 225 483 q 204 444 225 444 q 185 463 185 444 m 228 463 q 247 483 228 483 q 267 463 267 483 q 247 444 267 444 q 228 463 228 444 z "},"":{"ha":443,"x_min":6,"x_max":415,"o":"m 401 422 q 415 408 415 422 l 415 -374 q 401 -385 415 -385 q 390 -374 390 -385 l 390 104 q 329 32 371 64 q 210 0 288 0 q 100 28 140 0 q 39 92 60 56 q 13 162 18 128 q 6 207 7 196 l 6 408 q 18 422 6 422 q 32 408 32 422 l 32 207 q 33 191 32 206 q 39 156 33 176 q 55 113 44 136 q 85 69 65 89 q 135 37 106 50 q 210 24 165 24 q 313 51 276 24 q 367 113 350 79 q 387 175 383 146 q 390 207 390 204 l 390 408 q 401 422 390 422 m 254 497 q 253 479 268 488 q 228 453 240 465 q 204 428 215 440 q 186 431 193 417 l 186 428 q 180 440 179 435 q 188 449 181 446 l 238 499 q 254 497 244 514 l 254 499 l 254 497 l 256 497 l 254 497 z "},"@":{"ha":647,"x_min":26,"x_max":604,"o":"m 315 483 q 426 460 374 483 q 517 399 478 438 q 581 307 557 360 q 604 194 604 254 q 581 83 604 136 q 517 -9 557 31 q 426 -72 478 -49 q 315 -94 374 -94 q 203 -72 256 -94 q 111 -9 150 -49 q 49 83 72 31 q 26 194 26 136 q 49 307 26 254 q 111 399 72 360 q 203 460 150 438 q 315 483 256 483 m 321 375 q 226 349 260 375 q 177 292 193 324 q 158 234 161 261 q 154 204 154 207 l 154 161 l 486 161 l 486 204 q 483 234 486 207 q 465 292 481 261 q 415 349 449 324 q 321 375 382 375 m 150 -15 q 154 -18 151 -15 l 154 -19 q 153 -27 154 -26 q 146 -28 153 -28 l 150 -15 m 154 -18 q 228 -56 188 -40 q 315 -72 269 -72 q 409 -54 364 -72 q 486 -6 454 -36 l 486 140 l 154 140 l 154 -18 m 510 15 q 563 98 544 53 q 582 194 582 143 q 560 297 582 249 q 503 382 539 346 q 418 440 467 418 q 315 461 369 461 q 213 440 261 461 q 128 382 164 418 q 70 297 92 346 q 49 194 49 249 q 129 4 49 78 l 129 204 q 130 219 129 204 q 136 256 131 233 q 153 303 142 278 q 186 349 165 328 q 240 385 207 371 q 321 399 272 399 q 401 384 368 399 q 454 347 433 369 q 486 299 475 325 q 502 251 497 274 q 508 214 507 229 q 508 199 508 199 l 510 204 l 510 15 z "},"a":{"ha":460,"x_min":21,"x_max":433,"o":"m 33 0 q 21 13 21 0 l 21 217 q 26 260 21 226 q 53 330 32 294 q 115 394 74 365 q 226 422 156 422 q 313 407 278 422 q 371 369 347 392 q 407 319 394 346 q 425 268 419 292 q 432 228 431 244 q 433 213 433 213 l 433 11 q 422 -1 433 -1 q 410 11 410 -1 l 410 142 l 46 142 l 46 13 q 33 0 46 0 m 226 396 q 123 368 160 396 q 69 307 86 340 q 49 244 53 274 q 46 213 46 215 l 46 168 l 410 168 l 410 213 q 406 244 410 215 q 385 307 403 274 q 331 368 368 340 q 226 396 294 396 z "},"m":{"ha":697,"x_min":25,"x_max":664,"o":"m 639 210 q 635 242 639 213 q 615 305 632 271 q 562 367 599 339 q 458 394 525 394 q 408 387 433 394 q 365 372 383 379 q 406 321 392 349 q 426 269 419 293 q 433 227 432 244 q 433 210 433 210 l 433 13 q 421 0 433 0 q 408 13 408 0 l 408 210 q 405 242 408 213 q 385 305 401 271 q 332 367 368 339 q 231 394 296 394 q 127 367 164 394 q 74 305 90 339 q 53 242 57 271 q 50 210 50 213 l 50 13 q 39 0 50 0 q 25 13 25 0 l 25 408 q 39 422 25 422 q 50 408 50 422 l 50 313 q 112 388 69 354 q 231 421 154 421 q 295 413 267 421 q 344 389 324 404 q 458 421 392 421 q 545 405 510 421 q 603 365 581 389 q 638 313 626 342 q 656 261 650 285 q 662 221 661 238 q 663 204 663 204 l 664 210 l 664 13 q 650 0 664 0 q 639 13 639 0 l 639 210 z "}}}
